<svg height="512pt" viewBox="0 0 511 512" width="512pt" xmlns="http://www.w3.org/2000/svg"><path d="m255.871094 229.996094-76.414063-3.902344-53.335937 28.667969-8.054688 80.25 33.546875 59.75 25.175781 59.683593 72.667969 7.898438 90.925781-7.898438 23.738282-66.183593 29.136718-72.167969-17.691406-55.308594-27.308594-30.789062zm0 0" fill="#fc5659"/><path d="m323.71875 53.851562c0-5.886718-5.648438-10.125-11.296875-8.480468l-22.054687 6.425781c-6.6875 1.945313-12.894532-4.257813-10.945313-10.945313l6.425781-22.054687c1.644532-5.648437-2.59375-11.296875-8.476562-11.296875h-42.996094c-5.886719 0-10.125 5.648438-8.480469 11.296875l6.425781 22.054687c1.945313 6.6875-4.257812 12.894532-10.945312 10.945313l-22.054688-6.425781c-5.648437-1.644532-11.296874 2.59375-11.296874 8.480468v42.996094c0 5.882813 5.648437 10.121094 11.296874 8.472656l22.054688-6.421874c6.6875-1.949219 12.894531 4.257812 10.945312 10.945312l-6.425781 22.054688c-1.644531 5.648437 2.59375 11.296874 8.480469 11.296874h42.996094c5.882812 0 10.121094-5.648437 8.476562-11.296874l-6.425781-22.054688c-1.945313-6.6875 4.257813-12.894531 10.945313-10.945312l22.054687 6.421874c5.648437 1.648438 11.296875-2.589843 11.296875-8.472656zm0 0" fill="#ffd54f"/><path d="m255.871094 99.09375c-8.527344 0-16.765625 1.273438-24.542969 3.617188 1.261719 2.003906 1.753906 4.527343.992187 7.132812l-6.421874 22.054688c-1.644532 5.648437 2.59375 11.296874 8.476562 11.296874h42.996094c5.882812 0 10.121094-5.648437 8.476562-11.296874l-6.421875-22.054688c-.757812-2.605469-.269531-5.128906.992188-7.132812-7.78125-2.34375-16.015625-3.617188-24.546875-3.617188zm0 0" fill="#fabc36"/><path d="m316.144531 184.363281c0 33.289063-26.984375 60.273438-60.273437 60.273438-33.285156 0-60.269532-26.984375-60.269532-60.273438 0-33.285156 26.984376-60.269531 60.269532-60.269531 33.289062 0 60.273437 26.984375 60.273437 60.269531zm0 0" fill="#fc5659"/><path d="m225.597656 184.363281c0-28.105469 19.242188-51.71875 45.273438-58.386719-4.796875-1.230468-9.820313-1.882812-15-1.882812-33.285156 0-60.273438 26.984375-60.273438 60.269531 0 33.289063 26.988282 60.273438 60.273438 60.273438 5.179687 0 10.203125-.65625 15-1.882813-26.027344-6.667968-45.273438-30.28125-45.273438-58.390625zm0 0" fill="#f24447"/><path d="m193.300781 450.003906-10.363281-3.074218c-1.761719-.519532-3.273438-1.488282-4.492188-2.867188-33.167968-37.566406-54.507812-77.457031-61.710937-115.359375-4.636719-24.410156-3.1875-47.222656 4.191406-65.96875l8.632813-21.933594-23.527344 1.46875-.332031.015625c-.457031.023438-.914063.046875-1.363281.082032-19.738282 1.613281-36.058594 9.886718-47.203126 23.921874-13.421874 16.902344-17.863281 40.796876-12.5 67.277344 6.363282 31.417969 26.039063 65.085938 56.90625 97.371094 1.792969 1.871094 2.746094 4.332031 2.6875 6.921875-.058593 2.589844-1.121093 5.003906-2.996093 6.792969-.375.359375-.816407.707031-1.359375 1.070312l-13.261719 8.824219 24.457031 32.347656h83.488282zm0 0" fill="#f24447"/><path d="m318.445312 450.003906 10.359376-3.074218c1.761718-.519532 3.273437-1.488282 4.492187-2.867188 33.171875-37.566406 54.507813-77.457031 61.710937-115.359375 4.640626-24.410156 3.191407-47.222656-4.1875-65.96875l-8.632812-21.933594 23.523438 1.46875.335937.015625c.457031.023438.914063.046875 1.363281.082032 19.734375 1.613281 36.058594 9.886718 47.203125 23.921874 13.421875 16.902344 17.859375 40.796876 12.496094 67.277344-6.359375 31.417969-26.039063 65.085938-56.90625 97.371094-1.789063 1.871094-2.742187 4.332031-2.6875 6.921875.058594 2.589844 1.125 5.003906 2.996094 6.792969.375.359375.820312.707031 1.363281 1.070312l13.261719 8.824219-24.457031 32.347656h-83.488282zm0 0" fill="#f24447"/><path d="m59.335938 330.585938c-4.46875-22.070313-1.078126-41.59375 9.542968-54.972657 8.5-10.703125 21.183594-17.03125 36.675782-18.296875 9.632812-.789062 19.972656.414063 30.695312 3.492188l35.765625-39.402344c-23.957031-10.582031-47.976563-15.171875-70.484375-13.328125-29.039062 2.371094-54.375 15.445313-71.34375 36.8125-19.839844 24.988281-26.683594 58.902344-19.273438 95.5 7.65625 37.800781 30.394532 77.328125 65.761719 114.320313 4.851563 5.074218 11.347657 7.632812 17.855469 7.632812 6.136719 0 12.28125-2.273438 17.066406-6.851562 9.863282-9.425782 10.214844-25.0625.785156-34.921876-28.90625-30.234374-47.25-61.347656-53.046874-89.984374zm0 0" fill="#ffd54f"/><path d="m481.554688 244.894531c-16.964844-21.367187-42.304688-34.445312-71.34375-36.816406-22.300782-1.824219-46.089844 2.664063-69.828126 13.042969l35.1875 39.664062c10.695313-3.0625 21.003907-4.253906 30.617188-3.46875 15.496094 1.265625 28.179688 7.59375 36.675781 18.296875 10.625 13.378907 14.015625 32.902344 9.546875 54.972657-5.800781 28.636718-24.144531 59.75-53.046875 89.984374-9.429687 9.859376-9.078125 25.496094.78125 34.921876 4.789063 4.578124 10.933594 6.851562 17.066407 6.851562 6.507812-.003906 13.007812-2.558594 17.859374-7.632812 35.367188-36.992188 58.105469-76.523438 65.761719-114.320313 7.40625-36.59375.5625-70.511719-19.277343-95.496094zm0 0" fill="#ffd54f"/><path d="m102.695312 208.003906c-1.269531 1.386719-2.511718 2.800782-3.714843 4.253906-14.011719 16.945313-23.222657 37.441407-27.378907 60.25 8.386719-8.816406 20.03125-14.054687 33.957032-15.191406 9.632812-.789062 19.96875.414063 30.695312 3.492188l35.761719-39.402344c-23.546875-10.402344-47.148437-14.996094-69.320313-13.402344zm0 0" fill="#fabc36"/><path d="m185.726562 462.34375c-6.835937 0-13.640624-2.824219-18.523437-8.355469-34.953125-39.585937-57.5-81.9375-65.203125-122.484375-7.558594-39.753906-.417969-75.3125 20.101562-100.128906 25.390626-30.707031 77.171876-48.933594 146.351563-7.996094 11.738281 6.949219 15.625 22.097656 8.675781 33.839844-6.949218 11.742188-22.097656 15.625-33.839844 8.675781-36-21.304687-67.070312-22.441406-83.117187-3.035156-10.816406 13.078125-14.328125 34.738281-9.640625 59.417969 4.21875 22.199218 16.960938 57.398437 53.703125 99.011718 9.027344 10.226563 8.058594 25.839844-2.167969 34.867188-4.695312 4.148438-10.527344 6.1875-16.339844 6.1875zm0 0" fill="#ffd54f"/><path d="m406.1875 257.316406c13.925781 1.136719 25.570312 6.375 33.957031 15.191406-4.15625-22.808593-13.371093-43.304687-27.382812-60.25-1.199219-1.453124-2.445313-2.867187-3.710938-4.253906-21.96875-1.578125-45.339843 2.917969-68.667969 13.117188l35.183594 39.664062c10.699219-3.0625 21.007813-4.253906 30.621094-3.46875zm0 0" fill="#fabc36"/><path d="m326.015625 462.34375c-5.808594 0-11.640625-2.039062-16.339844-6.1875-10.226562-9.027344-11.199219-24.636719-2.167969-34.867188 36.742188-41.609374 49.484376-76.808593 53.703126-99.011718 4.6875-24.679688 1.175781-46.335938-9.640626-59.417969-16.046874-19.402344-47.117187-18.265625-83.117187 3.035156-11.742187 6.949219-26.890625 3.066407-33.839844-8.675781s-3.0625-26.890625 8.679688-33.839844c69.175781-40.9375 120.957031-22.707031 146.347656 8 20.519531 24.8125 27.660156 60.371094 20.105469 100.125-7.707032 40.546875-30.253906 82.902344-65.203125 122.488282-4.882813 5.527343-11.6875 8.351562-18.527344 8.351562zm0 0" fill="#ffd54f"/><g fill="#fabc36"><path d="m310.574219 417.765625c-1.007813 1.167969-2.023438 2.34375-3.066407 3.523437-8.484374 9.609376-8.136718 23.96875.414063 33.15625 1.714844-5.300781 2.652344-10.945312 2.652344-16.804687zm0 0"/><path d="m310.574219 249.75v-40.683594c0-3.058594-.265625-6.058594-.75-8.984375-19.734375 1.734375-42.039063 8.804688-66.53125 23.296875-11.742188 6.949219-15.628907 22.097656-8.679688 33.839844 6.949219 11.738281 22.097657 15.625 33.839844 8.675781 15.167969-8.976562 29.457031-14.355469 42.121094-16.144531zm0 0"/><path d="m268.453125 223.378906c-24.492187-14.492187-46.800781-21.5625-66.53125-23.296875-.488281 2.925781-.753906 5.925781-.753906 8.984375v40.683594c12.664062 1.789062 26.953125 7.167969 42.125 16.144531 11.738281 6.949219 26.890625 3.066407 33.835937-8.675781 6.949219-11.742188 3.0625-26.894531-8.675781-33.839844zm0 0"/><path d="m201.171875 417.765625v19.875c0 5.863281.933594 11.507813 2.652344 16.804687 8.550781-9.1875 8.894531-23.546874.410156-33.15625-1.042969-1.179687-2.058594-2.355468-3.0625-3.523437zm0 0"/></g><path d="m255.871094 462.34375c-13.640625 0-24.699219-11.0625-24.699219-24.703125v-228.574219c0-13.640625 11.058594-24.703125 24.699219-24.703125 13.644531 0 24.703125 11.0625 24.703125 24.703125v228.574219c0 13.640625-11.058594 24.703125-24.703125 24.703125zm0 0" fill="#ffd54f"/><path d="m463.617188 420.570312h-415.492188c-11.792969 0-21.355469 9.5625-21.355469 21.355469v41.21875c0 11.796875 9.5625 21.355469 21.355469 21.355469h415.492188c11.792968 0 21.351562-9.5625 21.351562-21.355469v-41.21875c0-11.796875-9.558594-21.355469-21.351562-21.355469zm0 0" fill="#fabc36"/><path d="m274.976562 462.34375c0 10.546875-8.554687 19.101562-19.105468 19.101562-10.550782 0-19.101563-8.554687-19.101563-19.101562 0-10.550781 8.550781-19.105469 19.101563-19.105469 10.550781 0 19.105468 8.554688 19.105468 19.105469zm0 0" fill="#f24447"/><path d="m360.128906 462.34375c0 10.546875-8.550781 19.101562-19.101562 19.101562-10.550782 0-19.101563-8.554687-19.101563-19.101562 0-10.550781 8.550781-19.105469 19.101563-19.105469 10.550781 0 19.101562 8.554688 19.101562 19.105469zm0 0" fill="#029be5"/><path d="m445.285156 462.34375c0 10.546875-8.554687 19.101562-19.105468 19.101562-10.546876 0-19.101563-8.554687-19.101563-19.101562 0-10.550781 8.554687-19.105469 19.101563-19.105469 10.550781 0 19.105468 8.554688 19.105468 19.105469zm0 0" fill="#4d984d"/><path d="m189.820312 462.34375c0 10.546875-8.550781 19.101562-19.101562 19.101562s-19.105469-8.554687-19.105469-19.101562c0-10.550781 8.554688-19.105469 19.105469-19.105469s19.101562 8.554688 19.101562 19.105469zm0 0" fill="#029be5"/><path d="m104.664062 462.34375c0 10.546875-8.550781 19.101562-19.101562 19.101562s-19.101562-8.554687-19.101562-19.101562c0-10.550781 8.550781-19.105469 19.101562-19.105469s19.101562 8.554688 19.101562 19.105469zm0 0" fill="#4d984d"/><path d="m255.871094 435.738281c-14.667969 0-26.601563 11.933594-26.601563 26.605469 0 14.667969 11.933594 26.601562 26.601563 26.601562 14.671875 0 26.605468-11.933593 26.605468-26.601562 0-14.671875-11.933593-26.605469-26.605468-26.605469zm0 38.207031c-6.398438 0-11.601563-5.207031-11.601563-11.601562 0-6.398438 5.203125-11.605469 11.601563-11.605469 6.398437 0 11.605468 5.207031 11.605468 11.605469 0 6.394531-5.207031 11.601562-11.605468 11.601562zm0 0"/><path d="m314.425781 462.34375c0 14.667969 11.933594 26.601562 26.601563 26.601562 14.667968 0 26.601562-11.933593 26.601562-26.601562 0-14.671875-11.933594-26.605469-26.601562-26.605469-14.667969 0-26.601563 11.933594-26.601563 26.605469zm38.203125 0c0 6.394531-5.203125 11.601562-11.601562 11.601562-6.398438 0-11.601563-5.207031-11.601563-11.601562 0-6.398438 5.203125-11.605469 11.601563-11.605469 6.398437 0 11.601562 5.207031 11.601562 11.605469zm0 0"/><path d="m426.183594 488.945312c14.667968 0 26.601562-11.933593 26.601562-26.601562 0-14.671875-11.933594-26.605469-26.601562-26.605469-14.671875 0-26.605469 11.933594-26.605469 26.605469 0 14.667969 11.933594 26.601562 26.605469 26.601562zm0-38.207031c6.398437 0 11.601562 5.207031 11.601562 11.605469 0 6.394531-5.203125 11.601562-11.601562 11.601562-6.398438 0-11.605469-5.207031-11.605469-11.601562 0-6.398438 5.207031-11.605469 11.605469-11.605469zm0 0"/><path d="m144.113281 462.34375c0 14.667969 11.933594 26.601562 26.605469 26.601562 14.667969 0 26.601562-11.933593 26.601562-26.601562 0-14.671875-11.933593-26.605469-26.601562-26.605469-14.671875 0-26.605469 11.933594-26.605469 26.605469zm38.207031 0c0 6.394531-5.203124 11.601562-11.601562 11.601562s-11.605469-5.207031-11.605469-11.601562c0-6.398438 5.207031-11.605469 11.605469-11.605469s11.601562 5.207031 11.601562 11.605469zm0 0"/><path d="m58.960938 462.34375c0 14.667969 11.933593 26.601562 26.601562 26.601562s26.601562-11.933593 26.601562-26.601562c0-14.671875-11.933593-26.605469-26.601562-26.605469s-26.601562 11.933594-26.601562 26.605469zm38.203124 0c0 6.394531-5.203124 11.601562-11.601562 11.601562s-11.601562-5.207031-11.601562-11.601562c0-6.398438 5.203124-11.605469 11.601562-11.605469s11.601562 5.207031 11.601562 11.605469zm0 0"/><path d="m410.824219 200.601562c-13.757813-1.121093-28.222657.027344-42.824219 3.40625-13.316406-7.222656-28.511719-11.273437-44.816406-11.796874.300781-2.601563.460937-5.222657.460937-7.847657 0-23.960937-12.511719-45.042969-31.335937-57.097656 0 0-5.675782-19.496094-5.683594-19.519531-.289062-.988282.660156-1.9375 1.644531-1.648438l22.054688 6.425782c1.496093.433593 3.039062.65625 4.585937.65625 4.28125 0 8.339844-1.664063 11.417969-4.679688 3.152344-3.089844 4.890625-7.230469 4.890625-11.65625v-42.992188c0-9.007812-7.316406-16.335937-16.3125-16.335937-1.542969 0-3.085938.222656-4.582031.65625l-22.054688 6.425781c-.992187.285156-1.933593-.667968-1.644531-1.648437 0 0 6.417969-22.042969 6.421875-22.054688 3-10.300781-4.980469-20.894531-15.675781-20.894531 0 0-42.980469 0-42.996094 0-10.710938 0-18.671875 10.613281-15.675781 20.894531 0 0 6.410156 22.015625 6.421875 22.054688.289062.992187-.65625 1.933593-1.648438 1.648437l-22.050781-6.425781c-1.5-.433594-3.039063-.65625-4.585937-.65625-8.992188 0-16.3125 7.328125-16.3125 16.335937v42.996094c0 9.003906 7.320312 16.332032 16.3125 16.332032 1.546874 0 3.085937-.21875 4.585937-.65625l22.050781-6.421876c1-.289062 1.933594.664063 1.648438 1.644532l-5.683594 19.519531c-18.824219 12.054687-31.335938 33.136719-31.335938 57.097656 0 2.652344.164063 5.292969.472657 7.921875-16.269531.511719-31.46875 4.476563-44.84375 11.71875-14.597657-3.375-29.058594-4.523437-42.808594-3.402344-31.128906 2.542969-58.332031 16.617188-76.605469 39.628907-21.238281 26.746093-28.609375 62.847656-20.753906 101.648437 4.949219 24.421875 15.773438 49.265625 32.195312 73.980469-9.738281 4.636719-16.488281 14.578125-16.488281 26.066406v41.21875c0 15.910157 12.945313 28.855469 28.855469 28.855469h323.808594c4.144531 0 7.5-3.359375 7.5-7.5s-3.355469-7.5-7.5-7.5h-323.808594c-7.640625 0-13.855469-6.214844-13.855469-13.855469v-41.21875c0-7.640625 6.214844-13.855469 13.859375-13.855469h415.488282c7.636718 0 13.851562 6.214844 13.851562 13.855469v41.21875c0 7.640625-6.214844 13.855469-13.851562 13.855469h-61.746094c-4.144532 0-7.5 3.359375-7.5 7.5s3.355468 7.5 7.5 7.5h61.746094c15.910156 0 28.851562-12.945312 28.851562-28.855469v-41.21875c0-11.488281-6.746094-21.425781-16.484375-26.066406 16.421875-24.710937 27.25-49.554687 32.195313-73.980469 7.855468-38.800781.488281-74.902344-20.753907-101.648437-18.265625-23.011719-45.472656-37.085938-76.601562-39.628907zm-186.9375-109.519531c-1.550781-.019531-3.101563.179688-4.609375.617188l-22.050782 6.421875c-.835937.242187-1.703124-.398438-1.703124-1.273438 0 0 0-42.980468 0-42.996094 0-.871093.867187-1.519531 1.703124-1.277343 0 0 22.050782 6.421875 22.050782 6.421875 6.402344 1.867187 13.574218-.472656 17.644531-5.898438 3.101563-4.132812 4.050781-9.363281 2.597656-14.34375l-6.421875-22.054687c-.246094-.839844.40625-1.699219 1.277344-1.699219h42.996094c.871094 0 1.519531.855469 1.273437 1.699219l-6.421875 22.054687c-1.453125 4.980469-.503906 10.210938 2.597656 14.347656 4.039063 5.382813 11.1875 7.777344 17.644532 5.894532l22.054687-6.421875c.835938-.246094 1.699219.402343 1.699219 1.277343v42.996094c0 .871094-.859375 1.515625-1.699219 1.273438l-22.054687-6.421875c-6.476563-1.886719-13.59375.5-17.644532 5.898437-3.101562 4.132813-4.050781 9.363282-2.597656 14.34375l2.101563 7.214844c-.175781-.050781-.351563-.089844-.527344-.140625-5.832031-1.605469-11.875-2.421875-17.925781-2.421875-6.035156 0-12.101563.804688-17.917969 2.421875-.179687.050781-.359375.089844-.535156.140625 0 0 2.101562-7.207031 2.101562-7.214844 3.011719-10.335937-4.972656-20.714844-15.632812-20.859375zm-171.886719 321.988281c-17.46875-24.929687-28.8125-49.863281-33.734375-74.167968-6.964844-34.390625-.644531-66.121094 17.796875-89.34375 15.664062-19.726563 39.132812-31.804688 66.082031-34.003906 7.847657-.644532 15.996094-.449219 24.28125.582031-2.6875 2.386719-5.257812 4.9375-7.699219 7.667969-5.046874 5.648437-9.425781 11.917968-13.066406 18.558593-1.394531 2.546875-2.675781 5.152344-3.859375 7.800781-16.199219 2.011719-29.5625 9.160157-38.792969 20.785157-12.023437 15.140625-15.9375 36.851562-11.023437 61.125 5.261719 25.980469 20.207031 53.738281 43.5 80.996093zm63.617188 0c-26.660157-28.464843-43.558594-57.449218-48.929688-83.972656-4.023438-19.863281-1.15625-37.203125 8.066406-48.820312 5.257813-6.621094 12.5-11.253906 21.246094-13.695313-5.363281 19.878907-5.910156 42.410157-1.367188 66.320313 5.035157 26.5 15.988282 53.410156 32.605469 80.167968zm108.054687-165.058593c-29.652344-11.253907-54.523437-7.777344-69.277344 10.066406-12.246093 14.808594-16.335937 38.71875-11.230469 65.601563 2.242188 11.78125 6.183594 24.0625 11.71875 36.5 1.683594 3.785156 6.113282 5.488281 9.898438 3.804687s5.488281-6.117187 3.804688-9.902344c-5.066407-11.382812-8.660157-22.554687-10.683594-33.203125-4.273438-22.480468-1.335938-41.886718 8.050781-53.242187 11.144531-13.476563 32.03125-14.648438 57.714844-3.421875v148.855468h-16.621094c-9.59375-11.167968-18.023437-22.535156-25.039063-33.832031-2.1875-3.515625-6.8125-4.597656-10.332031-2.410156-3.515625 2.183594-4.597656 6.808594-2.410156 10.328125 5.375 8.652344 11.507813 17.324219 18.3125 25.914062h-42.511719c-18.515625-27.808593-30.519531-55.703124-35.699218-82.96875-4.988282-26.234374-3.265626-50.433593 4.738281-70.503906 13.179687-33.050781 46.886719-55.601562 82.820312-52.347656.105469.007812.199219.03125.304688.039062 8.957031.445313 17.816406 2.046876 26.4375 4.480469v36.242188zm49.402344 165.058593h-34.402344s0-203.992187 0-204.003906c0-9.332031 7.863281-17.203125 17.203125-17.203125 9.242188 0 17.199219 7.960938 17.199219 17.203125zm11.011719-219.507812c-2.960938-5.390625-7.402344-9.808594-12.761719-12.742188-4.714844-2.585937-10.074219-3.957031-15.449219-3.957031-5.378906 0-10.730469 1.378907-15.445312 3.953125-6.410157 3.503906-11.601563 9.269532-14.367188 16.039063-.324219-.085938-1.175781-.304688-1.273438-.328125-7.089843-1.847656-14.121093-3.121094-21.023437-3.792969-.441406-2.765625-.664063-5.5625-.664063-8.371094 0-19.9375 11.117188-37.328125 27.480469-46.300781 7.710938-4.226562 16.5-6.46875 25.292969-6.46875 8.8125 0 17.585938 2.253906 25.316406 6.484375 16.347656 8.976563 27.457032 26.355469 27.457032 46.285156 0 2.808594-.222657 5.605469-.667969 8.371094-.929688.089844-1.867188.191406-2.804688.304687-5.007812.601563-9.984375 1.5-14.894531 2.65625-.621094.144532-3.683594.914063-4.597656 1.160157-.046875-.101563-1.0625-2.320313-1.597656-3.292969zm20.621093 219.507812h-16.632812v-148.851562c11.480469-5.003906 22.332031-7.640625 31.609375-7.640625 11.253906 0 20.039062 3.722656 26.105468 11.058594 9.390626 11.355469 12.324219 30.761719 8.054688 53.242187-3.925781 20.65625-15.675781 53.257813-49.136719 92.191406zm61.972657 0h-42.511719c29.5-37.203124 40.480469-68.714843 44.414062-89.390624 5.105469-26.882813 1.011719-50.792969-11.230469-65.601563-8.925781-10.792969-21.953124-16.5-37.667968-16.5-9.769532 0-20.367188 2.160156-31.609375 6.429687v-36.238281c10.167969-2.875 20.875-4.625 31.457031-4.625 18.265625 0 32.503906 4.921875 43.230469 11.167969 15.9375 9.277344 28.050781 24.195312 34.859375 41.246094 8.015625 20.078125 9.746094 44.289062 4.757812 70.542968-5.183594 27.265626-17.1875 55.160157-35.699218 82.96875zm29.449218 0h-11.621094c16.613282-26.757812 27.570313-53.667968 32.605469-80.167968 4.542969-23.910156 3.996094-46.441406-1.371093-66.316406 8.75 2.4375 15.992187 7.070312 21.25 13.691406 9.222656 11.617187 12.089843 28.957031 8.066406 48.820312-5.371094 26.523438-22.269532 55.507813-48.929688 83.972656zm97.351563-74.167968c-4.921875 24.304687-16.265625 49.242187-33.734375 74.167968h-43.484375c23.292969-27.257812 38.238281-55.011718 43.496093-80.996093 4.917969-24.277344 1.003907-45.984375-11.019531-61.125-9.230469-11.625-22.597656-18.769531-38.792969-20.785157-.039062-.085937-.082031-.167968-.117187-.253906-3.410156-7.621094-7.722656-14.847656-12.878906-21.417968-3.496094-4.453126-7.398438-8.597657-11.636719-12.355469 8.285156-1.027344 16.4375-1.226563 24.289062-.582031 26.949219 2.203124 50.417969 14.277343 66.078126 34.003906 18.441406 23.222656 24.761718 54.953125 17.800781 89.34375zm0 0"/></svg>