<svg xmlns="http://www.w3.org/2000/svg" xml:space="preserve" width="1550mm" height="1550mm" style="shape-rendering:geometricPrecision;text-rendering:geometricPrecision;image-rendering:optimizeQuality;fill-rule:evenodd;clip-rule:evenodd" viewBox="0 0 155000 155000"><defs><style>.str0{stroke:#2b2a29;stroke-width:70.56;stroke-miterlimit:22.9256}.fil0{fill:none}.fil1{fill:#b58863}.fil3{fill:#ffc000}.fil4{fill:#fff}</style></defs><g id="Слой_x0020_1"><g id="_2583126303600"><path class="fil0 str0" d="M406.37 412.25h15420v15420.01h-15420zm0 15420.01h15420v15420.01h-15420zm0 15420.02h15420v15420.01h-15420zm0 15420.01h15420V62092.3h-15420zm0 15420.02h15420v15420.01h-15420zm0 15420.01h15420v15420.01h-15420zm0 15420.02h15420v15420.01h-15420zm0 15420.01h15420v15420.01h-15420zm0 15420.02h15420v15420.01h-15420zm0 15420.01h15420v15420.01h-15420z"/><path class="fil0 str0" d="M15826.36 412.25h15420v15420.01h-15420zm0 15420.01h15420v15420.01h-15420zm0 15420.02h15420v15420.01h-15420zm0 15420.01h15420V62092.3h-15420zm0 15420.02h15420v15420.01h-15420zm0 15420.01h15420v15420.01h-15420zm0 15420.02h15420v15420.01h-15420zm0 15420.01h15420v15420.01h-15420zm0 15420.02h15420v15420.01h-15420zm0 15420.01h15420v15420.01h-15420zm15420-138780.13h15420v15420.01h-15420zm0 15420.01h15420v15420.01h-15420zm0 15420.02h15420v15420.01h-15420zm0 15420.01h15420V62092.3h-15420zm0 15420.02h15420v15420.01h-15420zm0 15420.01h15420v15420.01h-15420zm0 15420.02h15420v15420.01h-15420zm0 15420.01h15420v15420.01h-15420zm0 15420.02h15420v15420.01h-15420zm0 15420.01h15420v15420.01h-15420zm15420-138780.13h15420v15420.01h-15420zm0 15420.01h15420v15420.01h-15420zm0 15420.02h15420v15420.01h-15420zm0 15420.01h15420V62092.3h-15420zm0 15420.02h15420v15420.01h-15420zm0 15420.01h15420v15420.01h-15420zm0 15420.02h15420v15420.01h-15420zm0 15420.01h15420v15420.01h-15420zm0 15420.02h15420v15420.01h-15420zm0 15420.01h15420v15420.01h-15420zm15420-138780.13h15420v15420.01h-15420zm0 15420.01h15420v15420.01h-15420zm0 15420.02h15420v15420.01h-15420zm0 15420.01h15420V62092.3h-15420zm0 15420.02h15420v15420.01h-15420zm0 15420.01h15420v15420.01h-15420zm0 15420.02h15420v15420.01h-15420zm0 15420.01h15420v15420.01h-15420zm0 15420.02h15420v15420.01h-15420zm0 15420.01h15420v15420.01h-15420zm15420-138780.13h15420v15420.01h-15420zm0 15420.01h15420v15420.01h-15420zm0 15420.02h15420v15420.01h-15420zm0 15420.01h15420V62092.3h-15420zm0 15420.02h15420v15420.01h-15420zm0 15420.01h15420v15420.01h-15420zm0 15420.02h15420v15420.01h-15420zm0 15420.01h15420v15420.01h-15420zm0 15420.02h15420v15420.01h-15420zm0 15420.01h15420v15420.01h-15420zm15420-138780.13h15420v15420.01h-15420zm0 15420.01h15420v15420.01h-15420zm0 15420.02h15420v15420.01h-15420zm0 15420.01h15420V62092.3h-15420zm0 15420.02h15420v15420.01h-15420zm0 15420.01h15420v15420.01h-15420zm0 15420.02h15420v15420.01h-15420zm0 15420.01h15420v15420.01h-15420zm0 15420.02h15420v15420.01h-15420zm0 15420.01h15420v15420.01h-15420z"/><path class="fil0 str0" d="M108346.35 412.25h15420v15420.01h-15420zm0 15420.01h15420v15420.01h-15420zm0 15420.02h15420v15420.01h-15420zm0 15420.01h15420V62092.3h-15420zm0 15420.02h15420v15420.01h-15420zm0 15420.01h15420v15420.01h-15420zm0 15420.02h15420v15420.01h-15420zm0 15420.01h15420v15420.01h-15420zm0 15420.02h15420v15420.01h-15420zm0 15420.01h15420v15420.01h-15420zm15420-138780.13h15420v15420.01h-15420zm0 15420.01h15420v15420.01h-15420zm0 15420.02h15420v15420.01h-15420zm0 15420.01h15420V62092.3h-15420zm0 15420.02h15420v15420.01h-15420zm0 15420.01h15420v15420.01h-15420zm0 15420.02h15420v15420.01h-15420zm0 15420.01h15420v15420.01h-15420zm0 15420.02h15420v15420.01h-15420zm0 15420.01h15420v15420.01h-15420zm15420-138780.13h15420v15420.01h-15420zm0 15420.01h15420v15420.01h-15420zm0 15420.02h15420v15420.01h-15420zm0 15420.01h15420V62092.3h-15420zm0 15420.02h15420v15420.01h-15420zm0 15420.01h15420v15420.01h-15420zm0 15420.02h15420v15420.01h-15420zm0 15420.01h15420v15420.01h-15420zm0 15420.02h15420v15420.01h-15420zm0 15420.01h15420v15420.01h-15420z"/><path class="fil1 str0" d="M15826.38 154612.44v-15420.02H406.4v15420.02zm15420.02-15420.02v15420.02h15419.98v-15420.02zm30840 0v15420.02h15419.98v-15420.02zm30839.99 0v15420.02h15419.99v-15420.02zm30840 0v15420.02h15419.98v-15420.02zm-92519.99 0v-15420.01H15826.38v15420.01zm15419.98-15420.01v15420.01H62086.4v-15420.01zm30840 0v15420.01h15420.01v-15420.01zm30840 0v15420.01h15420.01v-15420.01zm30839.99 0v15420.01h15420.02v-15420.01zm-123359.99 0v-15420.02H406.4v15420.02zm15420.02-15420.02v15420.02h15419.98v-15420.02zm30840 0v15420.02h15419.98v-15420.02zm30839.99 0v15420.02h15419.99v-15420.02zm30840 0v15420.02h15419.98v-15420.02zm-92519.99 0V92932.38H15826.38v15420.01zm15419.98-15420.01v15420.01H62086.4V92932.38zm30840 0v15420.01h15420.01V92932.38zm30840 0v15420.01h15420.01V92932.38zm30839.99 0v15420.01h15420.02V92932.38zm-123359.99 0V77512.36H406.4v15420.02zM31246.4 77512.36v15420.02h15419.98V77512.36zm30840 0v15420.02h15419.98V77512.36zm30839.99 0v15420.02h15419.99V77512.36zm30840 0v15420.02h15419.98V77512.36zm-92519.99 0V62092.34H15826.38v15420.02zm15419.98-15420.02v15420.02H62086.4V62092.34zm30840 0v15420.02h15420.01V62092.34zm30840 0v15420.02h15420.01V62092.34zm30839.99 0v15420.02h15420.02V62092.34zm-123359.99 0V46672.33H406.4v15420.01z"/><path class="fil1 str0" d="M31246.4 46672.33v15420.01h15419.98V46672.33zm30840 0v15420.01h15419.98V46672.33zm30839.99 0v15420.01h15419.99V46672.33zm30840 0v15420.01h15419.98V46672.33zm-92519.99 0V31252.31H15826.38v15420.02zm15419.98-15420.02v15420.02H62086.4V31252.31zm30840 0v15420.02h15420.01V31252.31zm30840 0v15420.02h15420.01V31252.31zm30839.99 0v15420.02h15420.02V31252.31zm-123359.99 0V15832.3H406.4v15420.01zM31246.4 15832.3v15420.01h15419.98V15832.3zm30840 0v15420.01h15419.98V15832.3zm30839.99 0v15420.01h15419.99V15832.3zm30840 0v15420.01h15419.98V15832.3zm-92519.99 0V412.28H15826.38V15832.3zM46666.38 412.28V15832.3H62086.4V412.28zm30840 0V15832.3h15420.01V412.28zm30840 0V15832.3h15420.01V412.28zm30839.99 0V15832.3h15420.02V412.28z"/><path class="str0" d="M31246.4 154612.44v-15420.02H15826.38v15420.02zm15419.98-15420.02v15420.02H62086.4v-15420.02zm30840 0v15420.02h15420.01v-15420.02zm30840 0v15420.02h15420.01v-15420.02zm30839.99 0v15420.02h15420.02v-15420.02zm-15419.98 0h15419.98v-15420.01h-15419.98zm-15420.01 0v-15420.01H92926.39v15420.01zm-30840 0v-15420.01H62086.4v15420.01zm-30840 0v-15420.01H31246.4v15420.01zm-30840 0v-15420.01H406.4v15420.01zm0-15420.01H31246.4v-15420.02H15826.38zm30840-15420.02v15420.02H62086.4v-15420.02zm30840 0v15420.02h15420.01v-15420.02zm30840 0v15420.02h15420.01v-15420.02zm30839.99 0v15420.02h15420.02v-15420.02zm-15419.98 0h15419.98V92932.38h-15419.98zm-15420.01 0V92932.38H92926.39v15420.01zm-30840 0V92932.38H62086.4v15420.01zm-30840 0V92932.38H31246.4v15420.01zm-30840 0V92932.38H406.4v15420.01zm0-15420.01H31246.4V77512.36H15826.38zm30840-15420.02v15420.02H62086.4V77512.36zm30840 0v15420.02h15420.01V77512.36zm30840 0v15420.02h15420.01V77512.36zm30839.99 0v15420.02h15420.02V77512.36zm-15419.98 0h15419.98V62092.34h-15419.98zm-15420.01 0V62092.34H92926.39v15420.02zm-30840 0V62092.34H62086.4v15420.02zm-30840 0V62092.34H31246.4v15420.02zm-30840 0V62092.34H406.4v15420.02zm0-15420.02H31246.4V46672.33H15826.38zm30840-15420.01v15420.01H62086.4V46672.33zm30840 0v15420.01h15420.01V46672.33zm30840 0v15420.01h15420.01V46672.33zm30839.99 0v15420.01h15420.02V46672.33zm-15419.98 0h15419.98V31252.31h-15419.98zm-15420.01 0V31252.31H92926.39v15420.02zm-30840 0V31252.31H62086.4v15420.02zm-30840 0V31252.31H31246.4v15420.02zm-30840 0V31252.31H406.4v15420.02zm0-15420.02H31246.4V15832.3H15826.38zm30840-15420.01v15420.01H62086.4V15832.3zm30840 0v15420.01h15420.01V15832.3zm30840 0v15420.01h15420.01V15832.3zm30839.99 0v15420.01h15420.02V15832.3zm-15419.98 0h15419.98V412.28h-15419.98zm-15420.01 0V412.28H92926.39V15832.3zm-30840 0V412.28H62086.4V15832.3zm-30840 0V412.28H31246.4V15832.3zm-30840 0V412.28H406.4V15832.3z" style="fill:#f0d9b5"/><path class="fil3 str0" d="M15826.38 139192.42H406.4v15420.02h15419.98zm15420.02 0v15420.02h15419.98v-15420.02zm30840 0v15420.02h15419.98v-15420.02zm30839.99 0v15420.02h15419.99v-15420.02zm30840 0v15420.02h15419.98v-15420.02zm15419.98-15420.01v15420.01h15420.02v-15420.01zm-15419.98 15420.01v-15420.01h-15420.01v15420.01zm-30840 0v-15420.01H77506.38v15420.01zm-30839.99 0v-15420.01H46666.38v15420.01zm-30840 0v-15420.01H15826.38v15420.01zm-15420.02-15420.01v-15420.02H406.4v15420.02zm15420.02-15420.02v15420.02h15419.98v-15420.02zm30840 0v15420.02h15419.98v-15420.02zm30839.99 0v15420.02h15419.99v-15420.02zm30840 0v15420.02h15419.98v-15420.02zm15419.98 0h15420.02V92932.38h-15420.02zm-15419.98 0V92932.38h-15420.01v15420.01zm-30840 0V92932.38H77506.38v15420.01zm-30839.99 0V92932.38H46666.38v15420.01zm-30840 0V92932.38H15826.38v15420.01zM15826.38 92932.38V77512.36H406.4v15420.02zM31246.4 77512.36v15420.02h15419.98V77512.36zm30840 0v15420.02h15419.98V77512.36zm30839.99 0v15420.02h15419.99V77512.36zm30840 0v15420.02h15419.98V77512.36zm15419.98-15420.02v15420.02h15420.02V62092.34zm-15419.98 15420.02V62092.34h-15420.01v15420.02zm-30840 0V62092.34H77506.38v15420.02zm-30839.99 0V62092.34H46666.38v15420.02zm-30840 0V62092.34H15826.38v15420.02zM15826.38 62092.34V46672.33H406.4v15420.01z"/><path class="fil3 str0" d="M31246.4 46672.33v15420.01h15419.98V46672.33zm30840 0v15420.01h15419.98V46672.33zm30839.99 0v15420.01h15419.99V46672.33zm30840 0v15420.01h15419.98V46672.33zm15419.98-15420.02v15420.02h15420.02V31252.31zm-15419.98 15420.02V31252.31h-15420.01v15420.02zm-30840 0V31252.31H77506.38v15420.02zm-30839.99 0V31252.31H46666.38v15420.02zm-30840 0V31252.31H15826.38v15420.02zM15826.38 31252.31V15832.3H406.4v15420.01zM31246.4 15832.3v15420.01h15419.98V15832.3zm30840 0v15420.01h15419.98V15832.3zm30839.99 0v15420.01h15419.99V15832.3zm30840 0v15420.01h15419.98V15832.3zM139186.37 412.28V15832.3h15420.02V412.28zM123766.39 15832.3V412.28h-15420.01V15832.3zm-30840 0V412.28H77506.38V15832.3zm-30839.99 0V412.28H46666.38V15832.3zm-30840 0V412.28H15826.38V15832.3z"/><path class="fil4 str0" d="M15826.38 15832.3V412.28H406.4V15832.3zM31246.4 412.28V15832.3h15419.98V412.28zm30840 0V15832.3h15419.98V412.28zm30839.99 0V15832.3h15419.99V412.28zm30840 0V15832.3h15419.98V412.28zm15419.98 15420.02v15420.01h15420.02V15832.3zm-15419.98 15420.01V15832.3h-15420.01v15420.01zm-30840 0V15832.3H77506.38v15420.01zm-30839.99 0V15832.3H46666.38v15420.01zm-30840 0V15832.3H15826.38v15420.01zM15826.38 46672.33V31252.31H406.4v15420.02zM31246.4 31252.31v15420.02h15419.98V31252.31zm30840 0v15420.02h15419.98V31252.31zm30839.99 0v15420.02h15419.99V31252.31zm30840 0v15420.02h15419.98V31252.31zm15419.98 15420.02v15420.01h15420.02V46672.33zm-15419.98 15420.01V46672.33h-15420.01v15420.01zm-30840 0V46672.33H77506.38v15420.01zm-30839.99 0V46672.33H46666.38v15420.01zm-30840 0V46672.33H15826.38v15420.01zM15826.38 77512.36V62092.34H406.4v15420.02z"/><path class="fil4 str0" d="M31246.4 62092.34v15420.02h15419.98V62092.34zm30840 0v15420.02h15419.98V62092.34zm30839.99 0v15420.02h15419.99V62092.34zm30840 0v15420.02h15419.98V62092.34zm15419.98 15420.02v15420.02h15420.02V77512.36zm-15419.98 15420.02V77512.36h-15420.01v15420.02zm-30840 0V77512.36H77506.38v15420.02zm-30839.99 0V77512.36H46666.38v15420.02zm-30840 0V77512.36H15826.38v15420.02zm-15420.02 15420.01V92932.38H406.4v15420.01zM31246.4 92932.38v15420.01h15419.98V92932.38zm30840 0v15420.01h15419.98V92932.38zm30839.99 0v15420.01h15419.99V92932.38zm30840 0v15420.01h15419.98V92932.38zm30840 15420.01h-15420.02v15420.02h15420.02zm-30840 15420.02v-15420.02h-15420.01v15420.02zm-30840 0v-15420.02H77506.38v15420.02zm-30839.99 0v-15420.02H46666.38v15420.02zm-30840 0v-15420.02H15826.38v15420.02zm-15420.02 15420.01v-15420.01H406.4v15420.01zm15420.02-15420.01v15420.01h15419.98v-15420.01zm30840 0v15420.01h15419.98v-15420.01zm30839.99 0v15420.01h15419.99v-15420.01zm30840 0v15420.01h15419.98v-15420.01zm15419.98 15420.01v15420.02h15420.02v-15420.02zm-15419.98 15420.02v-15420.02h-15420.01v15420.02zm-30840 0v-15420.02H77506.38v15420.02zm-30839.99 0v-15420.02H46666.38v15420.02zm-30840 0v-15420.02H15826.38v15420.02z"/></g><path class="str0" d="M15826.38 15832.3h15420.01V412.28H15826.38zm30840-15420.02V15832.3h15420.01V412.28zm30840 0V15832.3H92926.4V412.28zm30840 0V15832.3h15420.02V412.28zm30839.99 0V15832.3h15420.02V412.28zm0 15420.02H123766.4v15420.01h15419.97zM123766.4 31252.31h-15420.02v15420.02h15420.02zm-15420.02 15420.02H92926.4v15420.01h15419.98zM92926.4 62092.34H77506.38v15420.02H92926.4zM77506.38 92932.38V77512.36H62086.39v15420.02zm-15419.99 15420.01V92932.38H46666.38v15420.01zm-15420.01 15420.02v-15420.02H31246.39v15420.02zm-15419.99 15420.01v-15420.01H15826.38v15420.01zm-15420.01 15420.02v-15420.02H406.39v15420.02zM406.39 123772.41h15419.99v-15420.02H406.39zm15419.99-15420.02h15420.01V92932.38H15826.38zm15420.01-15420.01h15419.99V77512.36H31246.39zm15419.99-15420.02h15420.01V62092.34H46666.38zm15420.01-15420.02h15419.99V46672.33H62086.39zm15419.99-15420.01H92926.4V31252.31H77506.38zM92926.4 15832.3v15420.01h15419.98V15832.3zM77506.38 31252.31V15832.3H62086.39v15420.01zM62086.39 46672.33V31252.31H46666.38v15420.02zM46666.38 62092.34V46672.33H31246.39v15420.01zM31246.39 77512.36V62092.34H15826.38v15420.02zM15826.38 92932.38V77512.36H406.39v15420.02zM406.39 62092.34h15419.99V46672.33H406.39zm15419.99-15420.01h15420.01V31252.31H15826.38zm15420.01-15420.02h15419.99V15832.3H31246.39zm-15420.01 0V15832.3H406.39v15420.01zm123359.99 0v15420.02h15420.02V31252.31zm0 15420.02H123766.4v15420.01h15419.97zM123766.4 62092.34h-15420.02v15420.02h15420.02zm-15420.02 15420.02H92926.4v15420.02h15419.98zM92926.4 108352.39V92932.38H77506.38v15420.01zm-15420.02 15420.02v-15420.02H62086.39v15420.02zm-15419.99 15420.01v-15420.01H46666.38v15420.01zm-15420.01 15420.02v-15420.02H31246.39v15420.02zm15420.01-15420.02v15420.02h15419.99v-15420.02zm15419.99-15420.01v15420.01H92926.4v-15420.01zm15420.02-15420.02v15420.02h15419.98v-15420.02zm15419.98-15420.01v15420.01h15420.02V92932.38zm15420.02-15420.02v15420.02h15419.97V77512.36zm15419.97-15420.02v15420.02h15420.02V62092.34zm15420.02 30840.04h-15420.02v15420.01h15420.02zm-15420.02 15420.01H123766.4v15420.02h15419.97zm-15419.97 15420.02h-15420.02v15420.01h15420.02zm-15420.02 15420.01H92926.4v15420.02h15419.98zm15420.02 0v15420.02h15419.97v-15420.02zm15419.97-15420.01v15420.01h15420.02v-15420.01z" style="fill:#79aac8"/><path class="str0" d="M15826.38 15832.3V412.28H406.39V15832.3zm15420.01 0H15826.38v15420.01h15420.01zm15419.99 15420.01H31246.39v15420.02h15419.99zm0 15420.02v15420.01h15420.01V46672.33zm15420.01 15420.01v15420.02h15419.99V62092.34zm15419.99 15420.02v15420.02H92926.4V77512.36zM92926.4 92932.38v15420.01h15419.98V92932.38zm15419.98 15420.01v15420.02h15420.02v-15420.02zm15420.02 15420.02v15420.01h15419.97v-15420.01zm15419.97 15420.01v15420.02h15420.02v-15420.02zm-15419.97 15420.02v-15420.02h-15420.02v15420.02zm-15420.02-15420.02v-15420.01H92926.4v15420.01zM92926.4 123772.41v-15420.02H77506.38v15420.02zm-15420.02-15420.02V92932.38H62086.39v15420.01zM62086.39 92932.38V77512.36H46666.38v15420.02zM46666.38 77512.36V62092.34H31246.39v15420.02zM31246.39 62092.34V46672.33H15826.38v15420.01zM15826.38 46672.33V31252.31H406.39v15420.02zm0 15420.01H406.39v15420.02h15419.99zm15420.01 15420.02H15826.38v15420.02h15420.01zm15419.99 15420.02H31246.39v15420.01h15419.99zm15420.01 15420.01H46666.38v15420.02h15420.01zm15419.99 15420.02H62086.39v15420.01h15419.99zm0 15420.01v15420.02H92926.4v-15420.02zm-15419.99 15420.02v-15420.02H46666.38v15420.02zm-15420.01-15420.02v-15420.01H31246.39v15420.01zm-15419.99-15420.01v-15420.02H15826.38v15420.02zm-15420.01-15420.02V92932.38H406.39v15420.01zm0 15420.02H406.39v15420.01h15419.99zm15420.01 15420.01H15826.38v15420.02h15420.01zm107939.98-30840.03v15420.02h15420.02v-15420.02zm-15419.97 0h15419.97V92932.38H123766.4zm-15420.02-15420.01h15420.02V77512.36h-15420.02zM92926.4 77512.36h15419.98V62092.34H92926.4zM77506.38 62092.34H92926.4V46672.33H77506.38zM62086.39 46672.33h15419.99V31252.31H62086.39zM46666.38 31252.31h15420.01V15832.3H46666.38zM31246.39 15832.3h15419.99V412.28H31246.39zm30840-15420.02V15832.3h15419.99V412.28zM77506.38 15832.3v15420.01H92926.4V15832.3zM92926.4 31252.31v15420.02h15419.98V31252.31zm15419.98 15420.02v15420.01h15420.02V46672.33zm15420.02 15420.01v15420.02h15419.97V62092.34zm15419.97 15420.02v15420.02h15420.02V77512.36zm0-15420.02h15420.02V46672.33h-15420.02zM123766.4 46672.33h15419.97V31252.31H123766.4zm-15420.02-15420.02h15420.02V15832.3h-15420.02zM92926.4 15832.3h15419.98V412.28H92926.4zm30840-15420.02V15832.3h15419.97V412.28zm30839.99 15420.02h-15420.02v15420.01h15420.02z" style="fill:#fcfcc3"/><path class="fil0" style="stroke:#2b2a29;stroke-width:352.78;stroke-miterlimit:22.9256" d="M418.25 318.32h154204.17v154204.34H418.25z"/></g></svg>