<svg xmlns="http://www.w3.org/2000/svg" xml:space="preserve" width="1706.665" height="1706.665" style="shape-rendering:geometricPrecision;text-rendering:geometricPrecision;image-rendering:optimizeQuality;fill-rule:evenodd;clip-rule:evenodd" viewBox="0 0 45155.5 45155.5"><defs><style>.str0,.str1{stroke:#2b2b2a;stroke-width:70.56;stroke-miterlimit:22.9256}.str1{stroke:#000}.fil0{fill:none}.fil2{fill:#b58863}.fil1{fill:#f0d9b5}</style></defs><g id="Слой_x0020_1"><g id="_2183930927776"><path class="fil0 str0" d="M-3.83 7.47h4515.54v4514.99H-3.83zm0 4514.99h4515.54v4514.99H-3.83zm0 4514.99h4515.54v4514.99H-3.83zm0 4514.99h4515.54v4514.99H-3.83zm0 4514.99h4515.54v4514.99H-3.83zm0 4514.99h4515.54v4514.99H-3.83zm0 4514.99h4515.54v4514.99H-3.83zm0 4514.99h4515.54v4514.99H-3.83zm0 4514.99h4515.54v4514.99H-3.83zm0 4514.99h4515.54v4514.99H-3.83zM4511.72 7.47h4515.54v4514.99H4511.72zm0 4514.99h4515.54v4514.99H4511.72zm0 4514.99h4515.54v4514.99H4511.72zm0 4514.99h4515.54v4514.99H4511.72zm0 4514.99h4515.54v4514.99H4511.72zm0 4514.99h4515.54v4514.99H4511.72zm0 4514.99h4515.54v4514.99H4511.72zm0 4514.99h4515.54v4514.99H4511.72zm0 4514.99h4515.54v4514.99H4511.72zm0 4514.99h4515.54v4514.99H4511.72zM9027.26 7.47h4515.54v4514.99H9027.26zm0 4514.99h4515.54v4514.99H9027.26zm0 4514.99h4515.54v4514.99H9027.26zm0 4514.99h4515.54v4514.99H9027.26zm0 4514.99h4515.54v4514.99H9027.26zm0 4514.99h4515.54v4514.99H9027.26zm0 4514.99h4515.54v4514.99H9027.26zm0 4514.99h4515.54v4514.99H9027.26zm0 4514.99h4515.54v4514.99H9027.26zm0 4514.99h4515.54v4514.99H9027.26zM13542.8 7.47h4515.54v4514.99H13542.8zm0 4514.99h4515.54v4514.99H13542.8zm0 4514.99h4515.54v4514.99H13542.8zm0 4514.99h4515.54v4514.99H13542.8zm0 4514.99h4515.54v4514.99H13542.8zm0 4514.99h4515.54v4514.99H13542.8zm0 4514.99h4515.54v4514.99H13542.8zm0 4514.99h4515.54v4514.99H13542.8zm0 4514.99h4515.54v4514.99H13542.8zm0 4514.99h4515.54v4514.99H13542.8zM18058.35 7.47h4515.54v4514.99h-4515.54zm0 4514.99h4515.54v4514.99h-4515.54zm0 4514.99h4515.54v4514.99h-4515.54zm0 4514.99h4515.54v4514.99h-4515.54zm0 4514.99h4515.54v4514.99h-4515.54zm0 4514.99h4515.54v4514.99h-4515.54zm0 4514.99h4515.54v4514.99h-4515.54zm0 4514.99h4515.54v4514.99h-4515.54zm0 4514.99h4515.54v4514.99h-4515.54zm0 4514.99h4515.54v4514.99h-4515.54zM22573.89 7.47h4515.54v4514.99h-4515.54zm0 4514.99h4515.54v4514.99h-4515.54zm0 4514.99h4515.54v4514.99h-4515.54zm0 4514.99h4515.54v4514.99h-4515.54zm0 4514.99h4515.54v4514.99h-4515.54zm0 4514.99h4515.54v4514.99h-4515.54zm0 4514.99h4515.54v4514.99h-4515.54zm0 4514.99h4515.54v4514.99h-4515.54zm0 4514.99h4515.54v4514.99h-4515.54zm0 4514.99h4515.54v4514.99h-4515.54zM27089.44 7.47h4515.54v4514.99h-4515.54zm0 4514.99h4515.54v4514.99h-4515.54zm0 4514.99h4515.54v4514.99h-4515.54zm0 4514.99h4515.54v4514.99h-4515.54zm0 4514.99h4515.54v4514.99h-4515.54zm0 4514.99h4515.54v4514.99h-4515.54zm0 4514.99h4515.54v4514.99h-4515.54zm0 4514.99h4515.54v4514.99h-4515.54zm0 4514.99h4515.54v4514.99h-4515.54zm0 4514.99h4515.54v4514.99h-4515.54z"/><path class="fil0 str0" d="M31604.98 7.47h4515.54v4514.99h-4515.54zm0 4514.99h4515.54v4514.99h-4515.54zm0 4514.99h4515.54v4514.99h-4515.54zm0 4514.99h4515.54v4514.99h-4515.54zm0 4514.99h4515.54v4514.99h-4515.54zm0 4514.99h4515.54v4514.99h-4515.54zm0 4514.99h4515.54v4514.99h-4515.54zm0 4514.99h4515.54v4514.99h-4515.54zm0 4514.99h4515.54v4514.99h-4515.54zm0 4514.99h4515.54v4514.99h-4515.54zM36120.53 7.47h4515.54v4514.99h-4515.54zm0 4514.99h4515.54v4514.99h-4515.54zm0 4514.99h4515.54v4514.99h-4515.54zm0 4514.99h4515.54v4514.99h-4515.54zm0 4514.99h4515.54v4514.99h-4515.54zm0 4514.99h4515.54v4514.99h-4515.54zm0 4514.99h4515.54v4514.99h-4515.54zm0 4514.99h4515.54v4514.99h-4515.54zm0 4514.99h4515.54v4514.99h-4515.54zm0 4514.99h4515.54v4514.99h-4515.54zM40636.07 7.47h4515.54v4514.99h-4515.54zm0 4514.99h4515.54v4514.99h-4515.54zm0 4514.99h4515.54v4514.99h-4515.54zm0 4514.99h4515.54v4514.99h-4515.54zm0 4514.99h4515.54v4514.99h-4515.54zm0 4514.99h4515.54v4514.99h-4515.54zm0 4514.99h4515.54v4514.99h-4515.54zm0 4514.99h4515.54v4514.99h-4515.54zm0 4514.99h4515.54v4514.99h-4515.54zm0 4514.99h4515.54v4514.99h-4515.54z"/></g><path class="fil0 str1" d="M-3.82 4522.47h4515.54V7.48H-3.82z"/><path class="fil1 str1" d="M-3.82 4522.47h4515.54V7.48H-3.82z"/><path class="fil2 str1" d="M4511.72 7.48v4514.99h4515.55V7.48z"/><path class="fil1 str1" d="M4511.72 9037.46H-3.82v4514.99h4515.54z"/><path class="str1" style="fill:#7688a1" d="M4511.72 18067.44H-3.82v4514.99h4515.54z"/><path class="fil1 str1" d="M9027.27 40642.39H4511.72v4514.99h4515.55zm4515.54 0v4514.99h4515.55v-4514.99zm9031.09 0v4514.99h4515.55v-4514.99zm9031.09 0v4514.99h4515.55v-4514.99zm9031.09 0v4514.99h4515.55v-4514.99zm-36124.36 0V36127.4H-3.82v4514.99zm4515.55-4514.99v4514.99h4515.54V36127.4zm9031.09 0v4514.99h4515.54V36127.4zm9031.09 0v4514.99h4515.54V36127.4zm9031.09 0v4514.99h4515.54V36127.4zm-27093.27 0v-4514.99H4511.72v4514.99zm4515.54-4514.99v4514.99h4515.55v-4514.99zm9031.09 0v4514.99h4515.55v-4514.99zm9031.09 0v4514.99h4515.55v-4514.99zm9031.09 0v4514.99h4515.55v-4514.99zm-36124.36 0v-4514.99H-3.82v4514.99zm4515.55-4514.99v4514.99h4515.54v-4514.99zm9031.09 0v4514.99h4515.54v-4514.99zm9031.09 0v4514.99h4515.54v-4514.99zm9031.09 0v4514.99h4515.54v-4514.99zm-27093.27 0v-4514.99H4511.72v4514.99zm4515.54-4514.99v4514.99h4515.55v-4514.99zm9031.09 0v4514.99h4515.55v-4514.99zm9031.09 0v4514.99h4515.55v-4514.99zm9031.09 0v4514.99h4515.55v-4514.99zm-36124.36 0v-4514.99H-3.82v4514.99zm4515.55-4514.99v4514.99h4515.54v-4514.99zm9031.09 0v4514.99h4515.54v-4514.99zm9031.09 0v4514.99h4515.54v-4514.99zm9031.09 0v4514.99h4515.54v-4514.99zm-27093.27 0v-4514.99H4511.72v4514.99zm4515.54-4514.99v4514.99h4515.55v-4514.99zm9031.09 0v4514.99h4515.55v-4514.99zm9031.09 0v4514.99h4515.55v-4514.99zm9031.09 0v4514.99h4515.55v-4514.99zm-27093.27 0V9037.46H9027.27v4514.99zm4515.55-4514.99v4514.99h4515.54V9037.46zm9031.09 0v4514.99h4515.54V9037.46zm9031.09 0v4514.99h4515.54V9037.46zm-27093.27 0V4522.47H4511.72v4514.99zm4515.54-4514.99v4514.99h4515.55V4522.47zm9031.09 0v4514.99h4515.55V4522.47zm9031.09 0v4514.99h4515.55V4522.47zm9031.09 0v4514.99h4515.55V4522.47zm-27093.27 0V7.48H9027.27v4514.99zM18058.36 7.48v4514.99h4515.54V7.48zm9031.09 0v4514.99h4515.54V7.48zm9031.09 0v4514.99h4515.54V7.48z"/><path class="fil2 str1" d="M18058.36 4522.47V7.48h-4515.55v4514.99zM22573.9 7.48v4514.99h4515.55V7.48zm9031.09 0v4514.99h4515.55V7.48zm9031.09 0v4514.99h4515.55V7.48zm0 4514.99h-4515.54v4514.99h4515.54zm-9031.09 4514.99V4522.47h-4515.54v4514.99zm-9031.09 0V4522.47h-4515.54v4514.99zm-9031.09 0V4522.47H9027.27v4514.99zm-9031.09 0V4522.47H-3.82v4514.99zm4515.55 0H4511.72v4514.99h4515.55zm4515.54 0v4514.99h4515.55V9037.46zm9031.09 0v4514.99h4515.55V9037.46zm9031.09 0v4514.99h4515.55V9037.46zm9031.09 0v4514.99h4515.55V9037.46zm0 4514.99h-4515.54v4514.99h4515.54zm-9031.09 4514.99v-4514.99h-4515.54v4514.99zm-9031.09 0v-4514.99h-4515.54v4514.99zm-9031.09 0v-4514.99H9027.27v4514.99zm-9031.09 0v-4514.99H-3.82v4514.99zm4515.55 0H4511.72v4514.99h4515.55zm4515.54 0v4514.99h4515.55v-4514.99zm9031.09 0v4514.99h4515.55v-4514.99zm9031.09 0v4514.99h4515.55v-4514.99zm9031.09 0v4514.99h4515.55v-4514.99zm0 4514.99h-4515.54v4514.99h4515.54zm-9031.09 4514.99v-4514.99h-4515.54v4514.99zm-9031.09 0v-4514.99h-4515.54v4514.99zm-9031.09 0v-4514.99H9027.27v4514.99zm-9031.09 0v-4514.99H-3.82v4514.99zm4515.55 0H4511.72v4514.99h4515.55zm4515.54 0v4514.99h4515.55v-4514.99zm9031.09 0v4514.99h4515.55v-4514.99zm9031.09 0v4514.99h4515.55v-4514.99zm9031.09 0v4514.99h4515.55v-4514.99zm0 4514.99h-4515.54v4514.99h4515.54zm-9031.09 4514.99v-4514.99h-4515.54v4514.99zm-9031.09 0v-4514.99h-4515.54v4514.99zm-9031.09 0v-4514.99H9027.27v4514.99zm-9031.09 0v-4514.99H-3.82v4514.99zm4515.55 0H4511.72v4514.99h4515.55zm4515.54 0v4514.99h4515.55V36127.4zm9031.09 0v4514.99h4515.55V36127.4zm9031.09 0v4514.99h4515.55V36127.4zm9031.09 0v4514.99h4515.55V36127.4zm0 4514.99h-4515.54v4514.99h4515.54zm-9031.09 4514.99v-4514.99h-4515.54v4514.99zm-9031.09 0v-4514.99h-4515.54v4514.99zm-9031.09 0v-4514.99H9027.27v4514.99zm-9031.09 0v-4514.99H-3.82v4514.99z"/></g></svg>