<svg xmlns="http://www.w3.org/2000/svg" xml:space="preserve" width="452mm" height="452mm" style="shape-rendering:geometricPrecision;text-rendering:geometricPrecision;image-rendering:optimizeQuality;fill-rule:evenodd;clip-rule:evenodd" viewBox="0 0 45200 45200"><defs><style>.str0{stroke:#2b2a29;stroke-width:70.56;stroke-miterlimit:22.9256}.fil0{fill:none}.fil6{fill:#8a372a}.fil1{fill:#b58863}.fil3{fill:#cf996c}.fil2{fill:#f0d9b5}.fil5{fill:#fff}</style></defs><g id="Слой_x0020_1"><g id="_2582918154160"><path class="fil0 str0" d="M28.65 34.6h4515.54v4515.55H28.65z"/><path class="fil0 str0" d="M28.65 4550.15h4515.54V9065.7H28.65zm0 4515.55h4515.54v4515.55H28.65zm0 4515.55h4515.54v4515.55H28.65zm0 4515.55h4515.54v4515.55H28.65zm0 4515.55h4515.54v4515.55H28.65zm0 4515.55h4515.54v4515.55H28.65zm0 4515.55h4515.54V36159H28.65zm0 4515.55h4515.54v4515.55H28.65zm0 4515.55h4515.54v4515.55H28.65zM4544.2 34.6h4515.54v4515.55H4544.2z"/><path class="fil0 str0" d="M4544.2 4550.15h4515.54V9065.7H4544.2zm0 4515.55h4515.54v4515.55H4544.2zm0 4515.55h4515.54v4515.55H4544.2zm0 4515.55h4515.54v4515.55H4544.2zm0 4515.55h4515.54v4515.55H4544.2zm0 4515.55h4515.54v4515.55H4544.2zm0 4515.55h4515.54V36159H4544.2zm0 4515.55h4515.54v4515.55H4544.2zm0 4515.55h4515.54v4515.55H4544.2zM9059.74 34.6h4515.54v4515.55H9059.74z"/><path class="fil0 str0" d="M9059.74 4550.15h4515.54V9065.7H9059.74zm0 4515.55h4515.54v4515.55H9059.74zm0 4515.55h4515.54v4515.55H9059.74zm0 4515.55h4515.54v4515.55H9059.74zm0 4515.55h4515.54v4515.55H9059.74zm0 4515.55h4515.54v4515.55H9059.74zm0 4515.55h4515.54V36159H9059.74zm0 4515.55h4515.54v4515.55H9059.74zm0 4515.55h4515.54v4515.55H9059.74zM13575.28 34.6h4515.54v4515.55h-4515.54z"/><path class="fil0 str0" d="M13575.28 4550.15h4515.54V9065.7h-4515.54zm0 4515.55h4515.54v4515.55h-4515.54zm0 4515.55h4515.54v4515.55h-4515.54zm0 4515.55h4515.54v4515.55h-4515.54zm0 4515.55h4515.54v4515.55h-4515.54zm0 4515.55h4515.54v4515.55h-4515.54zm0 4515.55h4515.54V36159h-4515.54zm0 4515.55h4515.54v4515.55h-4515.54zm0 4515.55h4515.54v4515.55h-4515.54zM18090.83 34.6h4515.54v4515.55h-4515.54z"/><path class="fil0 str0" d="M18090.83 4550.15h4515.54V9065.7h-4515.54zm0 4515.55h4515.54v4515.55h-4515.54zm0 4515.55h4515.54v4515.55h-4515.54zm0 4515.55h4515.54v4515.55h-4515.54zm0 4515.55h4515.54v4515.55h-4515.54zm0 4515.55h4515.54v4515.55h-4515.54zm0 4515.55h4515.54V36159h-4515.54zm0 4515.55h4515.54v4515.55h-4515.54zm0 4515.55h4515.54v4515.55h-4515.54z"/><path class="fil0 str0" d="M22606.37 34.6h4515.54v4515.55h-4515.54z"/><path class="fil0 str0" d="M22606.37 4550.15h4515.54V9065.7h-4515.54zm0 4515.55h4515.54v4515.55h-4515.54zm0 4515.55h4515.54v4515.55h-4515.54zm0 4515.55h4515.54v4515.55h-4515.54zm0 4515.55h4515.54v4515.55h-4515.54zm0 4515.55h4515.54v4515.55h-4515.54zm0 4515.55h4515.54V36159h-4515.54zm0 4515.55h4515.54v4515.55h-4515.54zm0 4515.55h4515.54v4515.55h-4515.54zM27121.92 34.6h4515.54v4515.55h-4515.54z"/><path class="fil0 str0" d="M27121.92 4550.15h4515.54V9065.7h-4515.54zm0 4515.55h4515.54v4515.55h-4515.54zm0 4515.55h4515.54v4515.55h-4515.54zm0 4515.55h4515.54v4515.55h-4515.54zm0 4515.55h4515.54v4515.55h-4515.54zm0 4515.55h4515.54v4515.55h-4515.54zm0 4515.55h4515.54V36159h-4515.54zm0 4515.55h4515.54v4515.55h-4515.54zm0 4515.55h4515.54v4515.55h-4515.54zM31637.46 34.6H36153v4515.55h-4515.54z"/><path class="fil0 str0" d="M31637.46 4550.15H36153V9065.7h-4515.54zm0 4515.55H36153v4515.55h-4515.54zm0 4515.55H36153v4515.55h-4515.54zm0 4515.55H36153v4515.55h-4515.54zm0 4515.55H36153v4515.55h-4515.54zm0 4515.55H36153v4515.55h-4515.54zm0 4515.55H36153V36159h-4515.54zm0 4515.55H36153v4515.55h-4515.54zm0 4515.55H36153v4515.55h-4515.54zM36153.01 34.6h4515.54v4515.55h-4515.54z"/><path class="fil0 str0" d="M36153.01 4550.15h4515.54V9065.7h-4515.54zm0 4515.55h4515.54v4515.55h-4515.54zm0 4515.55h4515.54v4515.55h-4515.54zm0 4515.55h4515.54v4515.55h-4515.54zm0 4515.55h4515.54v4515.55h-4515.54zm0 4515.55h4515.54v4515.55h-4515.54zm0 4515.55h4515.54V36159h-4515.54zm0 4515.55h4515.54v4515.55h-4515.54zm0 4515.55h4515.54v4515.55h-4515.54zM40668.55 34.6h4515.54v4515.55h-4515.54z"/><path class="fil0 str0" d="M40668.55 4550.15h4515.54V9065.7h-4515.54zm0 4515.55h4515.54v4515.55h-4515.54zm0 4515.55h4515.54v4515.55h-4515.54zm0 4515.55h4515.54v4515.55h-4515.54zm0 4515.55h4515.54v4515.55h-4515.54zm0 4515.55h4515.54v4515.55h-4515.54zm0 4515.55h4515.54V36159h-4515.54zm0 4515.55h4515.54v4515.55h-4515.54zm0 4515.55h4515.54v4515.55h-4515.54z"/><path class="fil1 str0" d="M4544.2 45190.11v-4515.55H28.66v4515.55zm4515.55-4515.55v4515.55h4515.54v-4515.55zm9031.09 0v4515.55h4515.54v-4515.55zm9031.09 0v4515.55h4515.54v-4515.55zm9031.09 0v4515.55h4515.54v-4515.55zm-27093.27 0v-4515.55H4544.2v4515.55zm4515.54-4515.55v4515.55h4515.55v-4515.55zm9031.09 0v4515.55h4515.55v-4515.55z"/><path class="fil1 str0" d="M31637.47 36159.01v4515.55h4515.55v-4515.55zm9031.09 0v4515.55h4515.55v-4515.55zm-36124.36 0v-4515.55H28.66v4515.55zm4515.55-4515.55v4515.55h4515.54v-4515.55zm9031.09 0v4515.55h4515.54v-4515.55zm9031.09 0v4515.55h4515.54v-4515.55zm9031.09 0v4515.55h4515.54v-4515.55zm-27093.27 0v-4515.55H4544.2v4515.55zm4515.54-4515.55v4515.55h4515.55v-4515.55zm9031.09 0v4515.55h4515.55v-4515.55zm9031.09 0v4515.55h4515.55v-4515.55zm9031.09 0v4515.55h4515.55v-4515.55zm-36124.36 0v-4515.55H28.66v4515.55zm4515.55-4515.55v4515.55h4515.54v-4515.55zm9031.09 0v4515.55h4515.54v-4515.55zm9031.09 0v4515.55h4515.54v-4515.55zm9031.09 0v4515.55h4515.54v-4515.55zm-27093.27 0v-4515.55H4544.2v4515.55zm4515.54-4515.55v4515.55h4515.55v-4515.55zm9031.09 0v4515.55h4515.55v-4515.55zm9031.09 0v4515.55h4515.55v-4515.55zm9031.09 0v4515.55h4515.55v-4515.55zm-36124.36 0v-4515.55H28.66v4515.55zm4515.55-4515.55v4515.55h4515.54v-4515.55zm9031.09 0v4515.55h4515.54v-4515.55zm9031.09 0v4515.55h4515.54v-4515.55zm9031.09 0v4515.55h4515.54v-4515.55zm-27093.27 0V9065.71H4544.2v4515.55zm4515.54-4515.55v4515.55h4515.55V9065.71zm9031.09 0v4515.55h4515.55V9065.71zm9031.09 0v4515.55h4515.55V9065.71zm9031.09 0v4515.55h4515.55V9065.71zm-36124.36 0V4550.16H28.66v4515.55zm4515.55-4515.55v4515.55h4515.54V4550.16zm9031.09 0v4515.55h4515.54V4550.16zm9031.09 0v4515.55h4515.54V4550.16zm9031.09 0v4515.55h4515.54V4550.16zm-27093.27 0V34.61H4544.2v4515.55zM13575.29 34.61v4515.55h4515.55V34.61zm9031.09 0v4515.55h4515.55V34.61zm9031.09 0v4515.55h4515.55V34.61zm9031.09 0v4515.55h4515.55V34.61z"/><path class="fil2 str0" d="M9059.75 45190.11v-4515.55H4544.2v4515.55zm4515.54-4515.55v4515.55h4515.55v-4515.55zm9031.09 0v4515.55h4515.55v-4515.55zm9031.09 0v4515.55h4515.55v-4515.55zm9031.09 0v4515.55h4515.55v-4515.55zm-4515.54 0h4515.54v-4515.55h-4515.54zm-4515.55 0v-4515.55h-4515.54v4515.55zm-9031.09 0v-4515.55h-4515.54v4515.55zm-9031.09 0v-4515.55H9059.75v4515.55zm-9031.09 0v-4515.55H28.66v4515.55zm0-4515.55h4515.55v-4515.55H4544.2zm9031.09-4515.55v4515.55h4515.55v-4515.55zm9031.09 0v4515.55h4515.55v-4515.55z"/><path class="fil2 str0" d="M31637.47 31643.46v4515.55h4515.55v-4515.55zm9031.09 0v4515.55h4515.55v-4515.55zm-4515.54 0h4515.54v-4515.55h-4515.54zm-4515.55 0v-4515.55h-4515.54v4515.55zm-9031.09 0v-4515.55h-4515.54v4515.55zm-9031.09 0v-4515.55H9059.75v4515.55zm-9031.09 0v-4515.55H28.66v4515.55zm0-4515.55h4515.55v-4515.55H4544.2zm9031.09-4515.55v4515.55h4515.55v-4515.55zm9031.09 0v4515.55h4515.55v-4515.55zm9031.09 0v4515.55h4515.55v-4515.55zm9031.09 0v4515.55h4515.55v-4515.55zm-4515.54 0h4515.54v-4515.55h-4515.54zm-4515.55 0v-4515.55h-4515.54v4515.55zm-9031.09 0v-4515.55h-4515.54v4515.55zm-9031.09 0v-4515.55H9059.75v4515.55zm-9031.09 0v-4515.55H28.66v4515.55zm0-4515.55h4515.55v-4515.55H4544.2zm9031.09-4515.55v4515.55h4515.55v-4515.55zm9031.09 0v4515.55h4515.55v-4515.55zm9031.09 0v4515.55h4515.55v-4515.55zm9031.09 0v4515.55h4515.55v-4515.55zm-4515.54 0h4515.54V9065.71h-4515.54zm-4515.55 0V9065.71h-4515.54v4515.55zm-9031.09 0V9065.71h-4515.54v4515.55zm-9031.09 0V9065.71H9059.75v4515.55zm-9031.09 0V9065.71H28.66v4515.55zm0-4515.55h4515.55V4550.16H4544.2zm9031.09-4515.55v4515.55h4515.55V4550.16zm9031.09 0v4515.55h4515.55V4550.16zm9031.09 0v4515.55h4515.55V4550.16zm9031.09 0v4515.55h4515.55V4550.16zm-4515.54 0h4515.54V34.61h-4515.54zm-4515.55 0V34.61h-4515.54v4515.55zm-9031.09 0V34.61h-4515.54v4515.55zm-9031.09 0V34.61H9059.75v4515.55zm-9031.09 0V34.61H28.66v4515.55z"/></g><path class="fil0" style="stroke:#2b2a29;stroke-width:176.39;stroke-miterlimit:22.9256" d="M28.65 34.61H45184.1v45155.5H28.65z"/><path class="fil3 str0" d="M4544.2 40674.56H28.66v4515.55H4544.2zm4515.55 0v4515.55h4515.54v-4515.55zm9031.09 0v4515.55h4515.54v-4515.55zm9031.09 0v4515.55h4515.54v-4515.55zm9031.09 0v4515.55h4515.54v-4515.55zm4515.54-4515.55v4515.55h4515.55v-4515.55zm-4515.54 4515.55v-4515.55h-4515.55v4515.55zm-9031.09 0v-4515.55h-4515.55v4515.55zm-9031.09 0v-4515.55h-4515.55v4515.55zm-9031.09 0v-4515.55H4544.2v4515.55zM4544.2 36159.01v-4515.55H28.66v4515.55zm4515.55-4515.55v4515.55h4515.54v-4515.55zm9031.09 0v4515.55h4515.54v-4515.55z"/><path class="fil3 str0" d="M27121.93 31643.46v4515.55h4515.54v-4515.55zm9031.09 0v4515.55h4515.54v-4515.55zm4515.54-4515.55v4515.55h4515.55v-4515.55zm-4515.54 4515.55v-4515.55h-4515.55v4515.55zm-9031.09 0v-4515.55h-4515.55v4515.55zm-9031.09 0v-4515.55h-4515.55v4515.55zm-9031.09 0v-4515.55H4544.2v4515.55zM4544.2 27127.91v-4515.55H28.66v4515.55zm4515.55-4515.55v4515.55h4515.54v-4515.55zm9031.09 0v4515.55h4515.54v-4515.55zm9031.09 0v4515.55h4515.54v-4515.55zm9031.09 0v4515.55h4515.54v-4515.55zm4515.54-4515.55v4515.55h4515.55v-4515.55zm-4515.54 4515.55v-4515.55h-4515.55v4515.55zm-9031.09 0v-4515.55h-4515.55v4515.55zm-9031.09 0v-4515.55h-4515.55v4515.55zm-9031.09 0v-4515.55H4544.2v4515.55zM4544.2 18096.81v-4515.55H28.66v4515.55zm4515.55-4515.55v4515.55h4515.54v-4515.55zm9031.09 0v4515.55h4515.54v-4515.55zm9031.09 0v4515.55h4515.54v-4515.55zm9031.09 0v4515.55h4515.54v-4515.55zm4515.54-4515.55v4515.55h4515.55V9065.71zm-4515.54 4515.55V9065.71h-4515.55v4515.55zm-9031.09 0V9065.71h-4515.55v4515.55zm-9031.09 0V9065.71h-4515.55v4515.55zm-9031.09 0V9065.71H4544.2v4515.55zM4544.2 9065.71V4550.16H28.66v4515.55zm4515.55-4515.55v4515.55h4515.54V4550.16zm9031.09 0v4515.55h4515.54V4550.16zm9031.09 0v4515.55h4515.54V4550.16zm9031.09 0v4515.55h4515.54V4550.16zM40668.56 34.61v4515.55h4515.55V34.61zm-4515.54 4515.55V34.61h-4515.55v4515.55zm-9031.09 0V34.61h-4515.55v4515.55zm-9031.09 0V34.61h-4515.55v4515.55zm-9031.09 0V34.61H4544.2v4515.55z"/><path class="str0" d="M4544.2 4550.16V34.61H28.66v4515.55zM9059.75 34.61v4515.55h4515.54V34.61zm9031.09 0v4515.55h4515.54V34.61zm9031.09 0v4515.55h4515.54V34.61zm9031.09 0v4515.55h4515.54V34.61zm4515.54 4515.55v4515.55h4515.55V4550.16zm-4515.54 4515.55V4550.16h-4515.55v4515.55zm-9031.09 0V4550.16h-4515.55v4515.55zm-9031.09 0V4550.16h-4515.55v4515.55zm-9031.09 0V4550.16H4544.2v4515.55zM4544.2 13581.26V9065.71H28.66v4515.55zm4515.55-4515.55v4515.55h4515.54V9065.71zm9031.09 0v4515.55h4515.54V9065.71zm9031.09 0v4515.55h4515.54V9065.71zm9031.09 0v4515.55h4515.54V9065.71zm4515.54 4515.55v4515.55h4515.55v-4515.55zm-4515.54 4515.55v-4515.55h-4515.55v4515.55zm-9031.09 0v-4515.55h-4515.55v4515.55zm-9031.09 0v-4515.55h-4515.55v4515.55zm-9031.09 0v-4515.55H4544.2v4515.55zM4544.2 22612.36v-4515.55H28.66v4515.55zm4515.55-4515.55v4515.55h4515.54v-4515.55zm9031.09 0v4515.55h4515.54v-4515.55zm9031.09 0v4515.55h4515.54v-4515.55zm9031.09 0v4515.55h4515.54v-4515.55zm4515.54 4515.55v4515.55h4515.55v-4515.55zm-4515.54 4515.55v-4515.55h-4515.55v4515.55zm-9031.09 0v-4515.55h-4515.55v4515.55zm-9031.09 0v-4515.55h-4515.55v4515.55zm-9031.09 0v-4515.55H4544.2v4515.55zM4544.2 31643.46v-4515.55H28.66v4515.55zm4515.55-4515.55v4515.55h4515.54v-4515.55zm9031.09 0v4515.55h4515.54v-4515.55zm9031.09 0v4515.55h4515.54v-4515.55zm9031.09 0v4515.55h4515.54v-4515.55zm4515.54 4515.55v4515.55h4515.55v-4515.55zm-4515.54 4515.55v-4515.55h-4515.55v4515.55zm-9031.09 0v-4515.55h-4515.55v4515.55zm-9031.09 0v-4515.55h-4515.55v4515.55zm-9031.09 0v-4515.55H4544.2v4515.55zM4544.2 40674.56v-4515.55H28.66v4515.55zm4515.55-4515.55v4515.55h4515.54v-4515.55zm9031.09 0v4515.55h4515.54v-4515.55zm9031.09 0v4515.55h4515.54v-4515.55zm9031.09 0v4515.55h4515.54v-4515.55zm4515.54 4515.55v4515.55h4515.55v-4515.55zm-4515.54 4515.55v-4515.55h-4515.55v4515.55zm-9031.09 0v-4515.55h-4515.55v4515.55zm-9031.09 0v-4515.55h-4515.55v4515.55zm-9031.09 0v-4515.55H4544.2v4515.55z" style="fill:#ffe7c2"/><path class="fil5 str0" d="M9059.75 45190.11v-4515.55H4544.2v4515.55zm4515.54-4515.55v4515.55h4515.55v-4515.55zm9031.09 0v4515.55h4515.55v-4515.55zm9031.09 0v4515.55h4515.55v-4515.55zm9031.09 0v4515.55h4515.55v-4515.55zm-4515.54 0h4515.54v-4515.55h-4515.54zm-4515.55 0v-4515.55h-4515.54v4515.55zm-9031.09 0v-4515.55h-4515.54v4515.55zm-9031.09 0v-4515.55H9059.75v4515.55zm-9031.09 0v-4515.55H28.66v4515.55zm0-4515.55h4515.55v-4515.55H4544.2zm9031.09-4515.55v4515.55h4515.55v-4515.55zm9031.09 0v4515.55h4515.55v-4515.55z"/><path class="fil5 str0" d="M31637.47 31643.46v4515.55h4515.55v-4515.55zm9031.09 0v4515.55h4515.55v-4515.55zm-4515.54 0h4515.54v-4515.55h-4515.54zm-4515.55 0v-4515.55h-4515.54v4515.55zm-9031.09 0v-4515.55h-4515.54v4515.55zm-9031.09 0v-4515.55H9059.75v4515.55zm-9031.09 0v-4515.55H28.66v4515.55zm0-4515.55h4515.55v-4515.55H4544.2zm9031.09-4515.55v4515.55h4515.55v-4515.55zm9031.09 0v4515.55h4515.55v-4515.55zm9031.09 0v4515.55h4515.55v-4515.55zm9031.09 0v4515.55h4515.55v-4515.55zm-36124.36 0v-4515.55H28.66v4515.55zm4515.55-4515.55v4515.55h4515.54v-4515.55zm9031.09 0v4515.55h4515.54v-4515.55zm9031.09 0v4515.55h4515.54v-4515.55zm9031.09 0v4515.55h4515.54v-4515.55zm4515.54-4515.55v4515.55h4515.55v-4515.55zm-4515.54 4515.55v-4515.55h-4515.55v4515.55zm-9031.09 0v-4515.55h-4515.55v4515.55zm-9031.09 0v-4515.55h-4515.55v4515.55zm-9031.09 0v-4515.55H4544.2v4515.55zM4544.2 13581.26V9065.71H28.66v4515.55zm4515.55-4515.55v4515.55h4515.54V9065.71zm9031.09 0v4515.55h4515.54V9065.71zm9031.09 0v4515.55h4515.54V9065.71zm9031.09 0v4515.55h4515.54V9065.71zm4515.54-4515.55v4515.55h4515.55V4550.16zm-4515.54 4515.55V4550.16h-4515.55v4515.55zm-9031.09 0V4550.16h-4515.55v4515.55zm-9031.09 0V4550.16h-4515.55v4515.55zm-9031.09 0V4550.16H4544.2v4515.55zM4544.2 4550.16V34.61H28.66v4515.55zM9059.75 34.61v4515.55h4515.54V34.61zm9031.09 0v4515.55h4515.54V34.61zm9031.09 0v4515.55h4515.54V34.61zm9031.09 0v4515.55h4515.54V34.61z"/><path class="fil6 str0" d="M4544.2 45190.11v-4515.55H28.66v4515.55zm4515.55-4515.55v4515.55h4515.54v-4515.55zm9031.09 0v4515.55h4515.54v-4515.55zm9031.09 0v4515.55h4515.54v-4515.55zm9031.09 0v4515.55h4515.54v-4515.55zm-27093.27 0v-4515.55H4544.2v4515.55zm4515.54-4515.55v4515.55h4515.55v-4515.55zm9031.09 0v4515.55h4515.55v-4515.55z"/><path class="fil6 str0" d="M31637.47 36159.01v4515.55h4515.55v-4515.55zm9031.09 0v4515.55h4515.55v-4515.55zm-4515.54 0h4515.54v-4515.55h-4515.54zm-4515.55 0v-4515.55h-4515.54v4515.55zm-9031.09 0v-4515.55h-4515.54v4515.55zm-9031.09 0v-4515.55H9059.75v4515.55zm-9031.09 0v-4515.55H28.66v4515.55zm0-4515.55h4515.55v-4515.55H4544.2zm9031.09-4515.55v4515.55h4515.55v-4515.55zm9031.09 0v4515.55h4515.55v-4515.55zm9031.09 0v4515.55h4515.55v-4515.55zm9031.09 0v4515.55h4515.55v-4515.55zm-4515.54 0h4515.54v-4515.55h-4515.54zm-4515.55 0v-4515.55h-4515.54v4515.55zm-9031.09 0v-4515.55h-4515.54v4515.55zm-9031.09 0v-4515.55H9059.75v4515.55zm-9031.09 0v-4515.55H28.66v4515.55zm0-4515.55h4515.55v-4515.55H4544.2zm9031.09-4515.55v4515.55h4515.55v-4515.55zm9031.09 0v4515.55h4515.55v-4515.55zm9031.09 0v4515.55h4515.55v-4515.55zm9031.09 0v4515.55h4515.55v-4515.55zm-4515.54 0h4515.54v-4515.55h-4515.54zm-4515.55 0v-4515.55h-4515.54v4515.55zm-9031.09 0v-4515.55h-4515.54v4515.55zm-9031.09 0v-4515.55H9059.75v4515.55zm-9031.09 0v-4515.55H28.66v4515.55zm0-4515.55h4515.55V9065.71H4544.2zm9031.09-4515.55v4515.55h4515.55V9065.71zm9031.09 0v4515.55h4515.55V9065.71zm9031.09 0v4515.55h4515.55V9065.71zm9031.09 0v4515.55h4515.55V9065.71zm-4515.54 0h4515.54V4550.16h-4515.54zm-4515.55 0V4550.16h-4515.54v4515.55zm-9031.09 0V4550.16h-4515.54v4515.55zm-9031.09 0V4550.16H9059.75v4515.55zm-9031.09 0V4550.16H28.66v4515.55zm0-4515.55h4515.55V34.61H4544.2zM13575.29 34.61v4515.55h4515.55V34.61zm9031.09 0v4515.55h4515.55V34.61zm9031.09 0v4515.55h4515.55V34.61zm9031.09 0v4515.55h4515.55V34.61z"/></g></svg>