<svg xmlns="http://www.w3.org/2000/svg" xml:space="preserve" width="1550mm" height="1550mm" style="shape-rendering:geometricPrecision;text-rendering:geometricPrecision;image-rendering:optimizeQuality;fill-rule:evenodd;clip-rule:evenodd" viewBox="0 0 155000 155000"><defs><style>.str0{stroke:#2b2a29;stroke-width:70.56;stroke-miterlimit:22.9256}.fil0{fill:none}.fil6{fill:#78945a}</style></defs><g id="Слой_x0020_1"><g id="_2583134101264"><path class="fil0 str0" d="M390.32 396.2h15423.21v15423.23H390.32z"/><path class="fil0 str0" d="M390.32 15819.42h15423.21v15423.23H390.32zm0 15423.23h15423.21v15423.23H390.32z"/><path class="fil0 str0" d="M390.32 46665.87h15423.21V62089.1H390.32zm0 15423.23h15423.21v15423.23H390.32z"/><path class="fil0 str0" d="M390.32 77512.32h15423.21v15423.23H390.32zm0 15423.23h15423.21v15423.23H390.32zm0 15423.23h15423.21v15423.23H390.32z"/><path class="fil0 str0" d="M390.32 123782h15423.21v15423.23H390.32zm0 15423.23h15423.21v15423.23H390.32zM15813.53 396.2h15423.21v15423.23H15813.53z"/><path class="fil0 str0" d="M15813.53 15819.42h15423.21v15423.23H15813.53zm0 15423.23h15423.21v15423.23H15813.53z"/><path class="fil0 str0" d="M15813.53 46665.87h15423.21V62089.1H15813.53zm0 15423.23h15423.21v15423.23H15813.53z"/><path class="fil0 str0" d="M15813.53 77512.32h15423.21v15423.23H15813.53zm0 15423.23h15423.21v15423.23H15813.53zm0 15423.23h15423.21v15423.23H15813.53z"/><path class="fil0 str0" d="M15813.53 123782h15423.21v15423.23H15813.53zm0 15423.23h15423.21v15423.23H15813.53zM31236.73 396.2h15423.21v15423.23H31236.73z"/><path class="fil0 str0" d="M31236.73 15819.42h15423.21v15423.23H31236.73zm0 15423.23h15423.21v15423.23H31236.73z"/><path class="fil0 str0" d="M31236.73 46665.87h15423.21V62089.1H31236.73zm0 15423.23h15423.21v15423.23H31236.73z"/><path class="fil0 str0" d="M31236.73 77512.32h15423.21v15423.23H31236.73zm0 15423.23h15423.21v15423.23H31236.73zm0 15423.23h15423.21v15423.23H31236.73z"/><path class="fil0 str0" d="M31236.73 123782h15423.21v15423.23H31236.73zm0 15423.23h15423.21v15423.23H31236.73zM46659.94 396.2h15423.21v15423.23H46659.94z"/><path class="fil0 str0" d="M46659.94 15819.42h15423.21v15423.23H46659.94zm0 15423.23h15423.21v15423.23H46659.94z"/><path class="fil0 str0" d="M46659.94 46665.87h15423.21V62089.1H46659.94zm0 15423.23h15423.21v15423.23H46659.94z"/><path class="fil0 str0" d="M46659.94 77512.32h15423.21v15423.23H46659.94zm0 15423.23h15423.21v15423.23H46659.94zm0 15423.23h15423.21v15423.23H46659.94z"/><path class="fil0 str0" d="M46659.94 123782h15423.21v15423.23H46659.94zm0 15423.23h15423.21v15423.23H46659.94zM62083.15 396.2h15423.21v15423.23H62083.15z"/><path class="fil0 str0" d="M62083.15 15819.42h15423.21v15423.23H62083.15zm0 15423.23h15423.21v15423.23H62083.15z"/><path class="fil0 str0" d="M62083.15 46665.87h15423.21V62089.1H62083.15zm0 15423.23h15423.21v15423.23H62083.15z"/><path class="fil0 str0" d="M62083.15 77512.32h15423.21v15423.23H62083.15zm0 15423.23h15423.21v15423.23H62083.15zm0 15423.23h15423.21v15423.23H62083.15z"/><path class="fil0 str0" d="M62083.15 123782h15423.21v15423.23H62083.15zm0 15423.23h15423.21v15423.23H62083.15zM77506.36 396.2h15423.21v15423.23H77506.36z"/><path class="fil0 str0" d="M77506.36 15819.42h15423.21v15423.23H77506.36zm0 15423.23h15423.21v15423.23H77506.36z"/><path class="fil0 str0" d="M77506.36 46665.87h15423.21V62089.1H77506.36zm0 15423.23h15423.21v15423.23H77506.36z"/><path class="fil0 str0" d="M77506.36 77512.32h15423.21v15423.23H77506.36zm0 15423.23h15423.21v15423.23H77506.36zm0 15423.23h15423.21v15423.23H77506.36z"/><path class="fil0 str0" d="M77506.36 123782h15423.21v15423.23H77506.36zm0 15423.23h15423.21v15423.23H77506.36zM92929.57 396.2h15423.21v15423.23H92929.57z"/><path class="fil0 str0" d="M92929.57 15819.42h15423.21v15423.23H92929.57zm0 15423.23h15423.21v15423.23H92929.57z"/><path class="fil0 str0" d="M92929.57 46665.87h15423.21V62089.1H92929.57zm0 15423.23h15423.21v15423.23H92929.57z"/><path class="fil0 str0" d="M92929.57 77512.32h15423.21v15423.23H92929.57zm0 15423.23h15423.21v15423.23H92929.57zm0 15423.23h15423.21v15423.23H92929.57z"/><path class="fil0 str0" d="M92929.57 123782h15423.21v15423.23H92929.57zm0 15423.23h15423.21v15423.23H92929.57zM108352.78 396.2h15423.21v15423.23h-15423.21z"/><path class="fil0 str0" d="M108352.78 15819.42h15423.21v15423.23h-15423.21zm0 15423.23h15423.21v15423.23h-15423.21z"/><path class="fil0 str0" d="M108352.78 46665.87h15423.21V62089.1h-15423.21zm0 15423.23h15423.21v15423.23h-15423.21z"/><path class="fil0 str0" d="M108352.78 77512.32h15423.21v15423.23h-15423.21zm0 15423.23h15423.21v15423.23h-15423.21zm0 15423.23h15423.21v15423.23h-15423.21z"/><path class="fil0 str0" d="M108352.78 123782h15423.21v15423.23h-15423.21zm0 15423.23h15423.21v15423.23h-15423.21zM123775.99 396.2h15423.21v15423.23h-15423.21z"/><path class="fil0 str0" d="M123775.99 15819.42h15423.21v15423.23h-15423.21zm0 15423.23h15423.21v15423.23h-15423.21z"/><path class="fil0 str0" d="M123775.99 46665.87h15423.21V62089.1h-15423.21zm0 15423.23h15423.21v15423.23h-15423.21z"/><path class="fil0 str0" d="M123775.99 77512.32h15423.21v15423.23h-15423.21zm0 15423.23h15423.21v15423.23h-15423.21zm0 15423.23h15423.21v15423.23h-15423.21z"/><path class="fil0 str0" d="M123775.99 123782h15423.21v15423.23h-15423.21zm0 15423.23h15423.21v15423.23h-15423.21zM139199.2 396.2h15423.21v15423.23H139199.2z"/><path class="fil0 str0" d="M139199.2 15819.42h15423.21v15423.23H139199.2zm0 15423.23h15423.21v15423.23H139199.2z"/><path class="fil0 str0" d="M139199.2 46665.87h15423.21V62089.1H139199.2zm0 15423.23h15423.21v15423.23H139199.2z"/><path class="fil0 str0" d="M139199.2 77512.32h15423.21v15423.23H139199.2zm0 15423.23h15423.21v15423.23H139199.2zm0 15423.23h15423.21v15423.23H139199.2z"/><path class="fil0 str0" d="M139199.2 123782h15423.21v15423.23H139199.2zm0 15423.23h15423.21v15423.23H139199.2z"/><path class="str0" d="M15813.54 154628.49v-15423.22H390.35v15423.22zm15423.23-15423.22v15423.22h15423.19v-15423.22zm30846.42 0v15423.22h15423.19v-15423.22zm30846.42 0v15423.22h15423.19v-15423.22zm30846.42 0v15423.22h15423.19v-15423.22zm-92539.26 0v-15423.23H15813.54v15423.23zm15423.19-15423.23v15423.23h15423.23v-15423.23zm30846.42 0v15423.23h15423.23v-15423.23zm30846.42 0v15423.23h15423.23v-15423.23zm30846.42 0v15423.23h15423.23v-15423.23zm-123385.68 0v-15423.23H390.35v15423.23zm15423.23-15423.23v15423.23h15423.19v-15423.23zm30846.42 0v15423.23h15423.19v-15423.23zm30846.42 0v15423.23h15423.19v-15423.23zm30846.42 0v15423.23h15423.19v-15423.23zm-92539.26 0V92935.59H15813.54v15423.22zm15423.19-15423.22v15423.22h15423.23V92935.59zm30846.42 0v15423.22h15423.23V92935.59zm30846.42 0v15423.22h15423.23V92935.59zm30846.42 0v15423.22h15423.23V92935.59zm-123385.68 0V77512.36H390.35v15423.23zm15423.23-15423.23v15423.23h15423.19V77512.36zm30846.42 0v15423.23h15423.19V77512.36zm30846.42 0v15423.23h15423.19V77512.36zm30846.42 0v15423.23h15423.19V77512.36zm-92539.26 0V62089.13H15813.54v15423.23zm15423.19-15423.23v15423.23h15423.23V62089.13zm30846.42 0v15423.23h15423.23V62089.13zm30846.42 0v15423.23h15423.23V62089.13zm30846.42 0v15423.23h15423.23V62089.13zm-123385.68 0V46665.91H390.35v15423.22zm15423.23-15423.22v15423.22h15423.19V46665.91zm30846.42 0v15423.22h15423.19V46665.91zm30846.42 0v15423.22h15423.19V46665.91zm30846.42 0v15423.22h15423.19V46665.91zm-92539.26 0V31242.68H15813.54v15423.23zm15423.19-15423.23v15423.23h15423.23V31242.68zm30846.42 0v15423.23h15423.23V31242.68zm30846.42 0v15423.23h15423.23V31242.68zm30846.42 0v15423.23h15423.23V31242.68zm-123385.68 0V15819.45H390.35v15423.23zm15423.23-15423.23v15423.23h15423.19V15819.45zm30846.42 0v15423.23h15423.19V15819.45zm30846.42 0v15423.23h15423.19V15819.45zm30846.42 0v15423.23h15423.19V15819.45zm-92539.26 0V396.23H15813.54v15423.22zM46659.96 396.23v15423.22h15423.23V396.23zm30846.42 0v15423.22h15423.23V396.23zm30846.42 0v15423.22h15423.23V396.23zm30846.42 0v15423.22h15423.23V396.23z" style="fill:#b58863"/><path class="str0" d="M31236.77 154628.49v-15423.22H15813.54v15423.22zm15423.19-15423.22v15423.22h15423.23v-15423.22zm30846.42 0v15423.22h15423.23v-15423.22zm30846.42 0v15423.22h15423.23v-15423.22zm30846.42 0v15423.22h15423.23v-15423.22zm-15423.19 0h15423.19v-15423.23h-15423.19zm-15423.23 0v-15423.23H92929.61v15423.23zm-30846.42 0v-15423.23H62083.19v15423.23zm-30846.42 0v-15423.23H31236.77v15423.23zm-30846.42 0v-15423.23H390.35v15423.23zm0-15423.23h15423.23v-15423.23H15813.54zm30846.42-15423.23v15423.23h15423.23v-15423.23zm30846.42 0v15423.23h15423.23v-15423.23zm30846.42 0v15423.23h15423.23v-15423.23zm30846.42 0v15423.23h15423.23v-15423.23zm-15423.19 0h15423.19V92935.59h-15423.19zm-15423.23 0V92935.59H92929.61v15423.22zm-30846.42 0V92935.59H62083.19v15423.22zm-30846.42 0V92935.59H31236.77v15423.22zm-30846.42 0V92935.59H390.35v15423.22zm0-15423.22h15423.23V77512.36H15813.54zm30846.42-15423.23v15423.23h15423.23V77512.36zm30846.42 0v15423.23h15423.23V77512.36zm30846.42 0v15423.23h15423.23V77512.36zm30846.42 0v15423.23h15423.23V77512.36zm-15423.19 0h15423.19V62089.13h-15423.19zm-15423.23 0V62089.13H92929.61v15423.23zm-30846.42 0V62089.13H62083.19v15423.23zm-30846.42 0V62089.13H31236.77v15423.23zm-30846.42 0V62089.13H390.35v15423.23zm0-15423.23h15423.23V46665.91H15813.54zm30846.42-15423.22v15423.22h15423.23V46665.91zm30846.42 0v15423.22h15423.23V46665.91zm30846.42 0v15423.22h15423.23V46665.91zm30846.42 0v15423.22h15423.23V46665.91zm-15423.19 0h15423.19V31242.68h-15423.19zm-15423.23 0V31242.68H92929.61v15423.23zm-30846.42 0V31242.68H62083.19v15423.23zm-30846.42 0V31242.68H31236.77v15423.23zm-30846.42 0V31242.68H390.35v15423.23zm0-15423.23h15423.23V15819.45H15813.54zm30846.42-15423.23v15423.23h15423.23V15819.45zm30846.42 0v15423.23h15423.23V15819.45zm30846.42 0v15423.23h15423.23V15819.45zm30846.42 0v15423.23h15423.23V15819.45zm-15423.19 0h15423.19V396.23h-15423.19zm-15423.23 0V396.23H92929.61v15423.22zm-30846.42 0V396.23H62083.19v15423.22zm-30846.42 0V396.23H31236.77v15423.22zm-30846.42 0V396.23H390.35v15423.22z" style="fill:#f0d9b5"/><path class="fil0" style="stroke:#2b2a29;stroke-width:176.39;stroke-miterlimit:22.9256" d="M390.33 396.23h154232.1V154628.5H390.33z"/><path class="str0" d="M15813.54 139205.27H390.35v15423.22h15423.19zm15423.23 0v15423.22h15423.19v-15423.22zm30846.42 0v15423.22h15423.19v-15423.22zm30846.42 0v15423.22h15423.19v-15423.22zm30846.42 0v15423.22h15423.19v-15423.22zm15423.19-15423.23v15423.23h15423.23v-15423.23zm-15423.19 15423.23v-15423.23H108352.8v15423.23zm-30846.42 0v-15423.23H77506.38v15423.23zm-30846.42 0v-15423.23H46659.96v15423.23zm-30846.42 0v-15423.23H15813.54v15423.23zm-15423.23-15423.23v-15423.23H390.35v15423.23zm15423.23-15423.23v15423.23h15423.19v-15423.23zm30846.42 0v15423.23h15423.19v-15423.23zm30846.42 0v15423.23h15423.19v-15423.23zm30846.42 0v15423.23h15423.19v-15423.23zm15423.19-15423.22v15423.22h15423.23V92935.59zm-15423.19 15423.22V92935.59H108352.8v15423.22zm-30846.42 0V92935.59H77506.38v15423.22zm-30846.42 0V92935.59H46659.96v15423.22zm-30846.42 0V92935.59H15813.54v15423.22zM15813.54 92935.59V77512.36H390.35v15423.23zm15423.23-15423.23v15423.23h15423.19V77512.36zm30846.42 0v15423.23h15423.19V77512.36zm30846.42 0v15423.23h15423.19V77512.36zm30846.42 0v15423.23h15423.19V77512.36zm15423.19-15423.23v15423.23h15423.23V62089.13zm-15423.19 15423.23V62089.13H108352.8v15423.23zm-30846.42 0V62089.13H77506.38v15423.23zm-30846.42 0V62089.13H46659.96v15423.23zm-30846.42 0V62089.13H15813.54v15423.23zM15813.54 62089.13V46665.91H390.35v15423.22zm15423.23-15423.22v15423.22h15423.19V46665.91zm30846.42 0v15423.22h15423.19V46665.91zm30846.42 0v15423.22h15423.19V46665.91zm30846.42 0v15423.22h15423.19V46665.91zm15423.19-15423.23v15423.23h15423.23V31242.68zm-15423.19 15423.23V31242.68H108352.8v15423.23zm-30846.42 0V31242.68H77506.38v15423.23zm-30846.42 0V31242.68H46659.96v15423.23zm-30846.42 0V31242.68H15813.54v15423.23zM15813.54 31242.68V15819.45H390.35v15423.23zm15423.23-15423.23v15423.23h15423.19V15819.45zm30846.42 0v15423.23h15423.19V15819.45zm30846.42 0v15423.23h15423.19V15819.45zm30846.42 0v15423.23h15423.19V15819.45zM139199.22 396.23v15423.22h15423.23V396.23zm-15423.19 15423.22V396.23H108352.8v15423.22zm-30846.42 0V396.23H77506.38v15423.22zm-30846.42 0V396.23H46659.96v15423.22zm-30846.42 0V396.23H15813.54v15423.22z" style="fill:#cf996c"/><path class="str0" d="M15813.54 15819.45V396.23H390.35v15423.22zM31236.77 396.23v15423.22h15423.19V396.23zm30846.42 0v15423.22h15423.19V396.23zm30846.42 0v15423.22h15423.19V396.23zm30846.42 0v15423.22h15423.19V396.23zm15423.19 15423.22v15423.23h15423.23V15819.45zm-15423.19 15423.23V15819.45H108352.8v15423.23zm-30846.42 0V15819.45H77506.38v15423.23zm-30846.42 0V15819.45H46659.96v15423.23zm-30846.42 0V15819.45H15813.54v15423.23zM15813.54 46665.91V31242.68H390.35v15423.23zm15423.23-15423.23v15423.23h15423.19V31242.68zm30846.42 0v15423.23h15423.19V31242.68zm30846.42 0v15423.23h15423.19V31242.68zm30846.42 0v15423.23h15423.19V31242.68zm15423.19 15423.23v15423.22h15423.23V46665.91zm-15423.19 15423.22V46665.91H108352.8v15423.22zm-30846.42 0V46665.91H77506.38v15423.22zm-30846.42 0V46665.91H46659.96v15423.22zm-30846.42 0V46665.91H15813.54v15423.22zM15813.54 77512.36V62089.13H390.35v15423.23zm15423.23-15423.23v15423.23h15423.19V62089.13zm30846.42 0v15423.23h15423.19V62089.13zm30846.42 0v15423.23h15423.19V62089.13zm30846.42 0v15423.23h15423.19V62089.13zm15423.19 15423.23v15423.23h15423.23V77512.36zm-15423.19 15423.23V77512.36H108352.8v15423.23zm-30846.42 0V77512.36H77506.38v15423.23zm-30846.42 0V77512.36H46659.96v15423.23zm-30846.42 0V77512.36H15813.54v15423.23zm-15423.23 15423.22V92935.59H390.35v15423.22zm15423.23-15423.22v15423.22h15423.19V92935.59zm30846.42 0v15423.22h15423.19V92935.59zm30846.42 0v15423.22h15423.19V92935.59zm30846.42 0v15423.22h15423.19V92935.59zm15423.19 15423.22v15423.23h15423.23v-15423.23zm-15423.19 15423.23v-15423.23H108352.8v15423.23zm-30846.42 0v-15423.23H77506.38v15423.23zm-30846.42 0v-15423.23H46659.96v15423.23zm-30846.42 0v-15423.23H15813.54v15423.23zm-15423.23 15423.23v-15423.23H390.35v15423.23zm15423.23-15423.23v15423.23h15423.19v-15423.23zm30846.42 0v15423.23h15423.19v-15423.23zm30846.42 0v15423.23h15423.19v-15423.23zm30846.42 0v15423.23h15423.19v-15423.23zm15423.19 15423.23v15423.22h15423.23v-15423.22zm-15423.19 15423.22v-15423.22H108352.8v15423.22zm-30846.42 0v-15423.22H77506.38v15423.22zm-30846.42 0v-15423.22H46659.96v15423.22zm-30846.42 0v-15423.22H15813.54v15423.22z" style="fill:#ffe7c2"/><path class="str0" d="M31236.77 154628.49v-15423.22H15813.54v15423.22zm15423.19-15423.22v15423.22h15423.23v-15423.22zm30846.42 0v15423.22h15423.23v-15423.22zm30846.42 0v15423.22h15423.23v-15423.22zm30846.42 0v15423.22h15423.23v-15423.22zm-15423.19 0h15423.19v-15423.23h-15423.19zm-15423.23 0v-15423.23H92929.61v15423.23zm-30846.42 0v-15423.23H62083.19v15423.23zm-30846.42 0v-15423.23H31236.77v15423.23zm-30846.42 0v-15423.23H390.35v15423.23zm0-15423.23h15423.23v-15423.23H15813.54zm30846.42-15423.23v15423.23h15423.23v-15423.23zm30846.42 0v15423.23h15423.23v-15423.23zm30846.42 0v15423.23h15423.23v-15423.23zm30846.42 0v15423.23h15423.23v-15423.23zm-15423.19 0h15423.19V92935.59h-15423.19zm-15423.23 0V92935.59H92929.61v15423.22zm-30846.42 0V92935.59H62083.19v15423.22zm-30846.42 0V92935.59H31236.77v15423.22zm-30846.42 0V92935.59H390.35v15423.22zm0-15423.22h15423.23V77512.36H15813.54zm30846.42-15423.23v15423.23h15423.23V77512.36zm30846.42 0v15423.23h15423.23V77512.36zm30846.42 0v15423.23h15423.23V77512.36zm30846.42 0v15423.23h15423.23V77512.36zm-123385.68 0V62089.13H390.35v15423.23zm15423.23-15423.23v15423.23h15423.19V62089.13zm30846.42 0v15423.23h15423.19V62089.13zm30846.42 0v15423.23h15423.19V62089.13zm30846.42 0v15423.23h15423.19V62089.13zm15423.19-15423.22v15423.22h15423.23V46665.91zm-15423.19 15423.22V46665.91H108352.8v15423.22zm-30846.42 0V46665.91H77506.38v15423.22zm-30846.42 0V46665.91H46659.96v15423.22zm-30846.42 0V46665.91H15813.54v15423.22zM15813.54 46665.91V31242.68H390.35v15423.23zm15423.23-15423.23v15423.23h15423.19V31242.68zm30846.42 0v15423.23h15423.19V31242.68zm30846.42 0v15423.23h15423.19V31242.68zm30846.42 0v15423.23h15423.19V31242.68zm15423.19-15423.23v15423.23h15423.23V15819.45zm-15423.19 15423.23V15819.45H108352.8v15423.23zm-30846.42 0V15819.45H77506.38v15423.23zm-30846.42 0V15819.45H46659.96v15423.23zm-30846.42 0V15819.45H15813.54v15423.23zM15813.54 15819.45V396.23H390.35v15423.22zM31236.77 396.23v15423.22h15423.19V396.23zm30846.42 0v15423.22h15423.19V396.23zm30846.42 0v15423.22h15423.19V396.23zm30846.42 0v15423.22h15423.19V396.23z" style="fill:#fff"/><path class="fil6 str0" d="M15813.54 154628.49v-15423.22H390.35v15423.22z"/><path class="str0" d="M31236.77 139205.27v15423.22h15423.19v-15423.22zm30846.42 0v15423.22h15423.19v-15423.22zm30846.42 0v15423.22h15423.19v-15423.22zm30846.42 0v15423.22h15423.19v-15423.22zm-92539.26 0v-15423.23H15813.54v15423.23zm15423.19-15423.23v15423.23h15423.23v-15423.23zm30846.42 0v15423.23h15423.23v-15423.23zm30846.42 0v15423.23h15423.23v-15423.23zm30846.42 0v15423.23h15423.23v-15423.23zm-15423.19 0h15423.19v-15423.23h-15423.19zm-15423.23 0v-15423.23H92929.61v15423.23zm-30846.42 0v-15423.23H62083.19v15423.23zm-30846.42 0v-15423.23H31236.77v15423.23zm-30846.42 0v-15423.23H390.35v15423.23zm0-15423.23h15423.23V92935.59H15813.54zm30846.42-15423.22v15423.22h15423.23V92935.59zm30846.42 0v15423.22h15423.23V92935.59zm30846.42 0v15423.22h15423.23V92935.59zm30846.42 0v15423.22h15423.23V92935.59zm-15423.19 0h15423.19V77512.36h-15423.19zm-15423.23 0V77512.36H92929.61v15423.23zm-30846.42 0V77512.36H62083.19v15423.23zm-30846.42 0V77512.36H31236.77v15423.23zm-30846.42 0V77512.36H390.35v15423.23zm0-15423.23h15423.23V62089.13H15813.54zm30846.42-15423.23v15423.23h15423.23V62089.13zm30846.42 0v15423.23h15423.23V62089.13zm30846.42 0v15423.23h15423.23V62089.13zm30846.42 0v15423.23h15423.23V62089.13zm-15423.19 0h15423.19V46665.91h-15423.19zm-15423.23 0V46665.91H92929.61v15423.22zm-30846.42 0V46665.91H62083.19v15423.22zm-30846.42 0V46665.91H31236.77v15423.22zm-30846.42 0V46665.91H390.35v15423.22zm0-15423.22h15423.23V31242.68H15813.54zm30846.42-15423.23v15423.23h15423.23V31242.68zm30846.42 0v15423.23h15423.23V31242.68zm30846.42 0v15423.23h15423.23V31242.68zm30846.42 0v15423.23h15423.23V31242.68zm-15423.19 0h15423.19V15819.45h-15423.19zm-15423.23 0V15819.45H92929.61v15423.23zm-30846.42 0V15819.45H62083.19v15423.23zm-30846.42 0V15819.45H31236.77v15423.23zm-30846.42 0V15819.45H390.35v15423.23zm0-15423.23h15423.23V396.23H15813.54zM46659.96 396.23v15423.22h15423.23V396.23zm30846.42 0v15423.22h15423.23V396.23zm30846.42 0v15423.22h15423.23V396.23zm30846.42 0v15423.22h15423.23V396.23z" style="fill:#8a372a"/><path class="fil0 str0" d="M46659.96 154628.49v-15423.22H31236.77v15423.22z"/><path class="fil6 str0" d="M46659.96 154628.49v-15423.22H31236.77v15423.22z"/><path class="fil0 str0" d="M62083.19 139205.27v15423.22h15423.19v-15423.22z"/><path class="fil0 str0" d="M390.35 92935.59V396.23h154232.1v154232.26H390.35v-61692.9zm0 0V396.23h154232.1v154232.26H390.35v-61692.9z"/><path class="str0" d="M390.35 92935.59V396.23h154232.1v154232.26H390.35v-61692.9zm0 0V396.23h154232.1v154232.26H390.35v-61692.9z" style="fill:#8a3228"/><path class="str0" d="M62083.19 139205.27v15423.22h15423.19v-15423.22zm30846.42 0v15423.22h15423.19v-15423.22zm30846.42 0v15423.22h15423.19v-15423.22zm15423.19-15423.23v15423.23h15423.23v-15423.23zm-15423.19 15423.23v-15423.23H108352.8v15423.23zm-30846.42 0v-15423.23H77506.38v15423.23zm-30846.42 0v-15423.23H46659.96v15423.23zm-30846.42 0v-15423.23H15813.54v15423.23zm-15423.23-15423.23v-15423.23H390.35v15423.23zm15423.23-15423.23v15423.23h15423.19v-15423.23zm30846.42 0v15423.23h15423.19v-15423.23zm30846.42 0v15423.23h15423.19v-15423.23zm30846.42 0v15423.23h15423.19v-15423.23zm15423.19-15423.22v15423.22h15423.23V92935.59zm-15423.19 15423.22V92935.59H108352.8v15423.22zm-30846.42 0V92935.59H77506.38v15423.22zm-30846.42 0V92935.59H46659.96v15423.22zm-30846.42 0V92935.59H15813.54v15423.22zM390.35 92935.59h15423.19V77512.36H390.35zm30846.42-15423.23v15423.23h15423.19V77512.36zm30846.42 0v15423.23h15423.19V77512.36zm30846.42 0v15423.23h15423.19V77512.36zm30846.42 0v15423.23h15423.19V77512.36zm15423.19-15423.23v15423.23h15423.23V62089.13zm-15423.19 15423.23V62089.13H108352.8v15423.23zm-30846.42 0V62089.13H77506.38v15423.23zm-30846.42 0V62089.13H46659.96v15423.23zm-30846.42 0V62089.13H15813.54v15423.23zM15813.54 62089.13V46665.91H390.35v15423.22zm15423.23-15423.22v15423.22h15423.19V46665.91zm30846.42 0v15423.22h15423.19V46665.91zm30846.42 0v15423.22h15423.19V46665.91zm30846.42 0v15423.22h15423.19V46665.91zm15423.19-15423.23v15423.23h15423.23V31242.68zm-15423.19 15423.23V31242.68H108352.8v15423.23zm-30846.42 0V31242.68H77506.38v15423.23zm-30846.42 0V31242.68H46659.96v15423.23zm-30846.42 0V31242.68H15813.54v15423.23zM390.35 31242.68h15423.19V15819.45H390.35zm30846.42-15423.23v15423.23h15423.19V15819.45zm30846.42 0v15423.23h15423.19V15819.45zm30846.42 0v15423.23h15423.19V15819.45zm30846.42 0v15423.23h15423.19V15819.45zM139199.22 396.23v15423.22h15423.23V396.23zm-15423.19 15423.22V396.23H108352.8v15423.22zm-30846.42 0V396.23H77506.38v15423.22zm-30846.42 0V396.23H46659.96v15423.22zm-30846.42 0V396.23H15813.54v15423.22z" style="fill:#78945a"/><path class="str0" d="M15813.54 15819.45V396.23H390.35v15423.22zM31236.77 396.23v15423.22h15423.19V396.23zm30846.42 0v15423.22h15423.19V396.23zm30846.42 0v15423.22h15423.19V396.23zm30846.42 0v15423.22h15423.19V396.23zm15423.19 15423.22v15423.23h15423.23V15819.45zm-15423.19 15423.23V15819.45H108352.8v15423.23zm-30846.42 0V15819.45H77506.38v15423.23zm-30846.42 0V15819.45H46659.96v15423.23zm-30846.42 0V15819.45H15813.54v15423.23zM15813.54 46665.91V31242.68H390.35v15423.23zm15423.23-15423.23v15423.23h15423.19V31242.68zm30846.42 0v15423.23h15423.19V31242.68zm30846.42 0v15423.23h15423.19V31242.68zm30846.42 0v15423.23h15423.19V31242.68zm15423.19 15423.23v15423.22h15423.23V46665.91zm-15423.19 15423.22V46665.91H108352.8v15423.22zm-30846.42 0V46665.91H77506.38v15423.22zm-30846.42 0V46665.91H46659.96v15423.22zm-30846.42 0V46665.91H15813.54v15423.22zM15813.54 77512.36V62089.13H390.35v15423.23zm15423.23-15423.23v15423.23h15423.19V62089.13zm30846.42 0v15423.23h15423.19V62089.13zm30846.42 0v15423.23h15423.19V62089.13zm30846.42 0v15423.23h15423.19V62089.13zm15423.19 15423.23v15423.23h15423.23V77512.36zm0 15423.23V77512.36h-15423.19v15423.23zm-46269.61 0V77512.36H77506.38v15423.23zm-30846.42 0V77512.36H46659.96v15423.23zm-30846.42 0V77512.36H15813.54v15423.23zm-15423.23 15423.22V92935.59H390.35v15423.22zm15423.23-15423.22v15423.22h15423.19V92935.59zm30846.42 0v15423.22h15423.19V92935.59zm30846.42 0v15423.22h15423.19V92935.59zm30846.42 0v15423.22h15423.19V92935.59zm15423.19 15423.22v15423.23h15423.23v-15423.23zm-15423.19 15423.23v-15423.23H108352.8v15423.23zm-30846.42 0v-15423.23H77506.38v15423.23zm-30846.42 0v-15423.23H46659.96v15423.23zm-30846.42 0v-15423.23H15813.54v15423.23zm-15423.23 15423.23v-15423.23H390.35v15423.23zm15423.23-15423.23v15423.23h15423.19v-15423.23zm30846.42 0v15423.23h15423.19v-15423.23zm30846.42 0v15423.23h15423.19v-15423.23zm30846.42 0v15423.23h15423.19v-15423.23zm30846.42 15423.23h-15423.23v15423.22h15423.23zm-30846.42 15423.22v-15423.22H108352.8v15423.22zm-30846.42 0v-15423.22H77506.38v15423.22zm-30846.42 0v-15423.22H46659.96v15423.22zm-30846.42 0v-15423.22H15813.54v15423.22zm77116.03-77116.13v15423.23h15423.23V77512.36z" style="fill:#ebebd2"/><path class="fil6 str0" d="M123776.03 77512.36v15423.23h15423.19V77512.36z"/></g><path class="str0" d="M31236.77 15819.45V396.23H15813.54v15423.22zM46659.96 396.23v15423.22h15423.23V396.23zm30846.42 0v15423.22h15423.23V396.23zm30846.42 0v15423.22h15423.23V396.23zm30846.42 0v15423.22h15423.23V396.23zm0 15423.22h-15423.19v15423.23h15423.19zm-15423.19 15423.23H108352.8v15423.23h15423.23zM108352.8 46665.91H92929.61v15423.22h15423.19zM92929.61 62089.13H77506.38v15423.23h15423.23zM77506.38 77512.36H62083.19v15423.23h15423.19zm-15423.19 30846.45V92935.59H46659.96v15423.22zm-15423.23 15423.23v-15423.23H31236.77v15423.23zm-15423.19 15423.23v-15423.23H15813.54v15423.23zm-15423.23 15423.22v-15423.22H390.35v15423.22zm15423.23-15423.22v15423.22h15423.19v-15423.22zm15423.19 0h15423.23v-15423.23H46659.96zm15423.23-15423.23h15423.19v-15423.23H62083.19zm15423.19-15423.23h15423.23V92935.59H77506.38zm15423.23-15423.22h15423.19V77512.36H92929.61zm15423.19-15423.23h15423.23V62089.13H108352.8zm15423.23-15423.23h15423.19V46665.91h-15423.19zm15423.19-15423.22h15423.23V31242.68h-15423.23zm15423.23 15423.22h-15423.23v15423.23h15423.23zm-15423.23 15423.23h-15423.19v15423.23h15423.19zm-15423.19 15423.23H108352.8v15423.22h15423.23zm-15423.23 15423.22H92929.61v15423.23h15423.19zm-15423.19 15423.23H77506.38v15423.23h15423.23zm-15423.23 15423.23H62083.19v15423.22h15423.19zm15423.23 0v15423.22h15423.19v-15423.22zm15423.19-15423.23v15423.23h15423.23v-15423.23zm15423.23-15423.23v15423.23h15423.19v-15423.23zm15423.19-15423.22v15423.22h15423.23V92935.59zm15423.23 30846.45h-15423.23v15423.23h15423.23zm-15423.23 15423.23h-15423.19v15423.22h15423.19zM15813.54 123782.04v-15423.23H390.35v15423.23zm0-15423.23h15423.23V92935.59H15813.54zm15423.23-15423.22h15423.19V77512.36H31236.77zm15423.19-15423.23h15423.23V62089.13H46659.96zm15423.23-15423.23h15423.19V46665.91H62083.19zm30846.42-30846.45h15423.19V15819.45H92929.61zm0 15423.23V31242.68H77506.38v15423.23zM77506.38 31242.68V15819.45H62083.19v15423.23zM62083.19 46665.91V31242.68H46659.96v15423.23zM46659.96 62089.13V46665.91H31236.77v15423.22zM31236.77 77512.36V62089.13H15813.54v15423.23zM15813.54 92935.59V77512.36H390.35v15423.23zM390.35 62089.13h15423.19V46665.91H390.35zm15423.19-15423.22h15423.23V31242.68H15813.54zm15423.23-15423.23h15423.19V15819.45H31236.77zm-15423.23 0V15819.45H390.35v15423.23z" style="fill:#2abd36"/><path class="str0" d="M390.35 15819.45h15423.19V396.23H390.35zm15423.19 0v15423.23h15423.23V15819.45zm15423.23 15423.23v15423.23h15423.19V31242.68zm15423.19 15423.23v15423.22h15423.23V46665.91zm30846.42 15423.22H62083.19v15423.23h15423.19zm15423.23 15423.23H77506.38v15423.23h15423.23zm15423.19 15423.23H92929.61v15423.22h15423.19zm15423.23 15423.22H108352.8v15423.23h15423.23zm15423.19 15423.23h-15423.19v15423.23h15423.19zm15423.23 15423.23h-15423.23v15423.22h15423.23zm-30846.42 15423.22v-15423.22H108352.8v15423.22zm-30846.42-15423.22h15423.19v-15423.23H92929.61zm-15423.23-15423.23h15423.23v-15423.23H77506.38zm-15423.19-15423.23h15423.19V92935.59H62083.19zM46659.96 92935.59h15423.23V77512.36H46659.96zM31236.77 77512.36h15423.19V62089.13H31236.77zM15813.54 62089.13h15423.23V46665.91H15813.54zM390.35 46665.91h15423.19V31242.68H390.35zm15423.19 15423.22H390.35v15423.23h15423.19zm15423.23 15423.23H15813.54v15423.23h15423.23zm15423.19 15423.23H31236.77v15423.22h15423.19zm15423.23 15423.22H46659.96v15423.23h15423.23zm15423.19 15423.23H62083.19v15423.23h15423.19zm15423.23 15423.23H77506.38v15423.22h15423.23zm-30846.42 15423.22v-15423.22H46659.96v15423.22zm-15423.23-15423.22v-15423.23H31236.77v15423.23zm-15423.19-15423.23v-15423.23H15813.54v15423.23zm-15423.23-15423.23V92935.59H390.35v15423.22zm0 15423.23H390.35v15423.23h15423.19zm15423.23 15423.23H15813.54v15423.22h15423.23zm107962.45-30846.46v15423.23h15423.23v-15423.23zm-15423.19 0h15423.19V92935.59h-15423.19zM108352.8 92935.59h15423.23V77512.36H108352.8zM92929.61 77512.36h15423.19V62089.13H92929.61zM77506.38 62089.13h15423.23V46665.91H77506.38zM62083.19 46665.91h15423.19V31242.68H62083.19zM46659.96 31242.68h15423.23V15819.45H46659.96zM31236.77 15819.45h15423.19V396.23H31236.77zM62083.19 396.23v15423.22h15423.19V396.23zm30846.42 15423.22H77506.38v15423.23h15423.23zm15423.19 15423.23H92929.61v15423.23h15423.19zm15423.23 15423.23H108352.8v15423.22h15423.23zm15423.19 15423.22h-15423.19v15423.23h15423.19zm15423.23 15423.23h-15423.23v15423.23h15423.23zm-15423.23-15423.23h15423.23V46665.91h-15423.23zm-15423.19-15423.22h15423.19V31242.68h-15423.19zM108352.8 31242.68h15423.23V15819.45H108352.8zM92929.61 15819.45h15423.19V396.23H92929.61zM123776.03 396.23v15423.22h15423.19V396.23zm15423.19 15423.22v15423.23h15423.23V15819.45z" style="fill:#fcfcc3"/><path class="fil0" style="stroke:#2b2a29;stroke-width:352.78;stroke-miterlimit:22.9256" d="M418.25 318.32h154204.17v154204.34H418.25z"/></g></svg>