<svg xmlns="http://www.w3.org/2000/svg" xml:space="preserve" width="452mm" height="452mm" style="shape-rendering:geometricPrecision;text-rendering:geometricPrecision;image-rendering:optimizeQuality;fill-rule:evenodd;clip-rule:evenodd" viewBox="0 0 45200 45200"><defs><style>.str0{stroke:#000;stroke-width:70.56;stroke-miterlimit:22.9256}.fil0{fill:none}</style></defs><g id="Слой_x0020_1"><g id="_2547386495936"><path class="fil0 str0" d="M28.63 34.6h4515.55v4515.55H28.63z"/><path class="fil0 str0" d="M28.63 4550.15h4515.55V9065.7H28.63zm0 4515.55h4515.55v4515.55H28.63zm0 4515.55h4515.55v4515.55H28.63zm0 4515.55h4515.55v4515.55H28.63zm0 4515.55h4515.55v4515.55H28.63zm0 4515.55h4515.55v4515.55H28.63zm0 4515.55h4515.55V36159H28.63zm0 4515.55h4515.55v4515.55H28.63zm0 4515.55h4515.55v4515.55H28.63zM4544.18 34.6h4515.55v4515.55H4544.18z"/><path class="fil0 str0" d="M4544.18 4550.15h4515.55V9065.7H4544.18zm0 4515.55h4515.55v4515.55H4544.18zm0 4515.55h4515.55v4515.55H4544.18zm0 4515.55h4515.55v4515.55H4544.18zm0 4515.55h4515.55v4515.55H4544.18zm0 4515.55h4515.55v4515.55H4544.18zm0 4515.55h4515.55V36159H4544.18zm0 4515.55h4515.55v4515.55H4544.18zm0 4515.55h4515.55v4515.55H4544.18zM9059.73 34.6h4515.55v4515.55H9059.73z"/><path class="fil0 str0" d="M9059.73 4550.15h4515.55V9065.7H9059.73zm0 4515.55h4515.55v4515.55H9059.73zm0 4515.55h4515.55v4515.55H9059.73zm0 4515.55h4515.55v4515.55H9059.73zm0 4515.55h4515.55v4515.55H9059.73zm0 4515.55h4515.55v4515.55H9059.73zm0 4515.55h4515.55V36159H9059.73zm0 4515.55h4515.55v4515.55H9059.73zm0 4515.55h4515.55v4515.55H9059.73zM13575.28 34.6h4515.55v4515.55h-4515.55z"/><path class="fil0 str0" d="M13575.28 4550.15h4515.55V9065.7h-4515.55zm0 4515.55h4515.55v4515.55h-4515.55zm0 4515.55h4515.55v4515.55h-4515.55zm0 4515.55h4515.55v4515.55h-4515.55zm0 4515.55h4515.55v4515.55h-4515.55zm0 4515.55h4515.55v4515.55h-4515.55zm0 4515.55h4515.55V36159h-4515.55zm0 4515.55h4515.55v4515.55h-4515.55zm0 4515.55h4515.55v4515.55h-4515.55zM18090.83 34.6h4515.55v4515.55h-4515.55z"/><path class="fil0 str0" d="M18090.83 4550.15h4515.55V9065.7h-4515.55zm0 4515.55h4515.55v4515.55h-4515.55zm0 4515.55h4515.55v4515.55h-4515.55zm0 4515.55h4515.55v4515.55h-4515.55zm0 4515.55h4515.55v4515.55h-4515.55zm0 4515.55h4515.55v4515.55h-4515.55zm0 4515.55h4515.55V36159h-4515.55zm0 4515.55h4515.55v4515.55h-4515.55zm0 4515.55h4515.55v4515.55h-4515.55zM22606.38 34.6h4515.55v4515.55h-4515.55z"/><path class="fil0 str0" d="M22606.38 4550.15h4515.55V9065.7h-4515.55zm0 4515.55h4515.55v4515.55h-4515.55zm0 4515.55h4515.55v4515.55h-4515.55zm0 4515.55h4515.55v4515.55h-4515.55zm0 4515.55h4515.55v4515.55h-4515.55zm0 4515.55h4515.55v4515.55h-4515.55zm0 4515.55h4515.55V36159h-4515.55zm0 4515.55h4515.55v4515.55h-4515.55zm0 4515.55h4515.55v4515.55h-4515.55zM27121.93 34.6h4515.55v4515.55h-4515.55z"/><path class="fil0 str0" d="M27121.93 4550.15h4515.55V9065.7h-4515.55zm0 4515.55h4515.55v4515.55h-4515.55zm0 4515.55h4515.55v4515.55h-4515.55zm0 4515.55h4515.55v4515.55h-4515.55zm0 4515.55h4515.55v4515.55h-4515.55zm0 4515.55h4515.55v4515.55h-4515.55zm0 4515.55h4515.55V36159h-4515.55zm0 4515.55h4515.55v4515.55h-4515.55zm0 4515.55h4515.55v4515.55h-4515.55zM31637.48 34.6h4515.55v4515.55h-4515.55z"/><path class="fil0 str0" d="M31637.48 4550.15h4515.55V9065.7h-4515.55zm0 4515.55h4515.55v4515.55h-4515.55zm0 4515.55h4515.55v4515.55h-4515.55zm0 4515.55h4515.55v4515.55h-4515.55zm0 4515.55h4515.55v4515.55h-4515.55zm0 4515.55h4515.55v4515.55h-4515.55zm0 4515.55h4515.55V36159h-4515.55zm0 4515.55h4515.55v4515.55h-4515.55zm0 4515.55h4515.55v4515.55h-4515.55zM36153.03 34.6h4515.55v4515.55h-4515.55z"/><path class="fil0 str0" d="M36153.03 4550.15h4515.55V9065.7h-4515.55zm0 4515.55h4515.55v4515.55h-4515.55zm0 4515.55h4515.55v4515.55h-4515.55zm0 4515.55h4515.55v4515.55h-4515.55zm0 4515.55h4515.55v4515.55h-4515.55zm0 4515.55h4515.55v4515.55h-4515.55zm0 4515.55h4515.55V36159h-4515.55zm0 4515.55h4515.55v4515.55h-4515.55zm0 4515.55h4515.55v4515.55h-4515.55zM40668.58 34.6h4515.55v4515.55h-4515.55z"/><path class="fil0 str0" d="M40668.58 4550.15h4515.55V9065.7h-4515.55zm0 4515.55h4515.55v4515.55h-4515.55zm0 4515.55h4515.55v4515.55h-4515.55zm0 4515.55h4515.55v4515.55h-4515.55zm0 4515.55h4515.55v4515.55h-4515.55zm0 4515.55h4515.55v4515.55h-4515.55zm0 4515.55h4515.55V36159h-4515.55zm0 4515.55h4515.55v4515.55h-4515.55zm0 4515.55h4515.55v4515.55h-4515.55z"/><path class="str0" d="M4544.19 45190.11v-4515.55H28.64v4515.55zm4515.55-4515.55v4515.55h4515.55v-4515.55zm9031.1 0v4515.55h4515.55v-4515.55zm9031.1 0v4515.55h4515.55v-4515.55zm9031.1 0v4515.55h4515.54v-4515.55zm-27093.3 0v-4515.55H4544.19v4515.55zm4515.55-4515.55v4515.55h4515.55v-4515.55zm9031.1 0v4515.55h4515.55v-4515.55zm9031.1 0v4515.55h4515.55v-4515.55zm9031.09 0v4515.55h4515.56v-4515.55zm-36124.39 0v-4515.55H28.64v4515.55zm4515.55-4515.55v4515.55h4515.55v-4515.55zm9031.1 0v4515.55h4515.55v-4515.55zm9031.1 0v4515.55h4515.55v-4515.55zm9031.1 0v4515.55h4515.55v-4515.55zm-27093.3 0v-4515.55H4544.19v4515.55zm4515.55-4515.55v4515.55h4515.55v-4515.55zm9031.1 0v4515.55h4515.55v-4515.55zm9031.1 0v4515.55h4515.55v-4515.55zm9031.1 0v4515.55h4515.55v-4515.55zm-36124.4 0v-4515.55H28.64v4515.55zm4515.55-4515.55v4515.55h4515.55v-4515.55zm9031.1 0v4515.55h4515.55v-4515.55zm9031.1 0v4515.55h4515.55v-4515.55zm9031.1 0v4515.55h4515.55v-4515.55zm-27093.3 0v-4515.55H4544.19v4515.55zm4515.55-4515.55v4515.55h4515.55v-4515.55zm9031.1 0v4515.55h4515.55v-4515.55zm9031.1 0v4515.55h4515.55v-4515.55zm9031.1 0v4515.55h4515.55v-4515.55zm-36124.4 0v-4515.55H28.64v4515.55zm4515.55-4515.55v4515.55h4515.55v-4515.55zm9031.1 0v4515.55h4515.55v-4515.55zm9031.1 0v4515.55h4515.55v-4515.55zm9031.1 0v4515.55h4515.55v-4515.55zm-27093.3 0V9065.71H4544.19v4515.55zm4515.55-4515.55v4515.55h4515.55V9065.71zm9031.1 0v4515.55h4515.55V9065.71zm9031.1 0v4515.55h4515.55V9065.71zm9031.09 0v4515.55h4515.56V9065.71zm-36124.39 0V4550.16H28.64v4515.55zm4515.55-4515.55v4515.55h4515.55V4550.16zm9031.1 0v4515.55h4515.55V4550.16zm9031.1 0v4515.55h4515.55V4550.16zm9031.1 0v4515.55h4515.54V4550.16zm-27093.3 0V34.61H4544.19v4515.55zM13575.29 34.61v4515.55h4515.55V34.61zm9031.1 0v4515.55h4515.55V34.61zm9031.1 0v4515.55h4515.55V34.61zm9031.09 0v4515.55h4515.56V34.61z" style="fill:#b58863"/><path class="str0" d="M9059.74 45190.11v-4515.55H4544.19v4515.55zm4515.55-4515.55v4515.55h4515.55v-4515.55zm9031.1 0v4515.55h4515.55v-4515.55zm9031.1 0v4515.55h4515.55v-4515.55zm9031.09 0v4515.55h4515.56v-4515.55zm-4515.54 0h4515.54v-4515.55h-4515.54zm-4515.55 0v-4515.55h-4515.55v4515.55zm-9031.1 0v-4515.55h-4515.55v4515.55zm-9031.1 0v-4515.55H9059.74v4515.55zm-9031.1 0v-4515.55H28.64v4515.55zm0-4515.55h4515.55v-4515.55H4544.19zm9031.1-4515.55v4515.55h4515.55v-4515.55zm9031.1 0v4515.55h4515.55v-4515.55zm9031.1 0v4515.55h4515.55v-4515.55zm9031.1 0v4515.55h4515.55v-4515.55zm-4515.55 0h4515.55v-4515.55h-4515.55zm-4515.55 0v-4515.55h-4515.55v4515.55zm-9031.1 0v-4515.55h-4515.55v4515.55zm-9031.1 0v-4515.55H9059.74v4515.55zm-9031.1 0v-4515.55H28.64v4515.55zm0-4515.55h4515.55v-4515.55H4544.19zm9031.1-4515.55v4515.55h4515.55v-4515.55zm9031.1 0v4515.55h4515.55v-4515.55zm9031.1 0v4515.55h4515.55v-4515.55zm9031.1 0v4515.55h4515.55v-4515.55zm-4515.55 0h4515.55v-4515.55h-4515.55zm-4515.55 0v-4515.55h-4515.55v4515.55zm-9031.1 0v-4515.55h-4515.55v4515.55zm-9031.1 0v-4515.55H9059.74v4515.55zm-9031.1 0v-4515.55H28.64v4515.55zm0-4515.55h4515.55v-4515.55H4544.19zm9031.1-4515.55v4515.55h4515.55v-4515.55zm9031.1 0v4515.55h4515.55v-4515.55zm9031.1 0v4515.55h4515.55v-4515.55zm9031.1 0v4515.55h4515.55v-4515.55zm-4515.55 0h4515.54V9065.71h-4515.54zm-4515.55 0V9065.71h-4515.55v4515.55zm-9031.1 0V9065.71h-4515.55v4515.55zm-9031.1 0V9065.71H9059.74v4515.55zm-9031.1 0V9065.71H28.64v4515.55zm0-4515.55h4515.55V4550.16H4544.19zm9031.1-4515.55v4515.55h4515.55V4550.16zm9031.1 0v4515.55h4515.55V4550.16zm9031.1 0v4515.55h4515.55V4550.16zm9031.09 0v4515.55h4515.56V4550.16zm-4515.54 0h4515.54V34.61h-4515.54zm-4515.55 0V34.61h-4515.55v4515.55zm-9031.1 0V34.61h-4515.55v4515.55zm-9031.1 0V34.61H9059.74v4515.55zm-9031.1 0V34.61H28.64v4515.55z" style="fill:#f0d9b5"/><path class="str0" d="M4544.19 40674.56H28.64v4515.55h4515.55zm4515.55 0v4515.55h4515.55v-4515.55zm9031.1 0v4515.55h4515.55v-4515.55zm9031.1 0v4515.55h4515.55v-4515.55zm9031.1 0v4515.55h4515.54v-4515.55zm4515.54-4515.55v4515.55h4515.56v-4515.55zm-4515.54 4515.55v-4515.55h-4515.55v4515.55zm-9031.1 0v-4515.55h-4515.55v4515.55zm-9031.1 0v-4515.55h-4515.55v4515.55zm-9031.1 0v-4515.55H4544.19v4515.55zm-4515.55-4515.55v-4515.55H28.64v4515.55zm4515.55-4515.55v4515.55h4515.55v-4515.55zm9031.1 0v4515.55h4515.55v-4515.55zm9031.1 0v4515.55h4515.55v-4515.55zm9031.1 0v4515.55h4515.55v-4515.55zm4515.55 0h4515.55v-4515.55h-4515.55zm-4515.55 0v-4515.55h-4515.55v4515.55zm-9031.1 0v-4515.55h-4515.55v4515.55zm-9031.1 0v-4515.55h-4515.55v4515.55zm-9031.1 0v-4515.55H4544.19v4515.55zm-4515.55-4515.55v-4515.55H28.64v4515.55zm4515.55-4515.55v4515.55h4515.55v-4515.55zm9031.1 0v4515.55h4515.55v-4515.55zm9031.1 0v4515.55h4515.55v-4515.55zm9031.1 0v4515.55h4515.55v-4515.55zm4515.55-4515.55v4515.55h4515.55v-4515.55zm-4515.55 4515.55v-4515.55h-4515.55v4515.55zm-9031.1 0v-4515.55h-4515.55v4515.55zm-9031.1 0v-4515.55h-4515.55v4515.55zm-9031.1 0v-4515.55H4544.19v4515.55zm-4515.55-4515.55v-4515.55H28.64v4515.55zm4515.55-4515.55v4515.55h4515.55v-4515.55zm9031.1 0v4515.55h4515.55v-4515.55zm9031.1 0v4515.55h4515.55v-4515.55zm9031.1 0v4515.55h4515.55v-4515.55zm4515.54-4515.55v4515.55h4515.56V9065.71zm-4515.54 4515.55V9065.71h-4515.55v4515.55zm-9031.1 0V9065.71h-4515.55v4515.55zm-9031.1 0V9065.71h-4515.55v4515.55zm-9031.1 0V9065.71H4544.19v4515.55zM4544.19 9065.71V4550.16H28.64v4515.55zm4515.55-4515.55v4515.55h4515.55V4550.16zm9031.1 0v4515.55h4515.55V4550.16zm9031.1 0v4515.55h4515.55V4550.16zm9031.1 0v4515.55h4515.54V4550.16zM40668.58 34.61v4515.55h4515.56V34.61zm-4515.54 4515.55V34.61h-4515.55v4515.55zm-9031.1 0V34.61h-4515.55v4515.55zm-9031.1 0V34.61h-4515.55v4515.55zm-9031.1 0V34.61H4544.19v4515.55z" style="fill:#ffc000"/><path class="str0" d="M4544.19 4550.16V34.61H28.64v4515.55zM9059.74 34.61v4515.55h4515.55V34.61zm9031.1 0v4515.55h4515.55V34.61zm9031.1 0v4515.55h4515.55V34.61zm9031.1 0v4515.55h4515.54V34.61zm4515.54 4515.55v4515.55h4515.56V4550.16zm-4515.54 4515.55V4550.16h-4515.55v4515.55zm-9031.1 0V4550.16h-4515.55v4515.55zm-9031.1 0V4550.16h-4515.55v4515.55zm-9031.1 0V4550.16H4544.19v4515.55zm-4515.55 4515.55V9065.71H28.64v4515.55zm4515.55-4515.55v4515.55h4515.55V9065.71zm9031.1 0v4515.55h4515.55V9065.71zm9031.1 0v4515.55h4515.55V9065.71zm9031.1 0v4515.55h4515.54V9065.71zm4515.55 4515.55v4515.55h4515.55v-4515.55zm-4515.55 4515.55v-4515.55h-4515.55v4515.55zm-9031.1 0v-4515.55h-4515.55v4515.55zm-9031.1 0v-4515.55h-4515.55v4515.55zm-9031.1 0v-4515.55H4544.19v4515.55zm-4515.55 4515.55v-4515.55H28.64v4515.55zm4515.55-4515.55v4515.55h4515.55v-4515.55zm9031.1 0v4515.55h4515.55v-4515.55zm9031.1 0v4515.55h4515.55v-4515.55zm9031.1 0v4515.55h4515.55v-4515.55zm4515.55 4515.55v4515.55h4515.55v-4515.55zm-4515.55 4515.55v-4515.55h-4515.55v4515.55zm-9031.1 0v-4515.55h-4515.55v4515.55zm-9031.1 0v-4515.55h-4515.55v4515.55zm-9031.1 0v-4515.55H4544.19v4515.55zm-4515.55 4515.55v-4515.55H28.64v4515.55zm4515.55-4515.55v4515.55h4515.55v-4515.55zm9031.1 0v4515.55h4515.55v-4515.55zm9031.1 0v4515.55h4515.55v-4515.55zm9031.1 0v4515.55h4515.55v-4515.55zm9031.1 4515.55h-4515.55v4515.55h4515.55zm-9031.1 4515.55v-4515.55h-4515.55v4515.55zm-9031.1 0v-4515.55h-4515.55v4515.55zm-9031.1 0v-4515.55h-4515.55v4515.55zm-9031.1 0v-4515.55H4544.19v4515.55zm-4515.55 4515.55v-4515.55H28.64v4515.55zm4515.55-4515.55v4515.55h4515.55v-4515.55zm9031.1 0v4515.55h4515.55v-4515.55zm9031.1 0v4515.55h4515.55v-4515.55zm9031.1 0v4515.55h4515.54v-4515.55zm4515.54 4515.55v4515.55h4515.56v-4515.55zm-4515.54 4515.55v-4515.55h-4515.55v4515.55zm-9031.1 0v-4515.55h-4515.55v4515.55zm-9031.1 0v-4515.55h-4515.55v4515.55zm-9031.1 0v-4515.55H4544.19v4515.55z" style="fill:#fff"/></g><path class="fil0" style="stroke:#2b2b2a;stroke-width:176.39;stroke-miterlimit:22.9256" d="M28.65 34.61H45184.1v45155.5H28.65z"/></g></svg>