<svg xmlns="http://www.w3.org/2000/svg" width="177.17" height="177.17" shape-rendering="geometricPrecision" image-rendering="optimizeQuality" fill-rule="evenodd" clip-rule="evenodd" viewBox="0 0 50 50"><defs><linearGradient gradientTransform="translate(82.382 11.603) scale(.56086)" id="a" x1="21.253" y1="37.22" x2="77.76" y2="37.36" gradientUnits="userSpaceOnUse"><stop stop-color="#fff"/><stop offset="1" stop-color="#fff" stop-opacity="0"/></linearGradient></defs><path d="M25.018 46.45H11.624a13.144 13.144 0 0 1-.99-5.04c0-2.975.863-5.644 2.598-8.02 1.736-2.365 3.971-4.054 6.697-5.068a6.828 6.828 0 0 1-2.862-2.398c-.737-1.071-1.1-2.283-1.1-3.634 0-1.689.575-3.156 1.735-4.392 1.152-1.244 2.574-1.961 4.267-2.151h6.087c1.693.19 3.116.906 4.267 2.151 1.16 1.236 1.736 2.703 1.736 4.392 0 1.351-.373 2.563-1.126 3.634a7.036 7.036 0 0 1-2.862 2.398c2.726 1.014 4.96 2.703 6.697 5.068 1.736 2.373 2.599 5.04 2.599 8.02 0 1.739-.322 3.42-.965 5.04H25.007" style="fill:#1f1a17;stroke-width:1"/><g style="stroke-width:.56442964;stroke-miterlimit:4;stroke-dasharray:none"><g style="stroke:#1f1a17;stroke-width:1.00635803;stroke-miterlimit:4;stroke-dasharray:none"><path style="fill:#1f1a17;stroke-width:1.00635803;stroke-miterlimit:4;stroke-dasharray:none" d="M44.541 14.723c-.94 0-1.744-.33-2.405-.982-.66-.652-.991-1.448-.991-2.396 0-.923.33-1.719.991-2.388.66-.677 1.465-1.01 2.405-1.01a3.2 3.2 0 0 1 2.388 1.01c.66.669.991 1.465.991 2.388 0 .948-.33 1.744-.991 2.396a3.278 3.278 0 0 1-2.388.982zm-4.31 25.025c-.813.711-2.633 1.304-5.461 1.786-2.828.474-6.087.72-9.77.72-3.751 0-7.05-.254-9.898-.745-2.845-.499-4.64-1.118-5.385-1.863l1.341-4.753-2.616-4.617-2.145-15.501 1.211-.474 7.593 12.885c1.19-.566 1.258-.777 2.483-2.008l3.371 1.788 3.148-16.187h1.719l3.189 16.205c1.576-.258 2.46-1.341 3.486-1.828.645.762 1.44 1.937 2.084 2.324l7.835-13.204 1.16.542-2.057 15.359-2.604 3.994 1.317 5.58zM5.399 14.725c-.94 0-1.736-.33-2.388-.982-.652-.652-.982-1.448-.982-2.396 0-.923.33-1.719.982-2.388.652-.677 1.448-1.01 2.388-1.01.948 0 1.744.33 2.413 1.01.66.669.991 1.465.991 2.388 0 .948-.33 1.744-.991 2.396a3.323 3.323 0 0 1-2.413.982zm19.55-3.971c-.94 0-1.744-.33-2.396-.991-.652-.66-.974-1.465-.974-2.405 0-.931.322-1.727.974-2.388.652-.66 1.456-.991 2.396-.991.923 0 1.727.33 2.396.991.669.66.999 1.456.999 2.388 0 .94-.33 1.744-.999 2.405-.669.66-1.473.991-2.396.991z" transform="translate(10.723 -.507) scale(.57168)"/></g><path d="M104.22 31.41c-.77-.28-1.852-.507-3.248-.688-1.396-.18-2.934-.27-4.625-.27-1.652 0-3.162.084-4.537.256-1.372.17-2.455.394-3.244.674l.699 1.263c.779-.228 1.79-.395 3.034-.499 1.24-.1 2.597-.152 4.074-.152 1.477 0 2.84.052 4.089.152 1.253.104 2.27.276 3.049.513l.707-1.25m-.613 4.39-.413-1.642c-4.658-.73-9.077-1-13.61 0l-.442 1.658c1.761-.537 4.174-.808 7.246-.808 1.472 0 2.845.077 4.103.224 1.263.147 2.303.337 3.115.57" style="fill:url(#a);stroke-width:.56442964;stroke-miterlimit:4;stroke-dasharray:none" transform="translate(-73.178 -14.886) scale(1.01929)"/></g></svg>