<svg xmlns="http://www.w3.org/2000/svg" xmlns:xlink="http://www.w3.org/1999/xlink" width="177.17" height="177.17" shape-rendering="geometricPrecision" image-rendering="optimizeQuality" fill-rule="evenodd" clip-rule="evenodd" viewBox="0 0 50 50"><defs><linearGradient id="a"><stop style="stop-color:#fff;stop-opacity:1" offset="0"/><stop style="stop-color:#b2b0af;stop-opacity:1" offset="1"/></linearGradient><linearGradient xlink:href="#a" id="b" x1="45.914" y1="64.792" x2="71.993" y2="64.792" gradientUnits="userSpaceOnUse"/><linearGradient xlink:href="#a" id="c" x1="5.487" y1="40.085" x2="24.274" y2="40.085" gradientUnits="userSpaceOnUse"/></defs><g style="display:inline;opacity:1;stroke:#1f1a17;stroke-width:2.57585239;stroke-miterlimit:4;stroke-dasharray:none;stroke-opacity:1"><path d="M35.432 35.703a3.915 4.09 0 0 1-3.915 4.09 3.915 4.09 0 0 1-3.915-4.09 3.915 4.09 0 0 1 3.915-4.09 3.915 4.09 0 0 1 3.915 4.09z" style="opacity:1;fill:#1f1a17;stroke:#1f1a17;stroke-width:2.57585239;stroke-linejoin:round;stroke-miterlimit:4;stroke-dasharray:none;stroke-opacity:1;paint-order:stroke fill markers;fill-opacity:1" transform="translate(-10.513 -12.736) scale(.65737)"/><path d="M57.938 28.222a3.915 4.09 0 0 1-3.915 4.09 3.915 4.09 0 0 1-3.915-4.09 3.915 4.09 0 0 1 3.915-4.09 3.915 4.09 0 0 1 3.915 4.09z" style="opacity:1;fill:#1f1a17;fill-opacity:1;stroke:#1f1a17;stroke-width:2.57585239;stroke-linejoin:round;stroke-miterlimit:4;stroke-dasharray:none;stroke-opacity:1;paint-order:stroke fill markers" transform="translate(-10.513 -12.736) scale(.65737)"/><path d="M80.025 35.703a3.915 4.09 0 0 1-3.915 4.09 3.915 4.09 0 0 1-3.916-4.09 3.915 4.09 0 0 1 3.916-4.09 3.915 4.09 0 0 1 3.915 4.09z" style="opacity:1;fill:#1f1a17;stroke:#1f1a17;stroke-width:2.57585239;stroke-linejoin:round;stroke-miterlimit:4;stroke-dasharray:none;stroke-opacity:1;paint-order:stroke fill markers;fill-opacity:1" transform="translate(-10.513 -12.736) scale(.65737)"/><path d="m54.016 32.893-1.032.783-3.204 14.757-.63.28-12.335-9.116-1.6 1.524 5.734 10.906c-.487 3.999-1.014 4.974-2.759 8.48 5.372-2.403 10.61-3.642 15.826-3.76 5.215.118 10.454 1.357 15.826 3.76-1.745-3.506-2.272-4.481-2.76-8.48l5.734-10.906-1.6-1.524-12.335 9.116-.629-.28-3.204-14.757zm-16.07 39.829c-2.229 3.62-5.588 3.54-8.686 4.88-6.788 4.034-6.916 6.27-9.579 10.929 6.405-1.807 2.708 2.523 4.833 2.664 3.474-1.072 4.168-6.57 6.873-7.884 4.09-1.986 14.484-2.64 13.006-16.583.15 2.719-.236 6.634-1.019 9.125 3.45.684 7.876 1.279 10.62 1.279a20.173 20.173 0 0 0 .057 0c2.745 0 7.172-.595 10.62-1.28-.782-2.49-1.167-6.405-1.018-9.124-1.479 13.944 8.915 14.597 13.006 16.583 2.704 1.314 3.399 6.812 6.873 7.884 2.125-.141-1.572-4.471 4.833-2.664-2.663-4.66-2.791-6.895-9.58-10.928-3.097-1.342-6.457-1.26-8.685-4.88-5.291-3.615-10.675-5.198-16.077-5.338-5.402.14-10.786 1.723-16.077 5.337z" style="fill:#1f1a17;fill-opacity:1;stroke:#1f1a17;stroke-width:2.57585239;stroke-linecap:butt;stroke-linejoin:round;stroke-miterlimit:4;stroke-dasharray:none;stroke-opacity:1" transform="translate(-10.513 -12.736) scale(.65737)"/><path style="fill:url(#b);fill-opacity:1;stroke:#1f1a17;stroke-width:2.57585239;stroke-linecap:butt;stroke-linejoin:miter;stroke-miterlimit:4;stroke-dasharray:none;stroke-opacity:1" d="m38.244 61.176-.07 10.168c5.144-2.52 10.527-3.642 15.831-3.624 5.304-.018 10.688 1.104 15.832 3.624l-.07-10.168c-6.193-3.407-11.164-5.155-15.762-5.378-4.597.223-9.568 1.97-15.761 5.378z" transform="translate(-10.513 -12.736) scale(.65737)"/><path d="m54.018 58.94-3.88 2.504 3.913 2.902 3.5-2.96zm16.037 3.424-4.977 1.128 5.117 4.001m-32.149-5.129 4.977 1.128-5.117 4.001" style="fill:none;stroke:#1f1a17;stroke-width:2.57585239;stroke-linecap:butt;stroke-linejoin:miter;stroke-miterlimit:4;stroke-dasharray:none;stroke-opacity:1" transform="translate(-10.513 -12.736) scale(.65737)"/></g><path style="fill:none;stroke:url(#c);stroke-width:.84664446;stroke-linecap:round;stroke-linejoin:round;stroke-miterlimit:4;stroke-dasharray:none;stroke-opacity:1" d="M5.827 46.816c2.38-2.533 2.029-3.313 3.425-4.693 1.442-1.424 3.952-1.559 5.684-2.61 4.017-2.438 3.337-5.191 3.337-5.191M44.28 46.816c-2.381-2.533-2.029-3.313-3.426-4.693-1.441-1.424-3.951-1.559-5.684-2.61-4.016-2.438-3.336-5.191-3.336-5.191"/></svg>