<svg xmlns="http://www.w3.org/2000/svg" width="177.17" height="177.17" shape-rendering="geometricPrecision" image-rendering="optimizeQuality" fill-rule="evenodd" clip-rule="evenodd" viewBox="0 0 50 50"><defs><linearGradient id="a" gradientUnits="userSpaceOnUse" x1="21.13" y1="37.35" x2="77.76" y2="37.469" gradientTransform="matrix(1 0 0 .97324 0 1.243)"><stop stop-color="#fff"/><stop offset="1" stop-color="#fff" stop-opacity="0"/></linearGradient><linearGradient id="b" x1="21.253" y1="37.22" x2="77.64" y2="37.35" gradientUnits="userSpaceOnUse"><stop stop-color="#fff"/><stop offset="1" stop-color="#fff" stop-opacity="0"/></linearGradient></defs><path d="M25 46.45H11.606a13.144 13.144 0 0 1-.991-5.04c0-2.975.864-5.644 2.599-8.02 1.736-2.365 3.971-4.054 6.697-5.068a6.828 6.828 0 0 1-2.862-2.398c-.737-1.071-1.101-2.283-1.101-3.634 0-1.689.576-3.156 1.736-4.392 1.152-1.244 2.574-1.961 4.267-2.151h6.086c1.693.19 3.116.906 4.267 2.151 1.16 1.236 1.736 2.703 1.736 4.392 0 1.351-.373 2.563-1.126 3.634a7.036 7.036 0 0 1-2.862 2.398c2.726 1.014 4.961 2.703 6.697 5.068 1.736 2.373 2.599 5.04 2.599 8.02 0 1.739-.322 3.42-.965 5.04H24.989" style="fill:#1f1a17"/><path d="M25 44.808h12.175c.347-1.154.525-2.291.525-3.403 0-2.513-.711-4.787-2.142-6.831-1.431-2.044-3.277-3.552-5.52-4.516-1.584-.62-1.643-.659-1.643-1.739 0-.849.559-1.475 1.668-1.879 1.532-1.047 2.303-2.431 2.303-4.153 0-1.244-.432-2.324-1.287-3.263-.864-.931-1.905-1.467-3.124-1.615h-5.91a4.901 4.901 0 0 0-3.133 1.615c-.855.939-1.279 2.02-1.279 3.263 0 1.722.77 3.106 2.303 4.153 1.109.412 1.668 1.046 1.668 1.879 0 1.079-.067 1.118-1.668 1.739-2.244.964-4.081 2.472-5.503 4.516-1.422 2.044-2.134 4.318-2.134 6.831 0 1.195.178 2.324.525 3.403h12.175" style="fill:url(#a)"/><g style="stroke:#1f1a17;stroke-width:.88007396;stroke-miterlimit:4;stroke-dasharray:none"><path d="M44.541 14.723c-.94 0-1.744-.33-2.405-.982-.66-.652-.991-1.448-.991-2.396 0-.923.33-1.719.991-2.388.66-.677 1.465-1.01 2.405-1.01a3.2 3.2 0 0 1 2.388 1.01c.66.669.991 1.465.991 2.388 0 .948-.33 1.744-.991 2.396a3.278 3.278 0 0 1-2.388.982zm-4.31 25.025c-7.531-3.44-25.104-2.289-30.514-.102l1.341-4.753-2.616-4.617-2.145-15.501 1.211-.474 7.593 12.885c1.19-.566 1.258-.777 2.483-2.008l3.371 1.788 3.148-16.187h1.719l3.204 16.122c1.79-.215 2.444-1.258 3.471-1.745.645.762 1.464 1.875 2.108 2.262l7.811-13.142 1.16.542-2.057 15.359-2.604 3.994 1.317 5.58zM5.399 14.725c-.94 0-1.736-.33-2.388-.982-.652-.652-.982-1.448-.982-2.396 0-.923.33-1.719.982-2.388.652-.677 1.448-1.01 2.388-1.01.948 0 1.744.33 2.413 1.01.66.669.991 1.465.991 2.388 0 .948-.33 1.744-.991 2.396a3.323 3.323 0 0 1-2.413.982zm19.55-3.971c-.94 0-1.744-.33-2.396-.991-.652-.66-.974-1.465-.974-2.405 0-.931.322-1.727.974-2.388.652-.66 1.456-.991 2.396-.991.923 0 1.727.33 2.396.991.669.66.999 1.456.999 2.388 0 .94-.33 1.744-.999 2.405-.669.66-1.473.991-2.396.991z" style="fill:#1f1a17;stroke-width:.88007396;stroke-miterlimit:4;stroke-dasharray:none" transform="translate(10.683 -.548) scale(.57323)"/><path d="M38.22 38.733c-3.02-1.253-7.417-1.88-13.166-1.88-5.876 0-10.312.643-13.327 1.93 9.606-2.464 16.306-2.09 26.492-.051zM24.953 9.01c1.109 0 1.66-.559 1.66-1.659 0-1.092-.55-1.643-1.66-1.643-1.092 0-1.634.55-1.634 1.643 0 1.101.542 1.659 1.634 1.659zm13.242 23.487 1.617-2.853a6.428 6.428 0 0 1-2.43.474c-2.218 0-3.988-.897-5.309-2.701-.991.821-2.1 1.236-3.327 1.236-1.583 0-2.853-.618-3.793-1.863-1.058 1.16-2.32 1.744-3.793 1.744-1.194 0-2.286-.406-3.277-1.219-1.389 1.77-3.183 2.65-5.385 2.65a7.04 7.04 0 0 1-2.506-.466l1.736 2.972c3.209-.923 7.62-1.389 13.225-1.389 5.706 0 10.118.474 13.242 1.414zm-11.11-5.927-2.108-12.133-2.108 11.989c.051-.034.161-.119.347-.254.381-.745.957-1.118 1.736-1.118.847 0 1.389.372 1.634 1.118.102.102.271.237.5.398zm-13.368 1.516-5.334-9.203 1.363 8.382c.94.66 1.863.991 2.752.991.347 0 .754-.059 1.219-.169zm22.394.119c.381.119.804.178 1.27.178 1.01 0 1.947-.313 2.828-.94l1.363-8.585zm1.747 9.019-1.002-3.572c-8.143-1.27-15.896-1.67-23.783 0l-1.092 3.919c3.073-.931 8.004-1.838 13.381-1.838 5.241 0 9.32.577 12.496 1.49zM5.405 12.982c1.109 0 1.668-.55 1.668-1.643 0-1.109-.559-1.659-1.668-1.659-1.084 0-1.634.55-1.634 1.659 0 1.092.55 1.643 1.634 1.643zm39.14 0c1.092 0 1.642-.55 1.642-1.643 0-1.109-.55-1.659-1.642-1.659-1.101 0-1.66.55-1.66 1.659 0 1.092.559 1.643 1.66 1.643z" style="fill:url(#b);stroke-width:.88007396;stroke-miterlimit:4;stroke-dasharray:none" transform="translate(10.683 -.548) scale(.57323)"/></g></svg>