<svg width="590" height="590" fill="none" xmlns="http://www.w3.org/2000/svg"><path d="M373.109 445.107c-3.536 2.274-7.873 3.084-13.609 3.893H234.761c-6.151 0-12.392-.432-18.141-2.618-3.013-1.145-5.397-2.504-7.27-4.438-4.353-4.495-4.352-11.405-4.35-17.688V405.67c0-5.06.814-10.197 3.47-14.504a31.27 31.27 0 0 1 1.988-2.867c8.965-11.427 21.042-21.837 21.042-36.361 0-10.611-5.383-20.327-13.519-27.139-5.87-4.915-10.76-9.862-15.567-15.749-9.164-11.225-12.914-25.763-12.914-40.254v-14.81c0-12.461 2.865-24.883 9.579-35.38 11.425-17.861 23.492-30.391 42.36-43.989 11.524-8.306 25.602-12.117 39.808-12.117h25.272c12.139 0 24.229 2.754 34.607 9.05 23.514 14.266 36.243 27.778 47.874 48.15 5.633 9.866 8 21.203 8 32.565v14.119c0 15.962-4.834 31.843-15.313 43.884-4.416 5.074-9.16 9.901-15.134 14.988-7.595 6.467-12.553 15.662-12.553 25.638 0 14.854 13.074 25.516 21.944 37.432a39.445 39.445 0 0 1 1.862 2.75c2.723 4.392 3.694 9.605 3.694 14.773v13.093c0 9.616-.304 20.964-8.391 26.165z" fill="#000" stroke="#000" stroke-width="15"/><path d="M77.432 472h123.075a10 10 0 0 0 6.888-2.75l14.21-13.5a10 10 0 0 1 6.888-2.75h129.014a10 10 0 0 1 6.888 2.75l14.21 13.5a10 10 0 0 0 6.888 2.75H509c5.523 0 10 4.477 10 10v39.5c0 5.523-4.477 10-10 10H335.468c-3.407 0-6.58-1.735-8.419-4.603l-19.098-29.794a10.002 10.002 0 0 0-8.419-4.603h-11.505a9.998 9.998 0 0 0-8.467 4.681l-18.62 29.638a9.998 9.998 0 0 1-8.467 4.681H77.161c-5.55 0-10.038-4.519-10-10.069l.271-39.5c.038-5.495 4.504-9.931 10-9.931z" fill="#000"/><circle cx="293.113" cy="128.613" r="27.613" fill="#000" stroke="#000" stroke-width="20"/><rect x="227" y="396" width="130" height="44" rx="22" fill="#fff"/><path fill-rule="evenodd" clip-rule="evenodd" d="m293.5 202 42.5 54.393-42.5 60.472-42.5-60.472L293.5 202z" fill="#fff"/><circle cx="293.5" cy="258.5" r="17.5" fill="#000"/></svg>