<svg width="590" height="590" fill="none" xmlns="http://www.w3.org/2000/svg"><path fill-rule="evenodd" clip-rule="evenodd" d="m237 390.371 118 .616c22.951.127 36.669 4.891 55.5 18.013l54.846 43.611-.389 70.389-337.812-1.983.005-72.108L180.5 409c18.717-12.376 34.062-18.753 56.5-18.629z" fill="#000"/><path d="M120.454 364.982a426.603 426.603 0 0 1-12.017-12.804C94.902 337.178 88 317.425 88 297.221c0-12.978 2.583-26.042 9.986-36.702 5.662-8.153 12.441-16.04 20.167-23.337C133.091 223.073 153.893 218 174.439 218c34.37 0 66.497 16.333 89.201 42.135 10.176 11.564 20.714 23.17 33.36 37.865 12.973-13.474 23.323-24.359 32.863-35.193C353.474 235.993 386.798 218 422.526 218c18.5 0 37.662 3.883 51.607 16.042 9.872 8.608 17.382 17.964 23.284 27.437 6.337 10.171 8.583 22.226 8.583 34.208 0 21.082-8 41.399-22.163 57.014-3.661 4.036-7.141 7.85-10.651 11.595C454.971 383.727 428.821 393 402.188 393H191.593c-26.501 0-52.597-9.085-71.139-28.018z" fill="#fff"/><path d="M297 298c-12.646-14.695-23.184-26.301-33.36-37.865C240.936 234.333 208.809 218 174.439 218c-20.546 0-41.348 5.073-56.286 19.182-7.726 7.297-14.505 15.184-20.167 23.337C90.583 271.179 88 284.243 88 297.221c0 20.204 6.902 39.957 20.437 54.957a426.603 426.603 0 0 0 12.017 12.804C138.996 383.915 165.092 393 191.593 393H297m0-95v95m0-95c12.973-13.474 23.323-24.359 32.863-35.193C353.474 235.993 386.798 218 422.526 218c18.5 0 37.662 3.883 51.607 16.042 9.872 8.608 17.382 17.964 23.284 27.437 6.337 10.171 8.583 22.226 8.583 34.208 0 21.082-8 41.399-22.163 57.014-3.661 4.036-7.141 7.85-10.651 11.595C454.971 383.727 428.821 393 402.188 393H297" stroke="#000" stroke-width="30"/><path d="M239.5 177.908v12.666c0 .948.09 1.908.278 2.838 6.442 31.852 20.995 47.362 47.822 67.529a14.607 14.607 0 0 0 17.708-.127c25.988-20.103 40.481-35.614 46.914-67.401.188-.931.278-1.891.278-2.84v-12.665c0-2.243-.491-4.467-1.516-6.462-10.338-20.125-25.573-35.989-46.772-50.42a13.939 13.939 0 0 0-15.504-.127c-21.997 14.465-37.322 30.363-47.692 50.547-1.026 1.995-1.516 4.219-1.516 6.462z" fill="#fff" stroke="#000" stroke-width="25"/><path clip-rule="evenodd" d="M237 399.5h118c22.792.126 20.207-1.598 38.611 11.229.252.175.529.335.809.461L436 430c8.823 4.01 20.862 13.81 25.282 17.533a4.862 4.862 0 0 1 1.718 3.736V518a5 5 0 0 1-5 5H134a5 5 0 0 1-5-5v-66.754c0-1.428.604-2.783 1.691-3.71 4.364-3.72 16.292-13.525 25.309-17.536 10.532-4.611 38.21-17.267 41.648-18.839.235-.108.469-.239.685-.381 18.359-12.147 16.363-11.403 38.667-11.28z" stroke="#000" stroke-width="25"/><path fill-rule="evenodd" clip-rule="evenodd" d="M306 127h-20v-25h20v25z" fill="#000"/><path d="M419 447H173l-27 18.281V505h300v-39.719L419 447z" fill="#fff"/><path fill-rule="evenodd" clip-rule="evenodd" d="M296.5 23 329 67l-32.5 51L263 67l33.5-44z" fill="#000"/><path d="M310.5 68.009c0 7.732-6.268 14-14 14s-14-6.268-14-14 6.268-14 14-14 14 6.268 14 14z" fill="#fff"/><path d="M318.129 186.624c0 11.945-9.683 21.629-21.629 21.629-11.946 0-21.629-9.684-21.629-21.629 0-11.946 9.683-21.63 21.629-21.63 11.946 0 21.629 9.684 21.629 21.63zm-128.187 65.169a44.967 44.967 0 0 1 8.185 3.272 45.169 45.169 0 0 1 9.309 6.426 44.625 44.625 0 0 1 1.698 1.596s38.075 35.195 42.749 39.517c2.187 2.021 2.919 5.628 3.079 8.896.183 3.72.124 7 .124 7v26.046c0 5.495-4.434 9.96-9.929 10l-63.571.454s-9.989.692-13.449-3.038l-22.695-24.473a45.096 45.096 0 0 1-12.94-25.451 45.511 45.511 0 0 1-.437-4.327 45.443 45.443 0 0 1 2.391-17.167 44.986 44.986 0 0 1 7.541-13.644 45.726 45.726 0 0 1 4.771-5.073 45.17 45.17 0 0 1 11.223-7.524 45.172 45.172 0 0 1 6.163-2.366 45.498 45.498 0 0 1 25.788-.144zm214.211 0a44.98 44.98 0 0 0-8.186 3.272 45.163 45.163 0 0 0-9.308 6.426 44.625 44.625 0 0 0-1.698 1.596l-42.75 39.517c-2.186 2.021-2.918 5.628-3.078 8.896-.183 3.72-.124 7-.124 7v26.046c0 5.495 4.434 9.96 9.929 10l63.571.454s9.989.692 13.449-3.038l22.694-24.473a45.091 45.091 0 0 0 12.941-25.451 45.84 45.84 0 0 0 .437-4.327 45.443 45.443 0 0 0-2.391-17.167 44.986 44.986 0 0 0-7.541-13.644 45.726 45.726 0 0 0-4.771-5.073 45.17 45.17 0 0 0-11.223-7.524 45.172 45.172 0 0 0-6.163-2.366A45.469 45.469 0 0 0 416.804 250c-4.263 0-8.525.598-12.651 1.793z" fill="#000"/><path stroke="#000" stroke-width="40" d="M297 292v86"/></svg>