<svg width="590" height="590" fill="none" xmlns="http://www.w3.org/2000/svg"><path fill-rule="evenodd" clip-rule="evenodd" d="m237 386.371 118 .616c22.951.127 44.169 4.891 63 18.013l53.346 43.61-.389 70.39-357.812-1.984.4-72.107L174 405c18.717-12.376 40.562-18.753 63-18.629z" fill="#000"/><path d="M119.454 360.482a426.603 426.603 0 0 1-12.017-12.804C93.902 332.678 87 312.925 87 292.721c0-12.978 2.583-26.042 9.986-36.702 5.662-8.153 12.441-16.04 20.167-23.337 14.938-14.109 35.74-19.182 56.286-19.182 34.37 0 66.497 16.333 89.201 42.135 10.176 11.564 20.714 23.17 33.36 37.865 12.973-13.474 23.323-24.359 32.863-35.193 23.611-26.814 56.935-44.807 92.663-44.807 18.5 0 37.662 3.883 51.607 16.042 9.872 8.608 17.382 17.964 23.284 27.437 6.337 10.171 8.583 22.226 8.583 34.208 0 21.082-8 41.399-22.163 57.014-3.661 4.036-7.141 7.85-10.651 11.595-18.215 19.431-44.365 28.704-70.998 28.704H190.593c-26.501 0-52.597-9.085-71.139-28.018z" fill="#fff"/><path d="M296 293.5c-12.646-14.695-23.184-26.301-33.36-37.865-22.704-25.802-54.831-42.135-89.201-42.135-20.546 0-41.348 5.073-56.286 19.182-7.726 7.297-14.505 15.184-20.167 23.337C89.583 266.679 87 279.743 87 292.721c0 20.204 6.902 39.957 20.437 54.957a426.603 426.603 0 0 0 12.017 12.804c18.542 18.933 44.638 28.018 71.139 28.018H296m0-95v95m0-95c12.973-13.474 23.323-24.359 32.863-35.193 23.611-26.814 56.935-44.807 92.663-44.807 18.5 0 37.662 3.883 51.607 16.042 9.872 8.608 17.382 17.964 23.284 27.437 6.337 10.171 8.583 22.226 8.583 34.208 0 21.082-8 41.399-22.163 57.014-3.661 4.036-7.141 7.85-10.651 11.595-18.215 19.431-44.365 28.704-70.998 28.704H296" stroke="#000" stroke-width="30"/><path d="M239.5 173.908v11.235c0 1.888.358 3.773 1.066 5.523 13.692 33.851 26.273 49.51 46.545 65.922 5.184 4.196 12.582 4.183 17.862.108 25.971-20.046 40.817-35.558 47.248-67.284.189-.93.279-1.89.279-2.839V173.62c0-2.058-.408-4.101-1.292-5.959-9.288-19.526-25.561-36.131-47.542-50.773a13.912 13.912 0 0 0-15.364-.05c-21.964 14.462-36.941 30.396-47.288 50.607-1.023 1.997-1.514 4.22-1.514 6.463z" fill="#fff" stroke="#000" stroke-width="25"/><path clip-rule="evenodd" d="M237 395.5h118c22.951.127 44.169-1.622 63 11.5l57.675 36.528a4.997 4.997 0 0 1 2.325 4.224V514a5 5 0 0 1-5 5H118a5 5 0 0 1-5-5v-66.224a5 5 0 0 1 2.356-4.244L174 407c18.717-12.376 40.562-11.624 63-11.5z" stroke="#000" stroke-width="25"/><path fill-rule="evenodd" clip-rule="evenodd" d="M306 123h-20V98h20v25z" fill="#000"/><path d="M428 443H164l-28 18.281V503h320v-41.719L428 443z" fill="#fff"/><path fill-rule="evenodd" clip-rule="evenodd" d="m296 19 33 44-33 51-33-51 33-44z" fill="#000"/><circle cx="296" cy="64" r="14" fill="#fff"/><path d="M317.629 182.629c0 11.946-9.683 21.63-21.629 21.63-11.946 0-21.629-9.684-21.629-21.63 0-11.945 9.683-21.629 21.629-21.629 11.946 0 21.629 9.684 21.629 21.629zm87.015 64.164a44.98 44.98 0 0 0-8.185 3.272 45.142 45.142 0 0 0-9.309 6.426 44.625 44.625 0 0 0-1.698 1.596l-42.75 39.517c-4.674 4.322-4.961 11.616-.639 16.291a11.553 11.553 0 0 0 3.393 2.527l67.469 33.053a11.527 11.527 0 0 0 13.524-2.513l22.694-24.473a45.091 45.091 0 0 0 12.941-25.451c.215-1.435.36-2.879.437-4.327a45.443 45.443 0 0 0-2.391-17.167 44.986 44.986 0 0 0-7.541-13.644 45.726 45.726 0 0 0-4.771-5.073 45.17 45.17 0 0 0-11.223-7.524 45.172 45.172 0 0 0-6.163-2.366A45.464 45.464 0 0 0 417.295 245a45.49 45.49 0 0 0-12.651 1.793zm-217.288 0a44.98 44.98 0 0 1 8.185 3.272 45.142 45.142 0 0 1 9.309 6.426 44.625 44.625 0 0 1 1.698 1.596l42.75 39.517c4.674 4.322 4.961 11.616.639 16.291a11.553 11.553 0 0 1-3.393 2.527l-67.469 33.053a11.527 11.527 0 0 1-13.524-2.513l-22.694-24.473a45.091 45.091 0 0 1-12.941-25.451 45.511 45.511 0 0 1-.437-4.327 45.443 45.443 0 0 1 2.391-17.167 44.986 44.986 0 0 1 7.541-13.644 45.726 45.726 0 0 1 4.771-5.073 45.17 45.17 0 0 1 11.223-7.524 45.172 45.172 0 0 1 6.163-2.366A45.464 45.464 0 0 1 174.705 245c4.262 0 8.525.598 12.651 1.793z" fill="#000"/></svg>