<svg width="590" height="590" fill="none" xmlns="http://www.w3.org/2000/svg"><path d="M250.748 342.168c39.969-16.957 67.376-44.814 67.376-44.814l1.661 14.534-14.534 24.224-21.801 24.223s-63.152 56.568-72.671 104.162c-3.777 18.885-.719 48.217-.103 53.629a.987.987 0 0 0 .986.874h290.011c.553 0 1-.444 1-.996v-97.11c-55.714-245.869-222.857-256.77-222.857-256.77l-31.719-33.606a1 1 0 0 0-1.718.55l-4.559 33.056c-31.934 8.279-27.371 1.544-46.988-25.844-.524-.73-1.673-.469-1.797.421-1.117 8.033-4.749 33.942-6.929 47.224-2.602 15.846-15.296 25.435-15.296 25.435L98.14 336.112l-2.423 6.056s-14.602 38.919-3.634 52.08c12.112 14.535 37.547 21.802 37.547 21.802s6.832 15.944 16.507 12.111c9.644-3.82 17.922-11.502 24.673-19.378 29.068-33.913 39.969-49.659 79.938-66.615z" fill="#000" stroke="#000" stroke-width="15"/><path d="M217.663 229.778a1 1 0 0 1 1.282 1.206l-9.632 36.265a.998.998 0 0 1-.65.692l-35.604 11.847a1 1 0 0 1-1.282-1.205l9.631-36.266a.999.999 0 0 1 .651-.692l35.604-11.847zM134.089 357.68a1 1 0 0 1 1.143 1.075l-1.926 22.528c-.04.462-.392.836-.85.904l-22.367 3.31a1 1 0 0 1-1.143-1.075l1.927-22.528a1 1 0 0 1 .85-.904l22.366-3.31zM336 389h33v23h-33zm0-74h16v16h-16zm-55-60h19v7h-19zm171.931 215C438.431 244.5 347 215.5 347 215.5l6-6.5s110.847 71.471 127.278 211c2.131 18.094 3.145 29.624 1.653 50h-29z" fill="#fff"/></svg>