<svg width="590" height="590" fill="none" xmlns="http://www.w3.org/2000/svg"><path d="M138 519v-71.177c0-.277.115-.542.318-.731l23.394-21.823a.999.999 0 0 1 .682-.269h266.22c.248 0 .488.093.672.26l23.386 21.226a.998.998 0 0 1 .328.74V519a1 1 0 0 1-1 1H139a1 1 0 0 1-1-1z" fill="#fff" stroke="#000" stroke-width="30"/><path d="M178.496 339.596C135.461 313.287 112.196 261.007 86 218.5c0 0 6.553 93.924 24 132 10.946 23.89 52.13 61.039 55.746 64.273a.898.898 0 0 0 .634.227h259.259a.909.909 0 0 0 .613-.211c3.258-2.749 37.324-31.935 54.248-64.289 17.785-34 23.5-132 23.5-132-26.214 44.514-47.535 100.28-90.581 121.323a.988.988 0 0 1-1.419-.892V192.5l-74.331 152.599c-.404.831-1.623.715-1.864-.178L321 290l-25-124.5L268 290l-15.273 54.886c-.249.896-1.478.996-1.87.153L180 192.5v146.248a.989.989 0 0 1-1.504.848z" fill="#000"/><path d="M86 218.5c26.196 42.507 49.461 94.787 92.496 121.096a.989.989 0 0 0 1.504-.848V192.5m-94 26s6.553 93.924 24 132c10.946 23.89 52.13 61.039 55.746 64.273a.894.894 0 0 0 .634.227h259.259a.909.909 0 0 0 .613-.211c3.258-2.749 37.324-31.935 54.248-64.289 17.785-34 23.5-132 23.5-132m-418 0v-16m94-40v30m0 0 70.857 152.539c.392.843 1.621.743 1.87-.153L268 290l28-124.5m0 0L321 290l14.805 54.921c.241.893 1.46 1.009 1.864.178L412 192.5m-116-27v-10m116 37v146.431a.988.988 0 0 0 1.419.892C456.465 318.78 477.786 263.014 504 218.5m-92-26v-30m92 56v-16" stroke="#000" stroke-width="15"/><rect x="61" y="153" width="50" height="50" rx="5" fill="#000"/><rect x="155" y="113" width="50" height="50" rx="5" fill="#000"/><rect x="271" y="106" width="50" height="50" rx="5" fill="#000"/><rect x="387" y="113" width="50" height="50" rx="5" fill="#000"/><rect x="479" y="153" width="50" height="50" rx="5" fill="#000"/><circle cx="85.5" cy="177.5" r="11.5" fill="#fff"/><circle cx="179.5" cy="137.5" r="11.5" fill="#fff"/><circle cx="503.5" cy="177.5" r="11.5" fill="#fff"/><circle cx="411.5" cy="137.5" r="11.5" fill="#fff"/><circle cx="295.5" cy="130.5" r="11.5" fill="#fff"/></svg>