<svg width="590" height="590" fill="none" xmlns="http://www.w3.org/2000/svg"><path d="M446 519H144a5 5 0 0 1-5-5v-35.699c0-1.106.366-2.18 1.042-3.055L175 429.951l30.971-40.101a5 5 0 0 0 1.043-3.056V220.049l-3.877-.038a4.997 4.997 0 0 1-2.157-.513l-57.187-28.124a5 5 0 0 1-2.793-4.487V135a5 5 0 0 1 5-5h56.014a5 5 0 0 1 5 5v22a5 5 0 0 0 5 5H253a5 5 0 0 0 5-5v-22a5 5 0 0 1 5-5h64a5 5 0 0 1 5 5v23a5 5 0 0 0 5 5h41a5 5 0 0 0 5-5v-23a5 5 0 0 1 5-5h59a5 5 0 0 1 5 5v52.342a5 5 0 0 1-2.852 4.515l-58.129 27.658a5.004 5.004 0 0 1-2.148.485H385v166.859a5 5 0 0 0 .973 2.963l29.527 40.129 34.479 45.303a5.001 5.001 0 0 1 1.021 3.028V514a5 5 0 0 1-5 5z" fill="#000"/><path d="M385 220h3.871c.743 0 1.477-.166 2.148-.485l58.129-27.658a5 5 0 0 0 2.852-4.515V135a5 5 0 0 0-5-5h-59a5 5 0 0 0-5 5v23a5 5 0 0 1-5 5h-41a5 5 0 0 1-5-5v-23a5 5 0 0 0-5-5h-64a5 5 0 0 0-5 5v22a5 5 0 0 1-5 5h-40.986a5 5 0 0 1-5-5v-22a5 5 0 0 0-5-5H146a5 5 0 0 0-5 5v51.887a5 5 0 0 0 2.793 4.487l57.187 28.124c.671.33 1.409.506 2.157.513l3.877.038M385 220v159.066M385 220l-177.986.049m0 0v159.017M415.5 429.951l34.479 45.303a5.001 5.001 0 0 1 1.021 3.028V514a5 5 0 0 1-5 5H144a5 5 0 0 1-5-5v-35.699c0-1.106.366-2.18 1.042-3.055L175 429.951m240.5 0-29.527-40.129a5 5 0 0 1-.973-2.963v-7.793m30.5 50.885H175m0 0 30.971-40.101a5 5 0 0 0 1.043-3.056v-7.728m0 0H385" stroke="#000" stroke-width="15"/><path d="M215 212h162v16H215v-16zm0 159h162v16H215z" fill="#fff"/><path fill-rule="evenodd" clip-rule="evenodd" d="M435.588 490H443v9h-.464.464v15H147v-15h9.673H147v-9h288.588z" fill="#fff"/></svg>