<svg xmlns="http://www.w3.org/2000/svg" xml:space="preserve" width="189.024" height="189.024" style="shape-rendering:geometricPrecision;text-rendering:geometricPrecision;image-rendering:optimizeQuality;fill-rule:evenodd;clip-rule:evenodd" viewBox="0 0 5001.26 5001.26"><defs><style>.fil0,.fil1{fill:#000;fill-rule:nonzero}.fil1{fill:#fff}</style></defs><g id="Слой_x0020_1"><path class="fil0" d="M4090.91 4038.19v410.96H892.5l.01-393.82 3198.4-17.14zm0 22.05z"/><path class="fil0" d="M892.51 4063.04c49.24-18.49 267.14-774.48 1477.31-1108.62 32.88-8.46 18.56-27.92 44.8-66.3 8.52-12.46 79.56-36.17 79.56-36.17s71.25 23.71 79.76 36.17c26.24 38.38 11.92 57.84 44.81 66.3 1212.36 333.71 1429.85 1083.1 1472.16 1105.82l-3198.4 2.8zm0 0zm1601.67-1211.09-263.98-347.61H877.32c-10.87 0-12.63-18.46-1.96-20.56 383.03-75.46 1601.54-369.38 1618.82-1057.6v1425.77zm0 0z"/><path class="fil0" d="m2494.18 2851.95 263.98-346.2h1353.48c10.87 0 12.59-18.43 1.92-20.55-382.38-75.58-1602.11-370.46-1619.38-1059.02v1425.77zm0 0z"/><path class="fil0" d="M2494.18 1426.18h-750l-311.44-282.78V732.87l149.45 280.44h474.02s46.31-451.82 437.97-451.82v864.69zm0 0z"/><path class="fil0" d="M2494.18 1426.18h751.8l311.45-282.78V732.87l-149.47 280.44h-474s-48.13-451.82-439.78-451.82v864.69zm0 0z"/><path class="fil0" d="M4090.91 4060.24h65.96v-39.45l-34.75-18.67-31.21 58.12zm0 388.91v65.97h65.96v-65.97h-65.96zm-3198.41 0h-65.97v65.97h65.97v-65.97zm.01-386.11-23.18-61.76-42.78 16.06-.01 45.69 65.97.01zm1477.31-1108.62-16.44-63.89-.57.15-.56.16 17.57 63.58zm248.93 0 17.51-63.6-.54-.15-.53-.14-16.44 63.89zm-874.57-1528.24-44.34 48.83a65.963 65.963 0 0 0 44.34 17.13v-65.96zm-311.44-282.78h-65.97c0 18.6 7.86 36.33 21.62 48.84l44.35-48.84zm0-410.53 58.22-31.03c-14.24-26.72-44.84-40.31-74.21-32.97-29.37 7.33-49.98 33.72-49.98 64h65.97zm149.45 280.44-58.21 31.02a65.956 65.956 0 0 0 58.21 34.95v-65.97zm474.02 0v65.97c33.82 0 62.17-25.6 65.61-59.25l-65.61-6.72zm173.99 1491.03 52.53-39.89a65.972 65.972 0 0 0-52.53-26.07v65.96zm527.96 1.41v-65.97a65.96 65.96 0 0 0-52.46 25.97l52.46 40zm-343.54 382.37-54.46-37.23 54.46 37.23zm159.32 0 54.47-37.23-54.47 37.23zm672.04-1461.94v65.96c16.4 0 32.2-6.11 44.34-17.13l-44.34-48.83zm311.45-282.78 44.34 48.84a65.99 65.99 0 0 0 21.63-48.84h-65.97zm0-410.53h65.97c0-30.28-20.62-56.67-49.99-64-29.37-7.34-59.96 6.25-74.2 32.97l58.22 31.03zm-149.47 280.44v65.97a65.96 65.96 0 0 0 58.22-34.95l-58.22-31.02zm-474 0-65.6 6.98c3.57 33.54 31.87 58.99 65.6 58.99v-65.97zm1179.6 1471.89-12.78 64.72 12.78-64.72zm-3238.2-1.42 12.74 64.73-12.74-64.73zm3149.58 1576.46v388.91h131.93v-388.91h-131.93zm65.97 322.94H892.5v131.94h3198.41v-131.94zm-3132.45 65.97.02-386.11-131.94-.01-.01 386.12h131.93zm-42.75-324.35c15.35-5.77 25.31-15.51 29.66-20.07 5.24-5.48 9.53-11.26 12.78-15.95 6.5-9.38 13.25-20.97 19.79-32.55 14.05-24.9 30.03-54.94 52.86-93.79 44.68-76 111.75-178.69 213.83-290.96 203.62-223.98 549.86-489.77 1142.74-653.46l-35.12-127.18c-617.27 170.43-985.06 449.71-1205.24 691.88-109.83 120.81-182.09 231.46-229.94 312.85-23.43 39.86-42.01 74.51-54.02 95.81-6.5 11.5-10.66 18.37-13.36 22.26-1.34 1.95-1.21 1.51.25-.01.56-.59 7.1-7.73 19.39-12.35l46.38 123.52zm1685.54-1106.78c594.15 163.55 940.77 427.67 1143.58 650.35 101.66 111.62 168 213.73 211.52 289.34 21.91 38.05 37.88 69.1 50.6 93.08 6.08 11.47 12.13 22.69 17.66 31.63 2.75 4.46 6.29 9.85 10.45 15 3.15 3.92 11.38 13.81 24.64 20.94l62.42-116.24c6.01 3.23 9.98 6.7 11.88 8.48 2.06 1.94 3.31 3.45 3.75 4 .79.97.55.82-.91-1.53-2.9-4.71-7.05-12.24-13.33-24.09-12.01-22.65-29.44-56.48-52.81-97.09-47.04-81.72-118.78-192.07-228.33-312.36-219.6-241.12-587.9-518.54-1206.11-688.71l-35.01 127.2zM888.1 2548.51c193.26-38.07 600.05-131.68 962.19-304.18 181.05-86.24 354.55-193.87 484.71-327.07 130.78-133.83 220.28-296.3 225.13-489.43l-131.9-3.31c-3.78 150.98-73.09 283.35-187.6 400.54-115.14 117.83-273.44 217.45-447.07 300.15-347.19 165.38-741.17 256.46-930.95 293.85l25.49 129.45zm3238.26-128.02c-189.45-37.46-583.6-128.8-931.01-294.47-173.73-82.86-332.19-182.62-447.44-300.61-114.63-117.34-183.99-249.83-187.78-400.89l-131.9 3.31c4.85 193.22-90.28 1186.12 40.6 1320.09 130.25 133.33 488.58-589.21 669.73-502.82 362.36 172.8 769.29 266.69 962.22 304.82l25.58-129.43zM1788.52 1377.33l-311.43-282.78-88.7 97.69 311.45 282.77 88.68-97.68zm-289.81-233.93V732.87h-131.94v410.53h131.94zm-124.19-379.51 149.46 280.44 116.43-62.05-149.45-280.44-116.44 62.05zm207.67 315.39h474.02V947.34h-474.02v131.94zm474.02-65.97c65.61 6.72 65.61 6.75 65.61 6.77v.09-.02c0-.07.02-.23.06-.51.06-.54.17-1.49.35-2.81.34-2.65.93-6.8 1.82-12.24 1.79-10.88 4.79-26.8 9.55-46.06 9.59-38.81 25.94-89.73 52.86-139.97 53.18-99.22 216 673.58 379.87 673.58l-72.15-996.62c-227.78 0-356.1 134.02-424 260.71-33.61 62.71-53.32 124.74-64.66 170.66-5.71 23.09-9.38 42.47-11.65 56.3-1.14 6.92-1.93 12.48-2.46 16.44-.25 1.99-.45 3.58-.59 4.74-.06.58-.11 1.07-.16 1.44-.02.18-.03.33-.05.46-.01.06-.01.13-.02.18 0 .03 0 .05-.01.07 0 .03 0 .06 65.63 6.79zm437.97 346.9h-750v131.93h750v-131.93zm52.54 1451.84-263.99-347.6-105.07 79.79 263.98 347.6 105.08-79.79zm-316.52-373.67H877.32v131.93H2230.2v-131.93zm316.44 453.56 263.98-346.2-104.92-79.99-263.98 346.19 104.92 80zm211.52-320.22h1353.48v-131.94H2758.16v131.94zm-371.91 446.6c15.03-3.88 32.21-10.91 46.89-25.28 14.47-14.16 20.7-29.94 23.73-38.45 6-16.87 5.36-19.22 12.21-29.24l-108.92-74.46c-19.39 28.37-25.98 54.93-27.6 59.5-.79 2.22 1.21-4.7 8.3-11.64 7.29-7.14 13.92-8.58 12.52-8.22l32.87 127.79zm82.83-92.97c-3.78 5.52-7.47 8.87-8.91 10.12-1.7 1.48-2.88 2.26-3.06 2.39-.29.19.62-.42 3.31-1.78 5.28-2.68 12.87-5.97 21.55-9.42 8.42-3.36 16.77-6.41 23.1-8.67 3.13-1.11 5.71-2.01 7.46-2.61.88-.31 1.56-.54 1.99-.68.21-.08.37-.13.47-.15.04-.02.08-.03.09-.04-.01.01-.01.01-20.9-62.56-20.89-62.58-20.9-62.58-20.9-62.58h-.01c-.01.01-.02.01-.03.01-.01.01-.04.02-.07.03-.05.02-.12.04-.21.07-.17.06-.42.14-.73.25-.6.21-1.47.5-2.55.87-2.15.74-5.2 1.79-8.86 3.1-7.26 2.58-17.21 6.23-27.6 10.36-10.15 4.03-21.92 9.01-32.36 14.29-5.16 2.61-11.19 5.9-17 9.77-4.14 2.76-15.14 10.26-23.7 22.77l108.92 74.46zm25.1-73.4-20.84 62.59c-.01 0-.01-.01-.01-.01h-.01l.01.01c.02 0 .05.01.1.02.09.04.25.09.47.16.42.15 1.1.38 1.98.68 1.77.6 4.36 1.49 7.5 2.61 6.34 2.25 14.71 5.32 23.17 8.67 8.71 3.46 16.32 6.75 21.62 9.42 2.7 1.38 3.62 1.98 3.33 1.79-.18-.11-1.37-.91-3.07-2.39-1.44-1.25-5.16-4.61-8.95-10.15l108.93-74.46c-8.58-12.54-19.63-20.04-23.77-22.8-5.81-3.88-11.86-7.16-17.03-9.77-10.45-5.28-22.26-10.25-32.42-14.28-10.43-4.14-20.4-7.78-27.68-10.36-3.67-1.31-6.72-2.36-8.88-3.1-1.08-.37-1.95-.67-2.56-.87-.31-.11-.55-.19-.73-.25-.09-.02-.16-.05-.22-.07-.03-.01-.04-.02-.06-.02-.01 0-.02 0-.03-.01h-.01c-.01 0-.01 0-20.84 62.59zm25.3 73.4c6.85 10.02 6.22 12.37 12.22 29.24 3.02 8.52 9.25 24.29 23.73 38.45 14.68 14.37 31.86 21.4 46.89 25.28l32.87-127.79c-1.41-.36 5.22 1.08 12.51 8.22 7.1 6.93 9.09 13.86 8.31 11.64-1.63-4.57-8.22-31.13-27.6-59.5l-108.93 74.46zm770.84-1450.34 311.45-282.77-88.69-97.69-311.45 282.78 88.69 97.68zm333.08-331.61V732.87h-131.94v410.53h131.94zm-124.19-441.56-149.46 280.44 116.43 62.05 149.46-280.44-116.43-62.05zm-91.25 245.5h-474v131.94h474V947.34zm-474 65.97c65.6-6.99 65.59-7.02 65.59-7.05 0-.01 0-.05-.01-.07 0-.06-.01-.11-.02-.17-.02-.13-.03-.29-.05-.48-.04-.37-.1-.84-.17-1.42-.14-1.17-.34-2.75-.61-4.74-.53-3.97-1.35-9.53-2.51-16.45-2.33-13.82-6.09-33.19-11.88-56.28-11.53-45.91-31.47-107.91-65.32-170.6-68.35-126.58-197.09-260.53-424.8-260.53v131.94c163.94 0 255.08 91.96 308.7 191.28 27.16 50.27 43.71 101.22 53.46 140.03 4.83 19.27 7.91 35.2 9.73 46.08.92 5.43 1.53 9.58 1.89 12.23.17 1.33.29 2.28.36 2.82.03.27.05.45.06.51v.02c0-.01 0-.02-.01-.05v-.03c0-.03-.01-.06 65.59-7.04zm-439.78 478.83h751.8v-131.93h-751.8v131.93zm1606.6 1057.78c-17.55-3.47-31.1-14.61-38.63-27.65-6.72-11.66-7.98-23.27-7.15-32.15.83-8.86 4.23-20.13 13.13-30.43 9.98-11.55 25.57-19.91 43.51-19.91v131.94c52.7 0 72.49-45.53 74.72-69.31 2.23-23.77-8.69-71.78-60-81.92l-25.58 129.43zM862.61 2419.06c-51.48 10.14-62.28 58.34-60.01 82.05 2.26 23.73 22.06 69.2 74.72 69.2v-131.93c17.96 0 33.52 8.37 43.48 19.87 8.88 10.25 12.29 21.48 13.13 30.33.84 8.86-.38 20.49-7.11 32.18-7.52 13.1-21.11 24.28-38.72 27.75l-25.49-129.45z"/><circle class="fil1" cx="2494.18" cy="2206.27" r="175.91"/><path class="fil1" d="M3802.69 3912.62H1180.33l-111.04 135.34v308.84h2844.45v-308.84z"/></g></svg>