<svg width="590" height="590" fill="none" xmlns="http://www.w3.org/2000/svg"><path fill-rule="evenodd" clip-rule="evenodd" d="m255.61 304.106 36.238-.001h36.236v23.64a20.002 20.002 0 0 0 6.608 14.854l143.779 129.626a5 5 0 0 1 1.652 3.714V522a1 1 0 0 1-1 1H108.51a1 1 0 0 1-1-1v-46.1c0-1.393.582-2.723 1.604-3.67l140.082-129.651a20 20 0 0 0 6.415-14.678l-.001-23.795zm65.875-130.978v-27.156c0-.23.079-.453.225-.632l43.744-53.709a1 1 0 0 0-.776-1.631h-140.83a1 1 0 0 0-.776 1.632l43.744 53.708a.999.999 0 0 1 .225.632v27.156" fill="#000"/><path d="m255.61 304.106.001 23.795a20 20 0 0 1-6.415 14.678L109.114 472.23a5.004 5.004 0 0 0-1.604 3.67V522a1 1 0 0 0 1 1h370.613a1 1 0 0 0 1-1v-46.061a5 5 0 0 0-1.652-3.714L334.692 342.599a20.002 20.002 0 0 1-6.608-14.854v-23.64m-72.474.001L128 173.129m127.61 130.977 36.238-.001h36.236m0 0 133.669-130.976m-333.753 0h-21m21 0h356m-162.515-.001v-27.156c0-.23.079-.453.225-.632l43.744-53.709a1 1 0 0 0-.776-1.631h-140.83a1 1 0 0 0-.776 1.632l43.744 53.708c.145.179.225.402.225.632v27.156" stroke="#000" stroke-width="15" stroke-miterlimit="22.926"/><path d="m143 478.5 36.5-33.922H409l38 33.922V498a5 5 0 0 1-5 5H148a5 5 0 0 1-5-5v-19.5z" fill="#fff"/><path d="M252.832 308.5 122 173l344.5 1-136.201 134.5h-77.467z" fill="#000" stroke="#000"/><path d="m243.86 239.059 50.699-61.559 50.699 61.559-50.699 61.559-50.699-61.559z" fill="#fff"/><path d="M270.99 239.284 294.284 211l23.295 28.284-23.295 28.284-23.294-28.284z" fill="#000"/><circle cx="294" cy="59" r="25" fill="#000"/></svg>