<svg width="590" height="590" fill="none" xmlns="http://www.w3.org/2000/svg"><path d="M89.408 450.761h117.079a10 10 0 0 0 6.807-2.674l13.359-12.413A9.998 9.998 0 0 1 233.46 433h123.08a10 10 0 0 1 6.807 2.674l13.359 12.413a10 10 0 0 0 6.807 2.674H501c5.523 0 10 4.477 10 10V509c0 5.523-4.477 10-10 10H363.893a10.001 10.001 0 0 1-7.35-3.219l-47.104-51.051a10 10 0 0 0-7.35-3.219h-12.824c-2.745 0-5.37 1.129-7.258 3.121l-48.562 51.246a10 10 0 0 1-7.259 3.122H89.07c-5.55 0-10.038-4.52-10-10.07l.338-48.239a10 10 0 0 1 10-9.93z" fill="#fff"/><path d="M295.956 461.511h-6.691c-2.745 0-5.37 1.129-7.258 3.121l-48.562 51.246a10 10 0 0 1-7.259 3.122H89.07c-5.55 0-10.038-4.52-10-10.07l.338-48.239a10 10 0 0 1 10-9.93h117.079a10 10 0 0 0 6.807-2.674l13.359-12.413A9.998 9.998 0 0 1 233.46 433h123.08a10 10 0 0 1 6.807 2.674l13.359 12.413a10 10 0 0 0 6.807 2.674H501c5.523 0 10 4.477 10 10V509c0 5.523-4.477 10-10 10H363.893a10.001 10.001 0 0 1-7.35-3.219l-47.104-51.051a10 10 0 0 0-7.35-3.219h-6.133zm0 0V433" stroke="#000" stroke-width="15"/><path d="m226 524 59.075-62.459h10.87m0 0V439m0 22.541h10.397L364 524" stroke="#000" stroke-width="15"/><path d="M231.504 519.296H92.407c-5.523 0-10-4.477-10-10v-51.614m276.089 61.614h139.097c5.523 0 10-4.477 10-10v-51.614" stroke="#000" stroke-width="20"/><path d="M206.474 413.809c.361.718.721 1.399 1.086 2.054C214.319 427.967 229.414 432 243.277 432h95.448c13.506 0 28.696-3.52 34.888-15.524.896-1.737 1.653-3.626 2.387-5.85 1.495-4.526 2-9.309 2-14.076v-8.334c0-11.947-3.538-23.897-11.786-32.539-3.988-4.178-7.933-7.65-12.564-11.274-9.004-7.047-20.313-10.403-31.747-10.403h-62.076c-11.654 0-23.099 3.582-32.457 10.528-5.043 3.743-9.253 7.137-13.476 11.339-8.438 8.396-11.894 20.375-11.894 32.279v4.559c0 7.278 1.203 14.602 4.474 21.104z" fill="#fff" stroke="#000" stroke-width="18"/><circle cx="293.5" cy="127.5" r="28" fill="#fff" stroke="#000" stroke-width="15"/><path d="M256.176 169.81c-18.614 9.382-33.385 20.856-46.247 36.843C199.823 219.215 196 235.45 196 251.572v.606c0 19 5.564 37.94 18.596 51.766a205.81 205.81 0 0 0 13.585 13.155C241.694 329.028 259.689 334 277.714 334h35.893c15.941 0 31.992-3.722 44.493-13.613 6.842-5.414 13.313-11.533 19.416-18.698C388.1 289.263 392 272.789 392 256.467v-8.482c0-13.841-2.708-27.834-10.651-39.169-12.77-18.225-28.936-30.499-50.768-40.27-9.583-4.289-20.096-5.929-30.595-5.929h-10.328c-11.568 0-23.152 1.987-33.482 7.193z" fill="#fff"/><path d="M293.295 162.617h-3.637c-11.567 0-23.152 1.987-33.482 7.193-18.614 9.382-33.385 20.856-46.247 36.843C199.823 219.215 196 235.45 196 251.572v.606c0 19 5.564 37.94 18.596 51.766a205.81 205.81 0 0 0 13.585 13.155C241.694 329.028 259.689 334 277.714 334h35.893c15.941 0 31.992-3.722 44.492-13.613 6.843-5.414 13.314-11.533 19.417-18.698C388.1 289.263 392 272.789 392 256.467v-8.482c0-13.841-2.708-27.834-10.651-39.169-12.77-18.225-28.936-30.499-50.768-40.27-9.583-4.289-20.096-5.929-30.595-5.929h-6.691zm0 0V149" stroke="#000" stroke-width="17"/><path d="M221 334h143" stroke="#000" stroke-width="28"/><path fill-rule="evenodd" clip-rule="evenodd" d="m295 193 40 51.193-40 56.915-40-56.915L295 193z" fill="#000"/><circle cx="295" cy="247" r="13" fill="#fff"/></svg>