<svg width="590" height="590" fill="none" xmlns="http://www.w3.org/2000/svg"><path d="M108.289 372.116a431.184 431.184 0 0 1-11.667-12.331C81.592 343.282 74 321.426 74 299.105c0-11.875 1.827-23.899 8.086-33.991 6.331-10.208 14.723-19.958 24.888-28.695 14.387-12.366 33.644-16.568 52.615-16.568h4.978c34.431 0 66.58 16.365 88.535 42.889 9.999 12.079 20.377 24.158 33.587 39.508 13.821-14.354 24.641-25.855 34.628-37.396 23.38-27.015 56.139-45.001 91.867-45.001h3.776c17.609 0 35.474 3.567 49.411 14.33 12.591 9.723 22.049 20.555 28.841 31.584 5.974 9.7 7.771 21.223 7.771 32.615 0 22.669-8.471 44.638-24.363 60.804a721.937 721.937 0 0 1-13.13 13.037c-19.144 18.516-45.164 27.875-71.797 27.875H179.466c-26.501 0-52.577-9.103-71.177-27.98z" fill="#fff"/><path d="M286.689 302.248c-13.21-15.35-23.588-27.429-33.587-39.508-21.955-26.524-54.104-42.889-88.535-42.889h-4.978c-18.971 0-38.228 4.202-52.615 16.568-10.165 8.737-18.557 18.487-24.888 28.695C75.827 275.206 74 287.23 74 299.105c0 22.321 7.592 44.177 22.622 60.68a431.184 431.184 0 0 0 11.667 12.331c18.6 18.877 44.676 27.98 71.177 27.98h214.227c26.633 0 52.653-9.359 71.797-27.875a725.17 725.17 0 0 0 13.13-13.037c15.892-16.166 24.363-38.135 24.363-60.804 0-11.392-1.797-22.915-7.771-32.615-6.792-11.029-16.25-21.861-28.841-31.584-13.937-10.763-31.802-14.33-49.411-14.33h-3.776c-35.728 0-68.487 17.986-91.867 45.001-9.987 11.541-20.807 23.042-34.628 37.396zm0 0v97.848" stroke="#000" stroke-width="20"/><path fill-rule="evenodd" clip-rule="evenodd" d="M136.95 409.705a4.999 4.999 0 0 1 3.673-1.608h292.762c1.436 0 2.804.618 3.753 1.696l30.283 34.402a5 5 0 0 1 1.247 3.304v64.574a5 5 0 0 1-5 5H110.411a5 5 0 0 1-5-5v-66.25c0-1.257.474-2.468 1.326-3.392l30.213-32.726z" fill="#fff" stroke="#000" stroke-width="25"/><path d="m264.684 80.132 23.439-31.891 23.053 31.837-23.456 33.897-23.036-33.843z" fill="#fff" stroke="#000" stroke-width="12"/><path fill-rule="evenodd" clip-rule="evenodd" d="m296.875 131.789-19.456-.113.115-21.517 19.455.113-.114 21.517z" fill="#000"/><path d="M230.041 189.684v11.345c0 1.888.358 3.774 1.065 5.524 14.174 35.065 27.185 51.194 48.234 68.188 5.19 4.189 12.596 4.192 17.818.043 26.081-20.725 37.324-36.705 43.843-69.484.185-.931.276-1.892.276-2.841v-12.578c0-2.633-.694-5.231-2.023-7.504-11.247-19.23-18.39-28.764-42.504-49.169-5.027-4.253-12.294-4.64-17.632-.786-21.399 15.449-36.314 31.324-47.204 50.107-1.258 2.17-1.873 4.647-1.873 7.155z" fill="#fff" stroke="#000" stroke-width="18"/><circle cx="285.659" cy="199.766" r="15.629" stroke="#000" stroke-width="12"/><circle cx="288" cy="80" r="7" fill="#000"/><path d="M398.623 259.293a44.98 44.98 0 0 0-8.185 3.272 45.142 45.142 0 0 0-9.309 6.426 44.625 44.625 0 0 0-1.698 1.596l-42.75 39.517c-4.674 4.322-4.961 11.616-.639 16.291a11.553 11.553 0 0 0 3.393 2.527l67.469 33.053a11.527 11.527 0 0 0 13.524-2.513l22.694-24.473a45.091 45.091 0 0 0 12.941-25.451c.215-1.435.36-2.879.437-4.327a45.443 45.443 0 0 0-2.391-17.167 44.986 44.986 0 0 0-7.541-13.644 45.726 45.726 0 0 0-4.771-5.073 45.17 45.17 0 0 0-11.223-7.524 45.172 45.172 0 0 0-6.163-2.366 45.464 45.464 0 0 0-13.137-1.937 45.49 45.49 0 0 0-12.651 1.793zm-219.702 0a44.98 44.98 0 0 1 8.185 3.272 45.142 45.142 0 0 1 9.309 6.426 44.625 44.625 0 0 1 1.698 1.596l42.75 39.517c4.674 4.322 4.961 11.616.639 16.291a11.553 11.553 0 0 1-3.393 2.527l-67.469 33.053a11.527 11.527 0 0 1-13.524-2.513l-22.694-24.473a45.091 45.091 0 0 1-12.941-25.451 45.511 45.511 0 0 1-.437-4.327 45.443 45.443 0 0 1 2.391-17.167 44.986 44.986 0 0 1 7.541-13.644 45.726 45.726 0 0 1 4.771-5.073 45.17 45.17 0 0 1 11.223-7.524 45.172 45.172 0 0 1 6.163-2.366 45.498 45.498 0 0 1 25.788-.144z" fill="#000"/><path d="M399.116 276.724a31.401 31.401 0 0 0-12.193 6.759c-.402.358-.797.729-1.184 1.112l-29.796 27.544a8.035 8.035 0 0 0 1.919 13.116l47.026 23.037a8.033 8.033 0 0 0 9.426-1.751l15.818-17.058a31.421 31.421 0 0 0 9.019-17.739 31.696 31.696 0 0 0-1.361-14.982 31.36 31.36 0 0 0-5.257-9.509 31.783 31.783 0 0 0-3.325-3.536 31.515 31.515 0 0 0-7.822-5.244 31.34 31.34 0 0 0-4.296-1.649 31.68 31.68 0 0 0-9.156-1.35c-2.971 0-5.942.416-8.818 1.25zm-221.731 0a31.414 31.414 0 0 1 13.377 7.871l29.797 27.544a8.035 8.035 0 0 1-1.92 13.116l-47.025 23.037a8.035 8.035 0 0 1-9.427-1.751l-15.818-17.058a31.434 31.434 0 0 1-9.324-20.755 31.696 31.696 0 0 1 1.667-11.966 31.357 31.357 0 0 1 5.256-9.509 32 32 0 0 1 3.325-3.536 31.515 31.515 0 0 1 7.822-5.244 31.439 31.439 0 0 1 4.296-1.649c2.98-.9 6.069-1.35 9.156-1.35 2.972 0 5.942.416 8.818 1.25z" fill="#fff"/></svg>