<svg width="590" height="590" fill="none" xmlns="http://www.w3.org/2000/svg"><path d="M117.07 373.184a298.363 298.363 0 0 1-10.367-10.858C89.943 343.882 82 319.239 82 294.318v-2.283c0-7.812.55-15.711 3.368-22.997 5.554-14.357 15.995-28.275 32.904-39.515C130.574 221.345 145.614 219 160.387 219h11.954c34.431 0 66.583 16.366 88.606 42.832 10.068 12.098 20.511 24.191 33.742 39.566 13.587-14.112 23.818-25.467 33.166-36.812C350.575 237.013 383.244 219 418.971 219h9.642c14.773 0 29.813 2.345 42.115 10.523 16.909 11.24 27.35 25.158 32.904 39.515 2.819 7.286 3.368 15.185 3.368 22.997v2.283c0 24.921-7.958 49.55-24.689 68.02a307.905 307.905 0 0 1-9.861 10.401c-18.057 18.168-43.461 26.506-69.077 26.506h-217.77c-25.37 0-50.552-8.163-68.533-26.061z" fill="#fff"/><path d="M294.689 301.398c-13.231-15.375-23.674-27.468-33.742-39.566C238.924 235.366 206.772 219 172.341 219h-11.954c-14.773 0-29.813 2.345-42.115 10.523-16.909 11.24-27.35 25.158-32.904 39.515C82.549 276.324 82 284.223 82 292.035v2.283c0 24.921 7.942 49.564 24.703 68.008a298.363 298.363 0 0 0 10.367 10.858c17.981 17.898 43.163 26.061 68.533 26.061h217.77c25.616 0 51.02-8.338 69.077-26.506a307.905 307.905 0 0 0 9.861-10.401c16.731-18.47 24.689-43.099 24.689-68.02v-2.283c0-7.812-.549-15.711-3.368-22.997-5.554-14.357-15.995-28.275-32.904-39.515C458.426 221.345 443.386 219 428.613 219h-9.642c-35.727 0-68.396 18.013-91.116 45.586-9.348 11.345-19.579 22.7-33.166 36.812zm0 0v97.847" stroke="#000" stroke-width="20"/><path fill-rule="evenodd" clip-rule="evenodd" d="M145.522 409.652a5 5 0 0 1 3.624-1.555h292.638c1.411 0 2.757.596 3.704 1.642l31.217 34.444a5.002 5.002 0 0 1 1.295 3.358v64.532a5 5 0 0 1-5 5H118a5 5 0 0 1-5-5v-66.208c0-1.282.493-2.515 1.376-3.445l31.146-32.768z" fill="#fff" stroke="#000" stroke-width="20"/><path d="M272.342 80.105 295.5 48.262l23.158 31.843-23.158 33.847-23.158-33.847z" fill="#fff" stroke="#000" stroke-width="12"/><path fill-rule="evenodd" clip-rule="evenodd" d="m305.383 129.159-19.883-.109.117-20.891 19.883.11-.117 20.89z" fill="#000"/><path d="M238 189.682v12.777c0 .949.089 1.902.275 2.833 6.629 33.152 21.084 57.848 48.373 80.323a13.711 13.711 0 0 0 17.603-.127c26.454-22.437 40.855-47.102 47.473-80.196.187-.931.276-1.884.276-2.833v-12.522c0-2.669-.708-5.302-2.092-7.584-11.529-19.003-20.847-28.537-44.949-48.475-5.481-4.535-13.431-4.53-18.941-.029-24.501 20.016-35.183 29.548-46.15 48.669-1.248 2.175-1.868 4.657-1.868 7.164z" fill="#fff" stroke="#000" stroke-width="18"/><path fill="#000" d="M150 384h290v32H150z"/><circle cx="295.629" cy="199.629" r="15.629" stroke="#000" stroke-width="12"/><path d="M302.5 80a7 7 0 1 1-14 0 7 7 0 0 1 14 0zM188.942 259.793a44.967 44.967 0 0 1 8.185 3.272 45.196 45.196 0 0 1 11.007 8.022s38.075 35.195 42.749 39.517c2.186 2.021 2.919 5.628 3.079 8.896.183 3.72.124 7 .124 7v26.046c0 5.495-4.434 9.96-9.929 10l-63.571.454s-9.989.692-13.449-3.038l-22.695-24.473a45.096 45.096 0 0 1-12.94-25.451 45.511 45.511 0 0 1-.437-4.327 45.443 45.443 0 0 1 2.391-17.167 44.986 44.986 0 0 1 7.541-13.644 45.726 45.726 0 0 1 4.771-5.073 45.17 45.17 0 0 1 11.223-7.524 45.172 45.172 0 0 1 6.163-2.366 45.498 45.498 0 0 1 25.788-.144z" fill="#000"/><path d="M185.906 276.392a27.64 27.64 0 0 1 5.187 2.18 28.639 28.639 0 0 1 5.899 4.282c.365.343.724.698 1.076 1.064l27.088 26.332c1.385 1.347 12.242 9.573 12.344 11.75.116 2.479 0 5.5 0 5.5V345s-13.124-.165-16.606-.139L179 345.5s-.5-.5-2.5-3L161 326c-4.578-4.761-9-9.5-11.491-16.127a32.043 32.043 0 0 1-.045-8.665 31.487 31.487 0 0 1 1.283-5.658 30.444 30.444 0 0 1 4.779-9.091 29.921 29.921 0 0 1 3.023-3.381 28.65 28.65 0 0 1 7.111-5.013 27.602 27.602 0 0 1 12.23-2.868c2.701 0 5.401.399 8.016 1.195z" fill="#fff"/><path d="M402.153 259.793a44.98 44.98 0 0 0-8.186 3.272 45.163 45.163 0 0 0-9.308 6.426 44.625 44.625 0 0 0-1.698 1.596l-42.75 39.517c-2.186 2.021-2.918 5.628-3.078 8.896-.183 3.72-.124 7-.124 7v26.046c0 5.495 4.434 9.96 9.929 10l63.571.454s9.989.692 13.449-3.038l22.694-24.473a45.091 45.091 0 0 0 12.941-25.451 45.84 45.84 0 0 0 .437-4.327 45.443 45.443 0 0 0-2.391-17.167 44.986 44.986 0 0 0-7.541-13.644 45.726 45.726 0 0 0-4.771-5.073 45.17 45.17 0 0 0-11.223-7.524 45.172 45.172 0 0 0-6.163-2.366A45.469 45.469 0 0 0 414.804 258c-4.263 0-8.525.598-12.651 1.793z" fill="#000"/><path d="M405.189 276.392a27.64 27.64 0 0 0-5.187 2.18 28.639 28.639 0 0 0-5.899 4.282c-.365.343-.724.698-1.076 1.064l-27.088 26.332c-1.386 1.347-12.243 9.573-12.344 11.75-.116 2.479 0 5.5 0 5.5V345s13.124-.165 16.606-.139l41.894.639s.5-.5 2.5-3l15.5-16.5c4.578-4.761 9-9.5 11.491-16.127a32.043 32.043 0 0 0 .045-8.665 31.487 31.487 0 0 0-1.284-5.658 30.44 30.44 0 0 0-4.778-9.091 29.921 29.921 0 0 0-3.023-3.381 28.677 28.677 0 0 0-5.853-4.35 27.602 27.602 0 0 0-13.488-3.531c-2.701 0-5.402.399-8.016 1.195z" fill="#fff"/></svg>