<svg width="590" height="590" fill="none" xmlns="http://www.w3.org/2000/svg"><path d="M250.748 345.168c30.351-12.876 53.458-32.038 62.822-40.515 1.87-1.693 4.981-.564 5.267 1.943l.833 7.281a3.004 3.004 0 0 1-.409 1.884L305.4 338.864c-.099.165-.214.32-.343.463l-21.499 23.888a2.13 2.13 0 0 1-.188.192c-2.505 2.26-63.269 57.478-72.591 104.09-3.475 17.373-1.165 43.586-.293 51.886.158 1.506 1.429 2.617 2.943 2.617h283.244a6 6 0 0 0 6-6v-91.77c0-.223-.026-.454-.076-.671C449.409 189.467 295.15 168.65 280.878 167.218c-.755-.076-1.351-.4-1.871-.951l-28.044-29.713c-1.729-1.832-4.81-.846-5.154 1.649l-3.715 26.931a3.015 3.015 0 0 1-2.246 2.494c-28.222 7.091-26.136 1.158-42.185-22.302-1.521-2.224-4.936-1.406-5.311 1.263-1.521 10.846-4.402 31.105-6.246 42.336-2.305 14.035-12.527 23.162-14.833 25.065a3.303 3.303 0 0 0-.766.891L98.25 338.921a2.97 2.97 0 0 0-.193.396l-2.328 5.821-.006.014-.01.024c-.242.649-14.505 39.022-3.63 52.072 10.442 12.531 30.786 19.66 36.198 21.387.859.275 1.551.89 1.959 1.695 1.876 3.707 7.92 13.991 15.897 10.831 9.644-3.82 17.922-11.502 24.673-19.378 29.068-33.913 39.969-49.659 79.938-66.615z" fill="#fff" stroke="#000" stroke-width="15"/><path d="M217.663 232.778a1 1 0 0 1 1.282 1.206l-9.632 36.265a.998.998 0 0 1-.65.692l-35.604 11.847a1 1 0 0 1-1.282-1.205l9.631-36.266a.999.999 0 0 1 .651-.692l35.604-11.847zM134.089 360.68a1 1 0 0 1 1.143 1.075l-1.926 22.528c-.04.462-.392.836-.85.904l-22.367 3.31a1 1 0 0 1-1.143-1.075l1.927-22.528a1 1 0 0 1 .85-.904l22.366-3.31z" fill="#000"/><path d="M438.931 473C424.431 247.5 333 218.5 333 218.5l6-6.5s110.847 71.471 127.278 211c2.131 18.094 3.145 29.624 1.653 50h-29z" fill="#000" stroke="#000"/><path fill="#000" d="M342 392h33v23h-33zm0-74h16v16h-16zm-55-60h19v7h-19z"/></svg>