<svg width="590" height="590" fill="none" xmlns="http://www.w3.org/2000/svg"><path d="M344.142 193.625c0 21.66-20.942 41.125-49.315 41.125-28.373 0-49.314-19.465-49.314-41.125s20.941-41.125 49.314-41.125 49.315 19.465 49.315 41.125zM367.5 303c0 32.277-31.447 60.5-73 60.5s-73-28.223-73-60.5 31.447-60.5 73-60.5 73 28.223 73 60.5zm-209 216v-55.97c0-11.22 3.054-22.629 9.394-33.644 6.37-11.069 15.957-21.544 28.548-30.606 12.583-9.056 27.75-16.397 44.703-21.451 16.942-5.051 35.193-7.675 53.683-7.675 18.49 0 36.74 2.624 53.683 7.675 16.952 5.054 32.119 12.395 44.702 21.451 12.591 9.062 22.179 19.537 28.549 30.606 6.335 11.008 9.389 22.41 9.393 33.622v.022l-.296 56.01a7.5 7.5 0 0 1-7.5 7.46H166a7.5 7.5 0 0 1-7.5-7.5z" fill="#fff" stroke="#000" stroke-width="15"/></svg>