<svg width="590" height="590" fill="none" xmlns="http://www.w3.org/2000/svg"><path d="M422 404.5V442H168v-37.5c-36.783-38.524-54.465-65.474-77.5-129V243c24.166 40.115 52 64.5 92 87V209L260 322l27.5-138.5h14L330 322l77.5-113v121c42-21.5 67.834-46.885 92-87v32.5c-23.035 63.526-40.717 90.476-77.5 129z" fill="#fff"/><path d="M499.5 243v32.5c-23.035 63.526-40.717 90.476-77.5 129V442H168v-37.5c-36.783-38.524-54.465-65.474-77.5-129V243m409 0v-47m0 47c-24.166 40.115-50 65.5-92 87V209m0 0v-49m0 49L330 322l-28.5-138.5H295m0 0V151m0 32.5h-7.5L260 322l-77.5-113m-92 34v-47m0 47c24.166 40.115 52 64.5 92 87V209m0 0v-49" stroke="#000" stroke-width="15"/><path d="M136.5 519.5v-58.508c0-.31.144-.603.389-.792l23.341-17.992a1 1 0 0 1 .611-.208h266.326a1 1 0 0 1 .6.2l23.333 17.5a1 1 0 0 1 .4.8v59a1 1 0 0 1-1 1h-313a1 1 0 0 1-1-1z" fill="#fff" stroke="#000" stroke-width="20"/><path d="M120.5 341.5c139.841-9.877 216.794-11.587 348.5 0m-318.5 45.562c138.642-4.267 156.059-5.914 289 0" stroke="#000" stroke-width="15"/><path d="M480 156h38v38h-38v-38zm-92-39h38v38h-38v-38zm-112-9h38v38h-38v-38zM72 156h38v38H72v-38zm92-39h38v38h-38v-38z" fill="#fff" stroke="#000" stroke-width="10"/></svg>