<svg width="590" height="590" fill="none" xmlns="http://www.w3.org/2000/svg"><path d="M207.014 222.049v159.017H385V222l-177.986.049zM426 447l-40.047-55.186a5.005 5.005 0 0 1-.953-2.937v-7.811H207.014v7.716a5 5 0 0 1-1.056 3.073L163 447h263zm-287 69a5 5 0 0 0 5 5h302a5 5 0 0 0 5-5v-35.666c0-1.126-.38-2.219-1.079-3.102L426 447H163l-22.982 30.255a5.004 5.004 0 0 0-1.018 3.024V516z" fill="#fff"/><path d="M385 222h3.854c.754 0 1.499-.171 2.177-.499l57.146-27.636a5 5 0 0 0 2.823-4.501V137a5 5 0 0 0-5-5h-58a5 5 0 0 0-5 5v23a5 5 0 0 1-5 5h-41a5 5 0 0 1-5-5v-23a5 5 0 0 0-5-5h-64a5 5 0 0 0-5 5v22a5 5 0 0 1-5 5h-40.986a5 5 0 0 1-5-5v-22a5 5 0 0 0-5-5H144a5 5 0 0 0-5 5v51.843a4.999 4.999 0 0 0 2.85 4.514l59.153 28.168a4.997 4.997 0 0 0 2.101.486l3.91.038L385 222z" fill="#fff"/><path d="M385 222h3.854c.754 0 1.499-.17 2.177-.499l57.146-27.636a5 5 0 0 0 2.823-4.501V137a5 5 0 0 0-5-5h-58a5 5 0 0 0-5 5v23a5 5 0 0 1-5 5h-41a5 5 0 0 1-5-5v-23a5 5 0 0 0-5-5h-64a5 5 0 0 0-5 5v22a5 5 0 0 1-5 5h-40.986a5 5 0 0 1-5-5v-22a5 5 0 0 0-5-5H144a5 5 0 0 0-5 5v51.843a4.999 4.999 0 0 0 2.85 4.514l59.153 28.168a4.997 4.997 0 0 0 2.101.486l3.91.038M385 222v159.066M385 222l-177.986.049m0 0v159.017M426 447l23.921 30.232a4.997 4.997 0 0 1 1.079 3.102V516a5 5 0 0 1-5 5H144a5 5 0 0 1-5-5v-35.721c0-1.092.358-2.154 1.018-3.024L163 447m263 0-40.047-55.186a5.005 5.005 0 0 1-.953-2.937v-7.811M426 447H163m0 0 42.958-55.145a5 5 0 0 0 1.056-3.073v-7.716m0 0H385" stroke="#000" stroke-width="15"/></svg>