<svg width="590" height="590" fill="none" xmlns="http://www.w3.org/2000/svg"><path d="M476.537 477.783V522H112.9l.002-43.898m0 0s26.075-89.817 167.959-126.042c3.739-.962 2.156-3.175 5.139-7.538.968-1.417 9.069-4.045 9.069-4.045s7.963 2.628 8.931 4.045c2.983 4.363 1.424 6.576 5.163 7.538 141.884 36.225 167.374 125.723 167.374 125.723" fill="#fff"/><path d="M295.069 340.477 265 300.889 98 301s194.738-29.833 197.069-122.691" fill="#fff"/><path d="M295.069 340.477 325 301.049 492 301s-194.601-29.833-196.931-122.691m0 0h-85.338l-35.409-32.15V99.485l16.992 31.884h53.892S250.541 80 295.069 80m0 98.309h85.406l35.409-32.15V99.485l-16.993 31.884H345S339.596 80 295.069 80" fill="#fff"/><path d="M476.537 477.783h7.5v-1.047l-.287-1.007-7.213 2.054zm0 44.217v7.5h7.5V522h-7.5zM112.9 522h-7.5v7.5h7.5V522zm.002-43.898-7.202-2.091-.298 1.024v1.066l7.5.001zM280.861 352.06l1.855 7.267.013-.003-1.868-7.264zm28.302 0-1.868 7.264.013.003 1.855-7.267zM98 301l-1.136-7.414a7.5 7.5 0 0 0 1.141 14.914L98 301zm394 0 .002 7.5a7.5 7.5 0 0 0 7.476-6.931 7.498 7.498 0 0 0-6.341-7.982L492 301zM209.731 178.309l-5.042 5.552a7.502 7.502 0 0 0 5.042 1.948v-7.5zm-35.409-32.15h-7.5c0 2.115.893 4.131 2.458 5.553l5.042-5.553zm0-46.674 6.619-3.528a7.5 7.5 0 0 0-14.119 3.528h7.5zm16.992 31.884-6.619 3.527a7.5 7.5 0 0 0 6.619 3.973v-7.5zm53.892 0v7.5a7.5 7.5 0 0 0 7.459-6.726l-7.459-.774zM265 300.889l5.973-4.536a7.503 7.503 0 0 0-5.978-2.964l.005 7.5zm60 .16-.002-7.5a7.497 7.497 0 0 0-5.972 2.965l5.974 4.535zm-39 43.473-6.192-4.233 6.192 4.233zm18 0 6.192-4.233-6.192 4.233zm76.475-166.213v7.5a7.5 7.5 0 0 0 5.041-1.948l-5.041-5.552zm35.409-32.15 5.041 5.553a7.5 7.5 0 0 0 2.459-5.553h-7.5zm0-46.674h7.5a7.5 7.5 0 0 0-14.119-3.528l6.619 3.528zm-16.993 31.884v7.5a7.5 7.5 0 0 0 6.619-3.973l-6.619-3.527zm-53.891 0-7.459.784a7.502 7.502 0 0 0 7.459 6.716v-7.5zm124.037 346.414V522h15v-44.217h-15zm7.5 36.717H112.9v15h363.637v-15zM120.4 522l.002-43.898-15-.001L105.4 522h15zm-7.498-43.898c7.203 2.091 7.202 2.095 7.2 2.099l-.001.007-.002.006.003-.01.035-.116c.038-.119.102-.32.197-.6.189-.559.498-1.43.949-2.58.901-2.3 2.367-5.709 4.568-9.953 4.402-8.487 11.745-20.308 23.402-33.276 23.254-25.869 63.944-56.602 133.463-74.352l-3.711-14.534c-72.364 18.476-115.653 50.763-140.908 78.859-12.597 14.014-20.641 26.911-25.561 36.396-2.46 4.743-4.14 8.633-5.219 11.387a73.315 73.315 0 0 0-1.191 3.245 42.55 42.55 0 0 0-.301.918l-.083.271-.026.087-.01.032-.003.012c-.002.006-.003.011 7.199 2.102zm194.406-118.775c69.522 17.75 110.061 48.404 133.163 74.184 11.581 12.924 18.85 24.701 23.197 33.153 2.174 4.226 3.616 7.62 4.502 9.909.442 1.144.745 2.011.931 2.567.092.278.155.478.192.595l.034.115.003.01a.04.04 0 0 0-.002-.007l-.002-.007c-.001-.004-.002-.008 7.211-2.063 7.213-2.054 7.212-2.059 7.21-2.065l-.004-.013a.319.319 0 0 0-.009-.031l-.025-.087-.083-.272c-.068-.223-.166-.53-.294-.916a73.187 73.187 0 0 0-1.173-3.238c-1.063-2.748-2.72-6.628-5.152-11.358-4.866-9.461-12.838-22.323-25.365-36.302-25.114-28.025-68.262-60.233-140.623-78.708l-3.711 14.534zM122.976 465.634h344.602v-15H122.976v15zM98 301c1.136 7.414 1.138 7.413 1.141 7.413l.01-.002.034-.005.12-.019c.102-.016.251-.039.445-.071.387-.062.954-.155 1.688-.279a370.61 370.61 0 0 0 6.314-1.128 535.02 535.02 0 0 0 22.409-4.716c18.507-4.297 43.291-11.023 68.22-20.728 24.852-9.674 50.287-22.475 69.78-39.106 19.532-16.663 33.75-37.771 34.405-63.862l-14.995-.376c-.51 20.337-11.508 37.78-29.145 52.827-17.676 15.079-41.362 27.148-65.486 36.539-24.047 9.361-48.093 15.897-66.172 20.095a521.556 521.556 0 0 1-21.775 4.583c-2.619.49-4.669.848-6.055 1.082-.694.117-1.22.204-1.57.26l-.39.062-.092.014a.115.115 0 0 1-.02.003l-.003.001s.001-.001 1.137 7.413zm394 0 1.138-7.413-.004-.001a.112.112 0 0 1-.019-.003l-.092-.014-.389-.062c-.35-.056-.876-.143-1.569-.26a348.217 348.217 0 0 1-6.051-1.082 519.13 519.13 0 0 1-21.759-4.583c-18.066-4.198-42.095-10.734-66.125-20.094-24.107-9.391-47.776-21.459-65.438-36.538-17.624-15.047-28.615-32.49-29.126-52.829l-14.995.376c.655 26.089 14.863 47.197 34.381 63.861 19.481 16.631 44.899 29.432 69.734 39.106 24.912 9.705 49.679 16.431 68.174 20.729a533.882 533.882 0 0 0 22.393 4.716c2.709.507 4.844.88 6.31 1.128.733.124 1.299.217 1.687.279l.445.071.119.019.034.005.01.002c.003 0 .005 0 1.142-7.413zM214.772 172.756l-35.408-32.15-10.084 11.106 35.409 32.149 10.083-11.105zm-32.95-26.597V99.485h-15v46.674h15zm-14.119-43.147 16.992 31.884 13.238-7.055-16.992-31.884-13.238 7.055zm23.611 35.857h53.892v-15h-53.892v15zm53.892-7.5c7.459.774 7.459.777 7.459.78l-.001.005v.005-.002l.007-.058a41.935 41.935 0 0 1 .25-1.711 68.223 68.223 0 0 1 1.093-5.238c1.095-4.412 2.962-10.203 6.032-15.916C266.109 97.95 276.435 87.5 295.069 87.5v-15c-25.894 0-40.5 15.235-48.237 29.635-3.83 7.129-6.08 14.18-7.376 19.4a82.932 82.932 0 0 0-1.333 6.4 55.003 55.003 0 0 0-.349 2.408l-.019.163a1.193 1.193 0 0 1-.006.053l-.002.02-.001.008c0 .003 0 .007 7.46.782zm49.863 39.44h-85.338v15h85.338v-15zm5.972 165.132-30.068-39.588-11.946 9.073 30.069 39.588 11.945-9.073zm-36.046-42.552-167 .111.01 15 167-.111-.01-15zm36.047 51.623 29.932-39.429-11.948-9.069-29.931 39.428 11.947 9.07zm23.96-36.463 167-.049-.004-15-167 .049.004 15zm-42.273 50.775c1.708-.44 3.647-1.235 5.312-2.847 1.642-1.592 2.363-3.365 2.719-4.34.708-1.942.634-2.216 1.432-3.383l-12.384-8.465c-2.185 3.197-2.959 6.211-3.14 6.708-.089.243.141-.524.935-1.293.816-.791 1.551-.949 1.389-.908l3.737 14.528zm9.463-10.57a6.059 6.059 0 0 1-1.032 1.168 3.56 3.56 0 0 1-.36.278c-.039.025.06-.041.366-.193.598-.297 1.459-.664 2.448-1.048a78.07 78.07 0 0 1 3.481-1.252l.226-.075.053-.018a.043.043 0 0 1 .01-.003h.001-.001l-2.315-7.134c-2.315-7.134-2.315-7.134-2.316-7.133h-.001l-.003.001-.008.002-.024.008-.083.028-.292.096c-.246.083-.593.2-1.011.345a90.41 90.41 0 0 0-3.15 1.154c-1.157.449-2.503 1.005-3.696 1.599-.59.294-1.283.665-1.95 1.105-.474.314-1.743 1.168-2.727 2.607l12.384 8.465zm2.877-8.277-2.352 7.122h-.001.001a.856.856 0 0 0 .062.021l.221.074a76.977 76.977 0 0 1 3.416 1.25c.972.384 1.816.748 2.401 1.044.299.15.394.215.355.189-.024-.016-.161-.107-.356-.277a6.067 6.067 0 0 1-1.008-1.146l12.384-8.465c-.968-1.416-2.21-2.265-2.687-2.584a18.486 18.486 0 0 0-1.929-1.108c-1.181-.596-2.509-1.154-3.65-1.604a88.902 88.902 0 0 0-4.101-1.501c-.121-.042-.218-.074-.287-.097l-.082-.028-.024-.008-.008-.002-.003-.001-.001-.001-2.351 7.122zm2.739 8.277c.808 1.182.733 1.459 1.455 3.413.362.979 1.091 2.742 2.731 4.323 1.661 1.601 3.594 2.394 5.301 2.834l3.737-14.528c-.162-.041.563.115 1.371.894.788.759 1.018 1.516.93 1.276-.179-.484-.967-3.495-3.141-6.677l-12.384 8.465zm87.708-164.893 35.409-32.149-10.083-11.106-35.409 32.15 10.083 11.105zm37.868-37.702V99.485h-15v46.674h15zm-14.119-50.202-16.992 31.884 13.237 7.055 16.992-31.884-13.237-7.055zm-10.374 27.912H345v15h53.891v-15zm-53.891 7.5c7.459-.785 7.458-.788 7.458-.792l-.001-.008-.002-.02a.783.783 0 0 0-.006-.053l-.019-.162a28.74 28.74 0 0 0-.068-.539 59.284 59.284 0 0 0-.284-1.87 83.245 83.245 0 0 0-1.341-6.4c-1.304-5.219-3.563-12.269-7.402-19.397C335.581 87.732 320.96 72.5 295.069 72.5v15c18.636 0 28.98 10.453 35.06 21.741 3.078 5.714 4.953 11.506 6.054 15.918.547 2.19.894 4.001 1.1 5.238.104.618.172 1.09.212 1.391l.041.321.007.058v.002l-.001-.006v-.004c-.001-.003-.001-.006 7.458-.79zm-49.931 54.44h85.406v-15h-85.406v15zm23.431 84.696c0 12.979-10.521 23.5-23.5 23.5s-23.5-10.521-23.5-23.5 10.521-23.5 23.5-23.5 23.5 10.521 23.5 23.5z" fill="#000"/></svg>