<svg xmlns="http://www.w3.org/2000/svg" xml:space="preserve" width="189.024" height="189.024" style="shape-rendering:geometricPrecision;text-rendering:geometricPrecision;image-rendering:optimizeQuality;fill-rule:evenodd;clip-rule:evenodd" viewBox="0 0 5001.26 5001.26"><defs><style>.str2{stroke:#2b2a29;stroke-width:125;stroke-miterlimit:22.9256}.fil2{fill:none}.fil0{fill:#575452}</style></defs><g id="Слой_x0020_1"><g id="_2309174334096"><path class="fil0" d="M3112.64 3354.8c188.46 21.96 359.21 300.63 533.1 391.08 145.86 75.87 186.27 253.41 251.88 383.72.57 1.13 61.29 304.78-1.81 302.08-357.17-15.28-733.45 24.05-1091 5.74-319.06-16.33-873.22-46.22-1168.55 14.06-106.29 21.69-442.73-75.16-490.32-7.69v-414.32l189.22-203.02 407.78-331.58c20.87-62.99 96.91-27.25 313.78-181.5 79.44-56.5 165-92.28 219.6-135.16 16.47-12.94 197.94-88 219.84-88 98.7 0 335.05 121.13 423.33 172.66 28.47 16.62 5.38 22.98 77.64 46.72 29.79 9.79 69.7 45.21 115.51 45.21z" style="stroke:#2b2a29;stroke-width:35.28;stroke-miterlimit:22.9256"/><path style="fill:#464342" d="m3769.57 3885.62-490.09-424.84-555.94-294.23 511.17 719.07z"/><path class="fil0" d="M1456.32 2730.88c171.17-175.43 284.12-133.87 472.77-244.34 150.57-88.18 127.07-71.52 256.12-216.05 46.82-52.44 308.28-309.77 308.28-349.71 0-17.61 32.9-78.92 52-78.92 4.72 40.97 204.45 346.98 234.2 366.94 31.02 20.81 64.54 78.42 149.07 105.38 4.07 1.29 175.38 161.53 233.64 171.47 29.97 5.12 295.15 134.38 303.52 183.85 23.27 137.61 111.16.24-159.33 48.97-149.31 26.89-312.39 15.62-492.22 39.21-87.54 11.48-171.55 283.04-264.6 277.58-105.84-6.22-157.08-191.28-265.86-266.46-117.22-81-291.03-51.4-374.78-23.42-35.46 11.84-416.33 39.48-415.77 20.71 1.48-49.24-10.58-62.33-37.04-35.21zm505.35-959.67c285.94-16.6 450.93 20 730.71-22.86 150.18-23.01 570.42 115.64 597.06-190.05 2.25-25.82 89.23-207.2 9.67-160.11-21.84 12.93-438.06-25.07-437.85-30.39 1.73-43.86-47.11-258.24-78.01-276.53-39.68-23.49-33.99-205.45-360.75-156.94-139.52 20.72-129.76-33.49-210.75 184.76-89.28 240.59 196.34 319.9-336.1 264.14-13.76-1.44-166.07 5.2-153.46 37.04 59.67 150.62-82.64 253.66 250.07 339.92l-10.59 11.02z" style="stroke-width:17.64;stroke:#2b2a29;stroke-miterlimit:22.9256"/><path class="fil2 str2" d="M3887.91 4029.47c-310.49-413.03-762.95-725.47-1357.37-937.3-580.82 219.22-1042.35 531.65-1384.6 937.3v414.32h2741.97v-414.32zm-2611.82-143.85h2493.48m-1429.54-801.37h381m-485.67-377.56 295.17 377.56m304.32-377.27-294.94 377.27M940.26 2730.88h1343.99m500.89 0h1262.33m-2696.3 0c581.5-194.34 976.61-514.22 1185.34-959.65"/><path class="fil2 str2" d="M3696.51 2730.88c-581.5-194.34-976.61-514.22-1185.34-959.65m-627.34-.02h1251.12m-1205 20-220.77-236.79v-430.4m1380.01 667.19 220.77-236.79v-430.4"/><path class="fil2 str2" d="M1709.18 1393.9h459.15v-203.74c53.83-136.77 127.91-218.79 222.25-246.06h229.6c94.34 27.27 168.42 109.29 222.25 246.06v203.74h459.15"/></g></g></svg>