<svg xmlns="http://www.w3.org/2000/svg" xml:space="preserve" width="189.024" height="189.024" style="shape-rendering:geometricPrecision;text-rendering:geometricPrecision;image-rendering:optimizeQuality;fill-rule:evenodd;clip-rule:evenodd" viewBox="0 0 5001.26 5001.26"><defs><style>.str1{stroke-miterlimit:22.9256;stroke-width:125;stroke:#2b2a29}.fil2{fill:none}.fil0{fill:#575452}</style></defs><g id="Слой_x0020_1"><path class="fil0" d="M3782.03 1577.08H1232.25l974.12 1046.76h550.59zm-766.52-630.65H1949.06l323.8 397.02v233.63h433.95v-208.72z" style="stroke:#2b2a29;stroke-width:35.28;stroke-miterlimit:22.9256"/><g id="_2308941685232"><path class="fil0 str1" d="M2195.34 2627.15h550.59v299.94L3900.99 4073.2v373.9H1070.2v-373.9l1125.14-1146.11z"/><path style="fill:#464342" d="m3520.99 3696.14-837.24-745.23 412.72 746.25z"/><path class="fil2 str1" d="M1439.36 3697.16h2072.48m-1316.5-1070.01-1023.4-1046.76M2747.6 2627.15 3771 1580.39m-2841.43 0h3130.02m-1363.81 0v-208.72l344.13-421.93H1938.03l344.13 421.93v208.72"/><path class="fil2" d="M2220.83 2062.55h538.62m-269.34 269.31v-538.63" style="stroke:#fefefe;stroke-width:125;stroke-miterlimit:22.9256"/></g></g></svg>