<svg xmlns="http://www.w3.org/2000/svg" xml:space="preserve" width="189.024" height="189.024" style="shape-rendering:geometricPrecision;text-rendering:geometricPrecision;image-rendering:optimizeQuality;fill-rule:evenodd;clip-rule:evenodd" viewBox="0 0 5001.26 5001.26"><defs><style>.str1{stroke-miterlimit:22.9256;stroke:#333;stroke-width:125}.fil0{fill:#fefefe}</style></defs><g id="Слой_x0020_1"><path class="fil0" d="M3774.57 1583.04H1224.79l974.12 1046.76h550.59zm-766.52-630.65H1941.6l323.8 397.02v233.63h433.95v-208.72z" style="stroke:#575452;stroke-width:35.28;stroke-miterlimit:22.9256"/><path class="fil0 str1" d="M2198.91 2629.8h550.59v299.94l1155.06 1146.11v373.9H1073.77v-373.9l1125.14-1146.11z"/><path style="fill:#e6e6e6" d="m3524.56 3698.79-837.24-745.23 412.72 746.25z"/><path class="str1" d="M1442.93 3699.81h2072.48M2198.91 2629.8l-1023.4-1046.76M2751.17 2629.8l1023.4-1046.76m-2841.43 0h3130.02m-1363.81 0v-208.72l344.13-421.93H1941.6l344.13 421.93v208.72m-61.33 482.16h538.62m-269.34 269.31v-538.63" style="fill:none"/></g></svg>