<?xml version="1.0" encoding="UTF-8"?>
<!DOCTYPE svg PUBLIC "-//W3C//DTD SVG 1.1//EN" "http://www.w3.org/Graphics/SVG/1.1/DTD/svg11.dtd">
<!-- Creator: CorelDRAW 2020 (64-Bit) -->
<svg xmlns="http://www.w3.org/2000/svg" xml:space="preserve" width="50.0126mm" height="50.0126mm" version="1.1" style="shape-rendering:geometricPrecision; text-rendering:geometricPrecision; image-rendering:optimizeQuality; fill-rule:evenodd; clip-rule:evenodd"
viewBox="0 0 5001.26 5001.26"
 xmlns:xlink="http://www.w3.org/1999/xlink"
 xmlns:xodm="http://www.corel.com/coreldraw/odm/2003">
 <defs>
  <style type="text/css">
   <![CDATA[
    .str0 {stroke:#2B2A29;stroke-width:35.28;stroke-miterlimit:22.9256}
    .str2 {stroke:#FEFEFE;stroke-width:125;stroke-miterlimit:22.9256}
    .str1 {stroke:#2B2A29;stroke-width:125;stroke-miterlimit:22.9256}
    .fil2 {fill:none}
    .fil1 {fill:#464342}
    .fil0 {fill:#575452}
   ]]>
  </style>
 </defs>
 <g id="Слой_x0020_1">
  <metadata id="CorelCorpID_0Corel-Layer"/>
  <polygon class="fil0 str0" points="3782.03,1577.08 1232.25,1577.08 2206.37,2623.84 2756.96,2623.84 "/>
  <polygon class="fil0 str0" points="3015.51,946.43 1949.06,946.43 2272.86,1343.45 2272.86,1577.08 2706.81,1577.08 2706.81,1368.36 "/>
  <g id="_2308941685232">
   <polygon class="fil0 str1" points="2195.34,2627.15 2745.93,2627.15 2745.93,2927.09 3900.99,4073.2 3900.99,4447.1 1070.2,4447.1 1070.2,4073.2 2195.34,2927.09 "/>
   <polygon class="fil1" points="3520.99,3696.14 2683.75,2950.91 3096.47,3697.16 "/>
   <line class="fil2 str1" x1="1439.36" y1="3697.16" x2="3511.84" y2= "3697.16" />
   <line class="fil2 str1" x1="2195.34" y1="2627.15" x2="1171.94" y2= "1580.39" />
   <line class="fil2 str1" x1="2747.6" y1="2627.15" x2="3771" y2= "1580.39" />
   <line class="fil2 str1" x1="929.57" y1="1580.39" x2="4059.59" y2= "1580.39" />
   <polyline class="fil2 str1" points="2695.78,1580.39 2695.78,1371.67 3039.91,949.74 1938.03,949.74 2282.16,1371.67 2282.16,1580.39 "/>
   <line class="fil2 str2" x1="2220.83" y1="2062.55" x2="2759.45" y2= "2062.55" />
   <line class="fil2 str2" x1="2490.11" y1="2331.86" x2="2490.11" y2= "1793.23" />
  </g>
 </g>
</svg>
